<svg xmlns="http://www.w3.org/2000/svg" xmlns:xlink="http://www.w3.org/1999/xlink" version="1.1" id="Layer_1" x="0px" y="0px" viewBox="0 0 128 23" style="enable-background:new 0 0 128 23;" xml:space="preserve" fill="#FFFFFF">
<g id="_Group_" transform="translate(-0.5 -112.39)">
	<g id="_Group_2" transform="translate(0.5 112.39)">
		<g id="_Group_3">
			<path id="_Path_" d="M42.7,0.5h-5.5v22h24.2v-4.9H42.7V0.5z"/>
			<path id="_Compound_Path_" d="M89.1,3.3c-2.7-2-6.5-2.8-10.2-2.8H65.2v22.1H79c3.8,0,7.5-0.8,10.3-2.8c4.6-2.9,6-8.9,3-13.5     C91.3,5.1,90.3,4,89.1,3.3L89.1,3.3z M79.2,17.7h-8.4V5.3h8.4c5.2,0,8.9,2.7,8.9,6.2S84.4,17.7,79.2,17.7L79.2,17.7z"/>
			<path id="_Compound_Path_2" d="M0,22.5h6.3l2.6-3.4h16.5l2.5,3.4h6.6L17.2,0L0,22.5z M22.2,14.7H12.1l5.1-6.7L22.2,14.7z"/>
			<path id="_Compound_Path_3" d="M122.9,3.2c-3-2.1-6.7-3.2-10.3-3.2h-1c-3.7-0.1-7.3,1-10.3,3.2c-2.9,2.2-4.7,5.2-4.7,8.3     s1.8,6.1,4.8,8.3c3,2.1,6.7,3.2,10.4,3.2h1c3.7,0.1,7.3-1.1,10.4-3.2c3-2.2,4.7-5.2,4.8-8.3C128.1,8.3,125.8,5.4,122.9,3.2z      M112.5,18.2h-1c-5.3,0-9.4-3.2-9.4-6.7s4.1-6.7,9.4-6.7h1c5.3,0,9.4,3.2,9.4,6.7S117.8,18.2,112.5,18.2z"/>
		</g>
	</g>
</g>
</svg>