<svg xmlns="http://www.w3.org/2000/svg" xmlns:xlink="http://www.w3.org/1999/xlink" width="391px" height="149px" viewBox="0 0 348 105" version="1.1">
    <!-- Generator: Sketch 48.2 (47327) - http://www.bohemiancoding.com/sketch -->
    <title>Artboard 2</title>
    <desc>Created with Sketch.</desc>
    <defs/>
    <g id="Page-1" stroke="none" stroke-width="1" fill="none" fill-rule="evenodd">
        <g id="Artboard-2" fill="#FFFFFF">
            <g id="Group" transform="translate(19.000000, 8.000000)">
                <path d="M153.91922,50.7141718 C153.539029,55.7967389 152.404429,60.6239029 150.516337,65.1862955 C148.160471,70.8744273 144.971187,75.8553246 140.964255,80.1099435 C138.960713,82.2344117 136.768836,84.1398752 134.391227,85.8198837 C132.02694,87.4920596 129.471868,88.9421593 126.738261,90.1566676 C121.269517,92.5968957 115.434362,93.8166258 109.23586,93.8166258 C106.144724,93.8166258 103.135506,93.5097736 100.230101,92.903748 L100.224895,92.903748 C97.3225529,92.29204 94.5073346,91.3765513 91.7902646,90.1566676 C89.0793193,88.9400091 86.5406312,87.4920596 84.1847654,85.8198837 C81.8287465,84.1450969 79.6396256,82.2399405 77.6334802,80.1099435 C73.6211893,75.852253 70.4531883,70.8715093 68.1385111,65.1775414 C66.2851769,60.6186812 65.1675723,55.7936673 64.7964155,50.7141718 L86.5462966,50.7141718 C86.5949879,51.0402215 86.6522539,51.3645819 86.7151852,51.6844884 C87.0185109,53.2417868 87.4859786,54.763301 88.0979893,56.2382806 C89.3279821,59.1850145 90.9899194,61.7619286 93.0746142,63.9552005 C94.1276032,65.0574421 95.2534761,66.0438846 96.4536111,66.9019345 C97.671967,67.7739601 98.9783655,68.5384799 100.367294,69.1879685 C101.74183,69.8322354 103.176847,70.3181616 104.652441,70.6380682 C106.117316,70.9567461 107.650787,71.1183119 109.23586,71.1183119 C110.831803,71.1183119 112.367878,70.9567461 113.844084,70.6380682 C115.324883,70.3181616 116.773681,69.8270137 118.178228,69.1827468 C119.58844,68.5332582 120.91704,67.7682776 122.152239,66.8988629 C123.379323,66.0299088 124.530307,65.0465379 125.59034,63.9521289 C126.645472,62.8641702 127.599394,61.6682449 128.432813,60.38524 C129.274806,59.1002385 130.00487,57.7131066 130.61979,56.2382806 C131.234404,54.763301 131.6959,53.2417868 132.002747,51.6844884 C132.065679,51.3645819 132.122944,51.0402215 132.171483,50.7141718 L153.91922,50.7141718 Z M91.7902646,3.6590367 C97.2187392,1.22249453 103.040113,0 109.23586,0 C115.434362,0 121.269517,1.22249453 126.738261,3.6590367 C129.468806,4.87369866 132.024337,6.31857661 134.391227,7.9819985 C136.774501,9.65417443 138.96944,11.5436657 140.964255,13.6406431 C144.968124,17.8487272 148.157409,22.8076626 150.516337,28.5037807 C152.421884,33.1070255 153.558169,37.9755024 153.927029,43.1016861 L132.188019,43.1016861 C132.133816,42.7400059 132.073488,42.3807829 132.002747,42.0272424 C131.6959,40.4753194 131.234404,38.9676274 130.622087,37.5232101 L130.622087,37.5201385 C130.012679,36.0731105 129.280471,34.6994935 128.438478,33.4166422 C127.6046,32.1497631 126.650984,30.959981 125.59034,29.8668006 C124.530307,28.7728523 123.382385,27.7857955 122.149636,26.9196059 C120.919643,26.0475803 119.591502,25.2825997 118.178228,24.6361827 C115.377096,23.3448845 112.395286,22.6984675 109.23586,22.6984675 C107.65385,22.6984675 106.117316,22.8598798 104.652441,23.1799399 C103.176847,23.5012286 101.74183,23.9866941 100.367294,24.630961 L100.364232,24.6361827 C98.9727001,25.2825997 97.666761,26.0475803 96.4557547,26.9139235 C95.2565385,27.7750449 94.1276032,28.7619482 93.0746142,29.863729 C92.0260655,30.9656635 91.0854648,32.1554455 90.2681236,33.4140313 C89.4343988,34.6994935 88.7052533,36.0757213 88.0923239,37.5179884 L88.0979893,37.5201385 C87.4859786,38.9733098 87.0185109,40.4839199 86.7151852,42.0272424 C86.6444449,42.3807829 86.5841166,42.7400059 86.5289943,43.1016861 L64.7878409,43.1016861 C65.1510356,37.9776525 66.2660372,33.1127079 68.1385111,28.5146848 C70.45671,22.8154952 73.6268546,17.8508774 77.6334802,13.6406431 C79.6256919,11.5467372 81.8180283,9.65417443 84.1904307,7.9819985 C86.5515026,6.31596575 89.0901907,4.87369866 91.7902646,3.6590367 Z M309.992191,50.7141718 C309.615063,55.7967389 308.477859,60.6239029 306.589767,65.1862955 C304.233901,70.8744273 301.044158,75.8553246 297.037073,80.1099435 C295.036593,82.2344117 292.842113,84.1398752 290.466648,85.8198837 C288.099911,87.4920596 285.544839,88.9421593 282.813835,90.1566676 C277.342794,92.5968957 271.50718,93.8166258 265.310974,93.8166258 C262.217695,93.8166258 259.208476,93.5097736 256.303072,92.903748 L256.297866,92.903748 C253.395064,92.29204 250.580305,91.3765513 247.866298,90.1566676 C245.15275,88.9400091 242.612683,87.4920596 240.256818,85.8198837 C237.900952,84.1450969 235.712443,82.2399405 233.705992,80.1099435 C229.693241,75.852253 226.526618,70.8715093 224.211482,65.1775414 C222.358148,60.6186812 221.243452,55.7936673 220.868468,50.7141718 L242.618349,50.7141718 C242.670409,51.0402215 242.725225,51.3645819 242.788156,51.6844884 C243.094085,53.2417868 243.558949,54.763301 244.17096,56.2382806 C245.401412,59.1850145 247.06289,61.7619286 249.151107,63.9552005 C250.200115,65.0574421 251.326447,66.0438846 252.526582,66.9019345 C253.745244,67.7739601 255.051336,68.5384799 256.439806,69.1879685 C257.816945,69.8322354 259.249665,70.3181616 260.725411,70.6380682 C262.190287,70.9567461 263.723758,71.1183119 265.310974,71.1183119 C266.904774,71.1183119 268.443452,70.9567461 269.916902,70.6380682 C271.398313,70.3181616 272.846652,69.8270137 274.251658,69.1827468 C275.661411,68.5332582 276.992614,67.7682776 278.22521,66.8988629 C279.455356,66.0299088 280.602819,65.0465379 281.663157,63.9521289 C282.71829,62.8641702 283.672365,61.6682449 284.508693,60.38524 C285.348083,59.1002385 286.079985,57.7131066 286.692301,56.2382806 C287.307374,54.763301 287.772239,53.2417868 288.075259,51.6844884 C288.137731,51.3645819 288.195915,51.0402215 288.244913,50.7141718 L309.992191,50.7141718 Z M247.866298,3.6590367 C253.291251,1.22249453 259.112472,0 265.310974,0 C271.50718,0 277.342794,1.22249453 282.813835,3.6590367 C285.541777,4.87369866 288.097308,6.31857661 290.466648,7.9819985 C292.849615,9.65417443 295.042258,11.5436657 297.037073,13.6406431 C301.044158,17.8487272 304.23038,22.8076626 306.589767,28.5037807 C308.493936,33.1070255 309.630987,37.9755024 310,43.1016861 L288.26099,43.1016861 C288.20893,42.7400059 288.146305,42.3807829 288.075259,42.0272424 C287.772239,40.4753194 287.307374,38.9676274 286.697507,37.5232101 L286.697507,37.5201385 C286.08565,36.0731105 285.353442,34.6994935 284.511296,33.4166422 C283.677571,32.1497631 282.723955,30.959981 281.663157,29.8668006 C280.602819,28.7728523 279.455356,27.7857955 278.222607,26.9196059 C276.992614,26.0475803 275.664473,25.2825997 274.251658,24.6361827 C271.452517,23.3448845 268.468104,22.6984675 265.310974,22.6984675 C263.725902,22.6984675 262.19289,22.8598798 260.725411,23.1799399 C259.249665,23.5012286 257.816945,23.9866941 256.439806,24.630961 L256.437203,24.6361827 C255.045671,25.2825997 253.739579,26.0475803 252.528726,26.9139235 C251.328591,27.7750449 250.200115,28.7619482 249.151107,29.863729 C248.10118,30.9656635 247.158436,32.1554455 246.341094,33.4140313 C245.50737,34.6994935 244.777765,36.0757213 244.168816,37.5179884 L244.17096,37.5201385 C243.558949,38.9733098 243.094085,40.4839199 242.788156,42.0272424 C242.720019,42.3807829 242.657087,42.7400059 242.601965,43.1016861 L220.860659,43.1016861 C221.224006,37.9776525 222.34207,33.1127079 224.211482,28.5146848 C226.528762,22.8154952 229.699825,17.8508774 233.705992,13.6406431 C235.701572,11.5467372 237.89008,9.65417443 240.262483,7.9819985 C242.623555,6.31596575 245.163621,4.87369866 247.866298,3.6590367 Z M199.247052,91.6173643 C195.557839,93.2050714 191.417083,94 186.841626,94 C184.84972,94 182.93912,93.8989445 181.127128,93.7069699 C179.320188,93.506702 177.623187,93.2107538 176.054039,92.8211221 C172.930289,92.0478483 170.219803,91.1328203 167.93728,90.0854067 C166.78354,89.5567853 165.731469,89.0192563 164.804802,88.4789628 L164.804802,88.4768127 C163.85379,87.9312976 162.990513,87.3605954 162.221863,86.7792961 L162.21972,86.7792961 C161.495321,86.230863 160.839059,85.7019345 160.265175,85.2143189 C159.667098,84.7015162 159.177581,84.2490704 158.813774,83.8655818 C158.513511,83.5499755 158.25612,83.1995066 158.048646,82.8212397 C157.838569,82.4372905 157.690504,82.0341437 157.608586,81.6227037 C157.518706,81.1790119 157.52085,80.6880175 157.619304,80.1673823 L157.619304,80.1564781 C157.710103,79.7067967 157.881901,79.2108878 158.12842,78.6980852 L158.150163,78.6427965 L163.719659,68.3386727 L163.733592,68.3085711 C164.055598,67.7435513 164.457991,67.2937163 164.925,66.9702774 L164.925,66.9650557 C165.414669,66.6307127 165.966352,66.4444205 166.5704,66.4140117 C167.07875,66.3891318 167.573932,66.4356664 168.037878,66.5537692 L168.043544,66.5537692 C168.516677,66.6800118 168.973273,66.8824298 169.396949,67.1622521 L169.443344,67.1949645 C169.842215,67.4887625 170.282275,67.8040617 170.76582,68.1384047 L172.429901,69.2672156 C173.023231,69.6620691 173.635242,70.0438682 174.26976,70.4052413 C174.925103,70.7778257 175.608773,71.1427311 176.297649,71.4852139 L176.300558,71.4852139 C176.972897,71.8200176 177.708167,72.1408457 178.48432,72.4447799 C179.25986,72.7464105 180.055458,73.0207039 180.851516,73.2615168 L180.851516,73.2645884 C181.649258,73.497876 182.479921,73.6810966 183.322067,73.7991994 L183.327273,73.7991994 C184.166204,73.9145378 185.057194,73.9771983 185.994733,73.9771983 C187.079417,73.9771983 188.066412,73.8156325 188.946685,73.5000261 C189.812564,73.1879522 190.589023,72.7190733 191.256156,72.107826 L191.256156,72.1021436 C192.572967,70.8983858 193.234434,69.3638173 193.234434,67.5157926 C193.234434,66.3369147 193.002308,65.2437343 192.545712,64.2537594 C192.084216,63.2507303 191.370688,62.3155834 190.422278,61.4741202 C188.352895,59.6317779 185.343677,57.7101885 181.400595,55.7174917 L181.383599,55.7145737 C179.998192,54.9878345 178.544188,54.2038101 177.038125,53.3654184 C175.57325,52.5565141 174.141295,51.7367056 172.744557,50.9201222 C171.304028,50.0754338 169.926889,49.1521125 168.620337,48.1512335 C167.322207,47.1612587 166.100329,46.0929582 164.952408,44.9549325 C163.793921,43.8004738 162.747516,42.5640035 161.826055,41.2593439 C160.905053,39.9463909 160.087712,38.5406758 159.396692,37.0569421 L159.39363,37.0569421 C158.685308,35.5494037 158.152306,33.9128582 157.803045,32.1528347 C157.452713,30.4014116 157.277852,28.5315786 157.277852,26.5547005 C157.277852,24.9183087 157.434032,23.2765415 157.739961,21.6532039 C158.040837,20.0393883 158.502639,18.4268013 159.11465,16.8343332 C159.721455,15.2414044 160.49531,13.7229618 161.421977,12.2892952 L161.421977,12.2863772 C162.339917,10.8666863 163.416792,9.53146424 164.640814,8.28685423 C165.871266,7.03947979 167.245342,5.9151227 168.760134,4.92284417 C170.271403,3.93025847 171.927369,3.05915433 173.720681,2.31352482 C175.515831,1.56728099 177.48339,1.00302911 179.604986,0.626912394 C181.714333,0.257246022 183.969601,0.0704930889 186.358081,0.0704930889 C187.964896,0.0704930889 189.533891,0.167248309 191.056032,0.348318792 C192.570823,0.533689508 194.046569,0.813665327 195.4675,1.18978205 C196.844792,1.55115512 198.18411,1.95998432 199.463254,2.40352253 L199.468919,2.40352253 C200.734129,2.84798222 201.941614,3.33605856 203.084483,3.85976538 C204.229342,4.38562232 205.292284,4.9150116 206.268561,5.44655099 L206.268561,5.4517727 C207.301492,6.02001765 208.236427,6.57858707 209.050706,7.12179852 C209.87356,7.66992452 210.614036,8.17412672 211.259426,8.62949057 L211.256364,8.62949057 C211.901754,9.07917198 212.442565,9.47095383 212.880175,9.79961442 C213.940054,10.4469529 214.470912,11.4556645 214.470912,12.8179165 C214.470912,13.3394733 214.432174,13.8164918 214.358524,14.2326929 C214.27385,14.7155475 214.134513,15.1265268 213.953988,15.4473548 L213.921374,15.4965003 L207.758548,25.2695455 L207.744614,25.2913538 C207.471146,25.7457962 207.099224,26.1494037 206.635278,26.49204 C206.197362,26.8150181 205.689011,27.0784073 205.112677,27.2812861 L205.109615,27.2843577 C204.448147,27.5116557 203.746257,27.5581904 203.016346,27.415822 L203.01114,27.415822 C202.335279,27.2843577 201.633388,26.9882561 200.919861,26.5385746 L200.8874,26.5167663 L199.64378,25.6643989 L199.64378,25.666549 L198.057942,24.6200569 L198.057942,24.622207 C196.894249,23.8629089 195.609899,23.1146685 194.213161,22.3828612 C193.546028,22.0314708 192.819486,21.6940561 192.050836,21.379832 L192.050836,21.3762997 C191.318628,21.080198 190.540026,20.8008365 189.735699,20.5543411 C188.9597,20.3127602 188.18661,20.1347613 187.424085,20.0166585 C186.667072,19.89917 185.904087,19.8386596 185.147074,19.8386596 C183.982616,19.8386596 182.985668,19.9923929 182.17047,20.2940235 C181.416979,20.5761494 180.804662,20.9902003 180.354037,21.5326439 L180.354037,21.5381727 C179.858855,22.1303761 179.484636,22.7720322 179.243782,23.4520831 C179.000325,24.1289089 178.877985,24.8716204 178.877985,25.6643989 C178.877985,26.5081659 179.107508,27.3249028 179.557979,28.1067771 C180.052396,28.9560729 180.810174,29.7867856 181.817994,30.5846322 C182.897931,31.4348495 184.250878,32.3557135 185.857693,33.337395 C187.490078,34.3316701 189.359337,35.370944 191.444031,36.4452341 L191.444031,36.443084 C192.783503,37.123135 194.161101,37.8409666 195.563504,38.5806065 C196.823049,39.2497533 198.225452,40.0069013 199.761068,40.8483645 L199.76413,40.8452929 C202.701995,42.4543476 205.421209,44.3955952 207.908756,46.6624318 C209.16876,47.8085972 210.321888,49.0776264 211.352368,50.44295 C212.382696,51.8111917 213.301095,53.2970755 214.098837,54.8869327 C215.716523,58.1102637 216.528658,61.9869229 216.528658,66.4961768 C216.528658,68.2153482 216.358851,69.9342123 216.020308,71.6337255 C215.681766,73.3137339 215.17265,74.9837598 214.497708,76.6253733 C213.817713,78.2762017 212.986438,79.8356501 212.011233,81.2888214 C211.032506,82.7472143 209.898365,84.1258994 208.614015,85.4058328 C206.058025,87.9604777 202.931212,90.0382577 199.247052,91.6173643 Z M21.1161278,72.1953665 L30.2933781,72.1953665 C31.7173708,72.1953665 32.9609911,72.017214 34.0109178,71.6693559 L34.0109178,71.6664379 C35.0217995,71.3268732 35.8772669,70.8169885 36.5633864,70.1530634 C37.93241,68.8206058 38.6211325,66.8357416 38.6211325,64.2072248 C38.6211325,63.0779531 38.4514783,62.0443617 38.1098732,61.1148972 C37.7713304,60.1937261 37.2574681,59.3444303 36.5711954,58.5903539 C35.2210053,57.099402 33.2065916,56.3479365 30.5368349,56.3479365 L21.1161278,56.3479365 L21.1161278,72.1953665 Z M21.1161278,37.4679214 L30.0503806,37.4679214 C32.0537699,37.4679214 33.6693126,36.7143058 34.8962431,35.2093782 C36.1697214,33.649469 36.8069964,31.7387838 36.8069964,29.4797798 C36.8069964,27.2456557 36.1831957,25.4337222 34.9375849,24.0519655 L34.9375849,24.0498154 C33.7100419,22.6866418 32.078575,22.0015227 30.0503806,22.0015227 L21.1161278,22.0015227 L21.1161278,37.4679214 Z M46.9237756,45.8596706 L46.5118896,46.0951083 L47.1021575,46.3606476 L47.1043012,46.3606476 C48.0666446,46.8107898 49.036644,47.3066987 50.0041934,47.8465314 C50.9989978,48.400647 51.9590445,49.0419959 52.8632033,49.7607489 C53.7572564,50.4699801 54.6179299,51.262605 55.4243997,52.1346306 C56.2330132,53.0088063 56.976858,53.9821946 57.6461346,55.0483449 C58.304693,56.1015946 58.8952671,57.2446884 59.4010142,58.4615005 C59.9170202,59.7087214 60.3050199,61.0522367 60.5624104,62.4806816 C60.8193416,63.9085122 60.9475009,65.4217332 60.9475009,67.0060615 C60.9475009,68.9494592 60.7620757,70.8169885 60.3906126,72.5954416 C60.0215994,74.3808058 59.4608832,76.082469 58.7147416,77.6915237 C57.9739592,79.2932065 57.1024144,80.7760187 56.1131222,82.127213 C55.1183178,83.4837826 53.9919855,84.7179492 52.742853,85.8337058 C51.4993858,86.9377904 50.146899,87.9277653 48.6895266,88.7779826 C47.2362885,89.63035 45.6781648,90.3569356 44.0270988,90.949139 C42.3873636,91.5359671 40.6733663,91.9851877 38.896744,92.2812894 C37.1207341,92.5772375 35.2977172,92.7278992 33.4388708,92.7278992 L3.41666383,92.7278992 C2.96006745,92.7278992 2.51480177,92.6377479 2.101997,92.4623599 C1.68658923,92.2842074 1.31160448,92.0238898 0.992660733,91.6864752 C0.672338929,91.3495213 0.423522997,90.9598896 0.25386881,90.5211123 L0.251725165,90.5211123 C0.0846739758,90.0906284 0,89.63035 0,89.1393556 L0,4.93113747 C0,4.44874359 0.0875832082,3.98262915 0.25386881,3.54676992 C0.423522997,3.11659314 0.672338929,2.71912884 0.992660733,2.38478581 C1.31160448,2.04445316 1.68658923,1.78183185 2.101997,1.60644381 C2.51173942,1.43059504 2.94613376,1.34259386 3.41666383,1.34259386 L31.6245816,1.34259386 C33.4583167,1.34259386 35.2487196,1.50462046 36.9918092,1.82329837 C38.7414828,2.1410548 40.4332781,2.6255988 42.0618358,3.25681142 C43.67156,3.88679541 45.2133001,4.64609352 46.6590355,5.52318727 L46.6642415,5.52318727 C48.1021679,6.39521289 49.4442428,7.38426625 50.685107,8.48973303 C51.9342395,9.60241806 53.0575095,10.8201516 54.0359303,12.1248113 C55.0089919,13.4216384 55.8613971,14.8382577 56.5888583,16.3649936 C57.3184632,17.897412 57.8623365,19.4794367 58.222622,21.1076888 C58.5858167,22.7450021 58.7694046,24.4389864 58.7694046,26.1742836 C58.7694046,28.8573212 58.3371539,31.3417802 57.4764804,33.6029344 L57.4764804,33.6060059 C57.0558666,34.7048688 56.5694124,35.7657975 56.0168113,36.7748162 L56.0168113,36.777427 C55.4620666,37.7835278 54.8450031,38.7378721 54.1639365,39.6284809 C53.4920569,40.5109499 52.7567867,41.338591 51.9807872,42.1038787 C51.2043284,42.8601052 50.3761158,43.5596608 49.5045711,44.1844231 C48.6517066,44.7961311 47.7879708,45.3554684 46.9237756,45.8596706 Z" id="Fill-9"/>
            </g>
        </g>
    </g>
</svg>