<svg xmlns="http://www.w3.org/2000/svg" width="96" height="32" viewBox="0 0 96 32" fill="none">
<path d="M16.1216 25.6331C10.8372 25.6331 7.18146 21.2283 7.18146 15.9435V15.8556C7.18146 10.5708 10.9251 6.25388 16.1216 6.25388C19.2044 6.25388 21.6263 7.57567 24.0049 9.73412L28.3215 4.7575C25.459 1.93815 21.9802 0 16.1661 0C6.69754 0 0.0926056 7.1796 0.0926056 15.9435V16.0314C0.0926056 24.8843 6.82994 31.8869 15.9025 31.8869C21.8478 31.8869 25.3711 29.773 28.5418 26.3818L24.2263 22.0216C21.8044 24.2234 19.6461 25.6331 16.1228 25.6331H16.1216Z" fill="#ffffff"/>
<path d="M49.3384 25.6878C44.054 25.6878 40.3982 21.283 40.3982 15.9982V15.9103C40.3982 10.6255 44.1419 6.30863 49.3384 6.30863C52.4212 6.30863 54.8431 7.63042 57.2217 9.78887L61.5383 4.81224C58.6758 1.9929 55.197 0.0547485 49.3829 0.0547485C39.9143 0.0547485 33.3094 7.23435 33.3094 15.9982V16.0861C33.3094 24.939 40.0467 31.9417 49.1193 31.9417C55.0645 31.9417 58.5879 29.8278 61.7585 26.4366L57.4431 22.0763C55.0212 24.2781 52.8629 25.6878 49.3396 25.6878H49.3384Z" fill="#ffffff"/>
<path d="M82.8873 25.6331C77.6029 25.6331 73.9472 21.2283 73.9472 15.9435V15.8556C73.9472 10.5708 77.6908 6.25388 82.8873 6.25388C85.9701 6.25388 88.392 7.57567 90.7706 9.73412L95.0872 4.7575C92.2247 1.93815 88.7459 0 82.9319 0C73.4633 0 66.8583 7.1796 66.8583 15.9435V16.0314C66.8583 24.8843 73.5957 31.8869 82.6682 31.8869C88.6135 31.8869 92.1368 29.773 95.3075 26.3818L90.9921 22.0216C88.5701 24.2234 86.4119 25.6331 82.8885 25.6331H82.8873Z" fill="#ffffff"/>
</svg>