<svg xmlns="http://www.w3.org/2000/svg" viewBox="0 0 188 28">
  <!-- Copy of dechatlon.svg (corrected filename for asset loading). -->
  <path fill="#FFFFFF" d="M57.55 23.8H70.8v-4.26h-8.2v-3.57h7.27v-3.96h-7.27V8.44h8.2V4.2H57.55zm29.68-8.44c-1.92 3.05-3.78 4.32-6.17 4.32-3.11 0-4.92-2.18-4.92-5.97 0-3.6 1.67-5.4 4.23-5.4 1.7 0 3.1.76 3.53 3.28h5.04c-.55-4.8-3.61-7.78-8.51-7.78C74.74 3.8 71 7.83 71 13.99c0 6.2 3.74 10.2 9.89 10.2 4.02 0 6.75-1.68 8.55-3.95h6.88v3.56h5V4.2h-7.1zm9.09.95h-4.44l4.44-7.21zM46.8 4.2h-7.37v19.6h7.37c5.84 0 9.6-3.85 9.6-9.8s-3.76-9.8-9.6-9.8m-.07 15.34h-2.26V8.44h2.26c2.91 0 4.55 2.06 4.55 5.56s-1.64 5.54-4.55 5.54M159.18 3.81c-5.93 0-9.9 4.02-9.9 10.19s3.97 10.2 9.9 10.2 9.9-4.03 9.9-10.2-3.97-10.2-9.9-10.2m0 15.87c-2.92 0-4.75-1.94-4.75-5.68s1.83-5.68 4.75-5.68 4.74 1.94 4.74 5.68-1.82 5.68-4.74 5.68m-56.6-11.24h4.95V23.8h5.04V8.44h4.94V4.2H102.6zm79.36-4.24V15l-6.5-10.8h-5.22v19.6h4.88V12.56l6.76 11.24h4.95V4.2zm-39.8 0h-5.04v19.6h12.64v-4.24h-7.6zm-11.54 7.48h-6.79V4.2h-5.04v19.6h5.04v-7.9h6.8v7.9h5.03V4.2h-5.04zM25.21 0C14.27 0 .65 11.32.65 20.7c0 4.86 3.73 7.3 8.64 7.3 3.61 0 7.98-1.32 12.2-3.86V5.4c-1.13 1.92-6.4 9.68-10.65 13.8-2.16 2.12-3.88 3.03-5.35 3.03-1.66 0-2.45-1.12-2.45-2.8C3.04 11.86 15.81 2 24.27 2 27.75 2 30 3.54 30 6.55c0 2.75-1.87 6.2-5.06 9.4v5.8c5.57-4.4 8.9-10 8.9-14.53C33.84 2.46 30.13 0 25.2 0"/>
</svg>
