<svg xmlns="http://www.w3.org/2000/svg" id="icon-dietpharm-logo-vodoravni-pantone-copy-2" viewBox="0 0 213 32">
<path fill="#FFFFFF" d="M197.917 25.568h-5.329v-18.094h7.161l3.189 11.278 3.195-11.278h7.161v18.094h-5.323v-5.531l0.074-2.813 0.301-3.268h-0.054l-3.291 11.613h-4.115l-3.293-11.613h-0.051l0.249 2.668 0.128 2.81v6.135zM178.494 19.254v6.313h-5.926v-18.094h8.538c2.965 0 5.052 0.406 6.232 1.232 1.181 0.83 1.788 2.135 1.788 3.917 0 1.106-0.257 2.037-0.756 2.813-0.523 0.779-1.278 1.336-2.286 1.61 0.779 0.276 1.378 0.553 1.782 0.833 0.377 0.272 0.701 0.698 0.929 1.299 0.224 0.608 0.35 1.483 0.35 2.671 0 0.622 0 1.202 0.027 1.729 0 0.553 0.050 0.934 0.153 1.129 0.075 0.203 0.226 0.301 0.449 0.301v0.56h-6.002c-0.205-0.534-0.303-1.589-0.303-3.171 0-1.23-0.203-2.086-0.58-2.512-0.376-0.429-1.251-0.63-2.584-0.63h-1.811zM178.494 11.696v3.588h2.341c1.883 0 2.808-0.575 2.808-1.707 0-0.601-0.223-1.080-0.649-1.405-0.429-0.325-1.006-0.476-1.739-0.476h-2.762zM157.064 25.568h-5.801l6.476-18.094h6.036l6.482 18.094h-5.906l-0.707-2.393h-5.906l-0.675 2.393zM162.613 19.409l-1.902-6.485-1.84 6.485h3.743zM137.215 25.568h-5.932v-18.094h5.932v6.105h5.604v-6.105h5.927v18.094h-5.927v-7.012h-5.604v7.012zM118.271 25.568h-5.926v-18.094h8.715c2.537 0 4.446 0.526 5.753 1.61 1.307 1.077 1.966 2.587 1.966 4.495 0 2.009-0.633 3.569-1.866 4.676-1.252 1.13-3.139 1.678-5.65 1.678h-2.993v5.636zM118.271 15.717h2.461c1.587 0 2.391-0.707 2.391-2.113 0-1.281-1.056-1.908-3.165-1.908h-1.687v4.021zM93.047 12.221v-4.748h16.585v4.748h-5.33v13.346h-5.927v-13.346h-5.329zM90.635 25.568h-15.095v-18.094h14.744v4.223h-8.818v2.587h7.463v4.219h-7.463v2.84h9.17v4.226zM65.259 25.566h5.93v-18.089h-5.93v18.089zM44.936 25.568v-18.094h7.94c2.989 0 5.327 0.706 6.982 2.137 1.632 1.43 2.463 3.616 2.463 6.529 0 6.283-3.194 9.428-9.597 9.428h-7.788zM50.866 11.696v9.646h1.255c2.84 0 4.27-1.634 4.27-4.87 0-1.257-0.151-2.238-0.426-2.918-0.276-0.677-0.73-1.155-1.356-1.432-0.631-0.275-1.507-0.426-2.611-0.426h-1.132zM21.552 10.973l-1.793 6.069h1.76l0.909-3.084 0.909 3.084h1.761l-1.788-6.069h-1.759zM19.488 19.972h5.883v-1.836h-5.883v1.836zM8.358 10.973l-1.79 6.069h1.761l0.904-3.084 0.909 3.084h1.762l-1.79-6.069h-1.756zM6.297 19.972h5.882v-1.836h-5.882v1.836zM10.618 22.663v1.831h10.428v-1.831h-4.296v-12.987h7.344v-1.838h-16.523v1.838h7.342v12.987h-4.295zM15.833 0.347c-8.739 0-15.824 7.084-15.824 15.82 0 8.74 7.085 15.824 15.824 15.824 8.736 0 15.822-7.084 15.822-15.824 0-8.736-7.086-15.82-15.822-15.82zM15.833 30.016c-7.653 0-13.849-6.204-13.849-13.849 0-7.649 6.197-13.851 13.849-13.851 7.647 0 13.851 6.202 13.851 13.851 0 7.646-6.204 13.849-13.851 13.849z"/>
</svg>