<svg xmlns="http://www.w3.org/2000/svg" width="320" height="206" viewBox="0 0 320 146" fill='none'>
  <g id="Hintergrund">
    <rect class="cls-2" y="0" width="320" height="106"/>
  </g>
  <g id="Logos">
    <g>
      <path id="Kontur" class="cls-1" fill='#fff' d="M60.1,107.69c7.79,9.25,13.86,18.08,19.27,31.26,12.42-6.55,29.42-15.3,59.34-15.3,6.1,0,17,1.88,29.63,4.07,17.82,3.08,39.99,6.91,57.35,6.91,8.54,0,15.68-.69,22.52-4.01,.91-5.54,3.74-25.14,1.42-41.93l-7.99,1.37-1.22,.21-.52-1.12c-.74-1.58-3.21-5.59-4.33-7.4-2.22,.35-7.22,1.15-8.2,1.3l-2.2,.33,.36-2.2,4.17-25.54c1.6-7.84,.62-14.39-2.74-18.51-2.63-3.22-6.65-4.85-11.94-4.85s-9.46,2.35-12.25,4.12l-1.19,.75s-2.85-4.87-11.09-4.87c-8.71,0-13,3.63-13,3.63l.38-2.94c-.69-.02-3.26-.03-4.45-.03-4.99,0-11.83,.2-14.17,.37l-2.11,.15,.39-2.07,3.82-20.09c-3.93-.25-7.97-.38-12.04-.38-7.95,0-15.6,.49-22.77,1.46l-4.13,20.13-.2,.96-.95,.27c-16.18,4.61-25.84,19.33-25.84,39.39,0,3.97,.49,7.31,1.49,10.21l.66,1.9-2,.24c-5.24,.63-22.61,3.11-35.15,9.18,2.41,2.33,5.35,5.22,7.64,7.91l1.53,1.79-2.23,.79-7.26,2.57h0Z"/>
      <g id="Logo">
        <path id="Welle_rot" class="cls-4" fill='#e30613' d="M237.52,104.19c-7.56,5.12-22.73,11.71-46.14,5.82-2.23-.58-4.37-1.16-6.43-1.78-14.78-6.39-29.78-13.3-35.86-17.81,16.94,2.65,42.3,5.25,83.17-1.33,0,0,3.85,6.07,5.26,15.09m-158.88,4.1l-7.13,2.52s8.14,9.69,9.57,12.88l2,5.5s25.81-14.2,63.35-12.06c8.52,.48,16,2.95,16,2.95,0,0-15.29-9.98-18.37-10.95-14.71-3.67-28.73-4.75-37.03-5.05-14.21,3.78-26.35,10.27-26.35,10.27,0,0-.98-2.96-2.04-6.06"/>
        <path id="Welle_gelb" class="cls-3" fill='#fec700' d="M243.26,99.37s-1.9,2.22-5.75,4.82c-7.56,5.12-22.73,11.71-46.14,5.82-2.24-.58-4.37-1.16-6.43-1.77-21.35-6.27-34.04-14.38-62.68-17.89-19.4,.47-39.08,2.75-49.84,7.02,0,0,2.95,3.01,3.81,4.26,.44,.93,1.46,3.85,2.41,6.67,1.06,3.1,2.04,6.06,2.04,6.06,0,0,12.14-6.5,26.35-10.27,6.67-1.79,13.82-2.97,20.36-2.59,21.85,1.38,39.48,12.67,59.02,21.86,13.57,3.79,46.64,6.67,55.97,2.46,0,0,1.89-8.96,.89-26.44"/>
        <path id="dm" class="cls-5" fill='#1f3685' d="M129.64,49.71c-8.8,0-13.99,12.4-13.99,21.11,0,3.58,.9,5.19,2.8,5.19,5.01,0,13.49-14.41,15.16-23.4l.44-2.32c-1.22-.28-2.61-.59-4.41-.59m10.48,37.2h-12.89c.58-3.39,1.68-7.16,3.48-12.18h-.2c-4.06,6.8-9.82,13.33-17.13,13.33-7.48,0-11.23-4.83-11.24-14.95,0-17.81,9.25-34.11,29.98-34.11,1.12,0,2.26,.1,4.05,.38l2.08-10.89v-.09c-2.09-.38-5.2-.76-7.95-.95l1.81-8.83c6.56-.64,13.28-1.13,21.12-.84l-13.14,69.12Zm77.64,0h-12.82l4.65-28.9c.96-4.74,.28-6.53-1.88-6.53-4.36,0-12.23,11.52-14.03,22.8l-2.04,12.62h-12.8l4.79-28.9c.94-4.74,.29-6.53-1.89-6.53-4.36,0-12.01,11.37-14.11,22.53l-2.46,12.91h-12.79l6.92-36.25v-.27c-2.08-.38-5.19-.77-7.96-.95l1.81-8.82c6.81-.76,13.26-1.14,20.35-.85-.75,3.69-1.99,7.94-3.6,12.11h.2c4.26-7.28,8.81-12.88,17.14-12.88,5.58,0,9.21,2.94,9.21,9.28,0,1.14-.29,2.36-.75,4.26l.1,.09c4.35-7.85,9.63-13.63,17.94-13.63,9.19,0,11.05,6.63,9.34,15.43l-5.3,32.49Z"/>
      </g>
    </g>
  </g>
</svg>