<svg xmlns="http://www.w3.org/2000/svg" width="400" height="60.2" viewBox="0 0 400 60.2"><path d="M37.7 38.3H19.5c-4 0-6.1 1.6-6.1 4.5 0 3.8 4.5 8 9.1 8 7.5 0 8.7-6.1 13.3-6.1 2.8 0 5.9 2.4 5.9 4.5 0 2.8-6.3 10.6-19.4 10.6C9.6 59.9 0 52.1 0 37.2c0-17.8 10.8-24.6 22.1-24.6 19 0 21.5 17.1 21.5 20.6 0 4-1.7 5.1-5.9 5.1zm-16.4-7c5.8 0 8.7-1.2 8.7-3.7 0-2.8-3.7-5.9-7.8-5.9-3.5 0-8 2.4-8 5.6-.1 2.6 2.4 4 7.1 4zm92.8 23.4c0 3-1.7 4.5-5.2 4.5s-5.2-1.6-5.2-4.5V36.5c0-8.4-3-13.1-8.4-13.1-5.1 0-8.7 3.8-8.7 12.6v18.7c0 3-1.7 4.5-5.2 4.5s-5.2-1.6-5.2-4.5V35c0-7.5-2.8-11.7-8.4-11.7-5.8 0-8.7 4.5-8.7 12.2v19.2c0 3-1.7 4.5-5.2 4.5s-5.2-1.7-5.2-5.1V20.7c0-3 1.9-4.7 5.6-4.7 2.6 0 6.1 1.2 8.2 1.2 3.8 0 6.5-2.3 11.5-2.3 6.6 0 8.7 4 12.9 4 3.7 0 6.6-4 14.3-4 9.1 0 13.1 4.4 13.1 12.7v27.1zm71.5 0c0 3-1.7 4.5-5.2 4.5s-5.2-1.6-5.2-4.5V36.5c0-8.4-3-13.1-8.4-13.1-5.1 0-8.7 3.8-8.7 12.6v18.7c0 3-1.7 4.5-5.2 4.5s-5.2-1.6-5.2-4.5V35c0-7.5-2.8-11.7-8.4-11.7-5.8 0-8.7 4.5-8.7 12.2v19.2c0 3-1.7 4.5-5.2 4.5s-5.2-1.7-5.2-5.1V20.7c0-3 1.9-4.7 5.6-4.7 2.6 0 6.1 1.2 8.2 1.2 3.8 0 6.5-2.3 11.5-2.3 6.6 0 8.7 4 12.9 4 3.7 0 6.6-4 14.3-4 9.1 0 13.1 4.4 13.1 12.7v27.1zM228 38.3h-18.1c-4 0-6.1 1.6-6.1 4.5 0 3.8 4.5 8 9.1 8 7.5 0 8.7-6.1 13.3-6.1 2.8 0 5.9 2.4 5.9 4.5 0 2.8-6.3 10.6-19.4 10.6-12.7 0-22.3-7.8-22.3-22.7 0-17.8 10.8-24.6 22.1-24.6 19 0 21.4 17.1 21.4 20.6.1 4.1-1.7 5.2-5.9 5.2zm-16.4-7c5.8 0 8.7-1.2 8.7-3.7 0-2.8-3.7-5.9-7.8-5.9-3.5 0-8 2.4-8 5.6 0 2.6 2.4 4 7.1 4zm66.9-12.4c0 5.4-1.2 7-3.8 9.6L264 39.2c-3.7 3.7-5.4 5.9-5.4 7 0 2.4 1.6 3.7 4.9 3.7h9.6c3.5 0 5.2 2.1 5.2 4.9 0 3.1-2.1 4.5-6.3 4.5h-28.6c-3.1 0-5.4-1.6-5.4-4.9V52c0-2.3 1.2-4.5 3.8-7.1l14.3-14.5c1.2-1.2 1.9-2.1 1.9-3.8 0-2.1-2.3-3-5.6-3h-6.5c-2.4 0-5.4-1.2-5.4-4.7 0-2.8 1.7-4.7 5.1-4.7H273c3.3-.2 5.5 1.4 5.5 4.7zm42.7 19.4H303c-4 0-6.1 1.6-6.1 4.5 0 3.8 4.5 8 9.1 8 7.5 0 8.7-6.1 13.3-6.1 2.8 0 5.9 2.4 5.9 4.5 0 2.8-6.3 10.6-19.4 10.6-12.7 0-22.3-7.8-22.3-22.7 0-17.8 10.8-24.6 22.1-24.6 19 0 21.5 17.1 21.5 20.6 0 4.1-1.7 5.2-5.9 5.2zm-16.4-7c5.8 0 8.7-1.2 8.7-3.7 0-2.8-3.7-5.9-7.8-5.9-3.5 0-8 2.4-8 5.6-.1 2.6 2.4 4 7.1 4zm23.8-13.9c0-3 4.5-4.7 5.2-6.5.9-1.9.9-2.8.9-4.7 0-1.9.5-6.3 6.8-6.3 6.1 0 6.6 4 6.6 6.5 0 1.7.3 3.5 1.2 4.9 1.4 2.1 6.5 2.1 6.5 6.3 0 4.2-5.4 3.7-7 7.2-.9 1.9-.7 3-.7 5.9v10.1c0 3 .3 3.8 1 5.2 1.4 3 7.2 3 7.2 8.2 0 3.7-2.3 5.6-7 5.6-9.6 0-14.5-4.4-14.5-12.9V31.2c0-3.5-.3-6.1-1.7-7.8-1.4-1.8-4.5-3-4.5-6zm66.3 41.5c-3.7 0-5.4-1.6-7.7-1.6-4 0-6.8 2.8-12.7 2.8-9.8 0-15-5.6-15-13.3 0-7.8 6.3-13.9 20.4-15.7 5.8-.8 7.5-3 7.5-4.9 0-3.5-2.8-5.8-6.1-5.8-6.6 0-6.1 5.8-13.4 5.8-2.4 0-5.1-.5-5.1-3.5 0-3.1 3.7-9.8 17.6-9.8 12.2 0 19.5 2.8 19.5 15.3v26.2c.1 3.7-2 4.5-5 4.5zm-16.3-7.6c4.5 0 9.1-4.2 9.1-8.7 0-2.3-1.2-4.2-4.4-4.2-3.7 0-11 2.4-11 7.3 0 3 2.4 5.6 6.3 5.6z" fill="#FFFFFF"/></svg>