<svg xmlns="http://www.w3.org/2000/svg" xmlns:xlink="http://www.w3.org/1999/xlink" version="1.1" id="Layer_1" x="0px" y="0px" viewBox="0 0 463.8 185.5" style="enable-background:new 0 0 463.8 185.5;" xml:space="preserve" fill="#FFFFFF">
  <!-- NOTE: flutter_svg often ignores <style> and class-based fills.
       We set a default white fill on the root SVG and remove the baked-in
       white background rectangle so it can sit on your card background. -->

  <rect width="463.8" height="185.5" fill="none"/>

  <g>
    <defs>
      <rect id="SVGID_1_" width="463.8" height="185.5"/>
    </defs>
    <clipPath id="SVGID_00000030449250366688896570000002636225357994206638_">
      <use xlink:href="#SVGID_1_" style="overflow:visible;"/>
    </clipPath>
    <path style="clip-path:url(#SVGID_00000030449250366688896570000002636225357994206638_);" d="M424.1,96.1v-8.2h-24.8 l16.5-18.1c4.8-5.3,8.3-10.2,8.3-18c0-11.3-8-20.6-18.8-20.6c-2.3,0-4.6,0.5-6.8,1.5c-8.4,3.6-11.9,11.9-11.8,21.3v0.3h8.3v-1.6 c0-6.9,3.6-13.3,10.6-13.3c6.1,0,10.1,5.9,10.1,12.1c0,4.8-2.3,8.3-5.4,11.6L387,88.6v7.5H424.1z M373.3,53.8 c0,7.1-5.4,13.6-12.3,13.6c-7,0-12-7-12-14.2c0-7.2,5.1-13.8,12.1-13.8C368.5,39.4,373.3,46.3,373.3,53.8 M381.6,52.8 c0-2.9-0.8-6-1.9-8.7c-3.5-8.2-10.3-12.9-18.7-12.9c-11.8,0-20.3,10.5-20.3,22.8c0,11.7,8,21.5,19.1,21.5c1.1,0,2.3-0.2,3.5-0.3 l-12.6,20.9h9.9l16.5-28C379.8,63.6,381.6,58.3,381.6,52.8 M302.1,72.4c0,9.2-6.8,16.8-15.5,16.8c-8.5,0-15.1-7.8-15.1-16.8 c0-9.3,6.4-17.1,15.2-17.1C295.8,55.3,302.1,62.8,302.1,72.4 M310.3,96.1V48.5h-8.3v6.7h-0.2c-3.3-5.4-9.1-8-15.1-8 c-13.5,0-23.5,10.8-23.5,25.3c0,14.4,10.3,24.9,23.5,24.9c6.1,0,11.9-2.8,15.1-8.6h0.2v7.4H310.3z M248.7,72.4
      c0,9.1-6.2,16.8-15,16.8c-8.8,0-15.1-7.7-15.1-17c0-8.9,6.2-16.9,14.8-16.9C242.1,55.3,248.7,63.3,248.7,72.4 M257.1,72.9
      c0-14.4-9.3-25.7-23-25.7c-6.3,0-12.1,2.9-15.8,8.6h-0.2v-7.3h-7.6V112h8.3V89.2h0.2c3.2,5.7,9.7,8.1,15.6,8.1
      C247.4,97.3,257.1,86.4,257.1,72.9 M193.7,72.1c0,9.3-6.9,17-15.6,17c-8.7,0-15.6-7.7-15.6-17c0-9.3,7-16.9,15.6-16.9
      S193.7,62.8,193.7,72.1 M202,72.1c0-14.1-11-25-23.9-25c-12.8,0-23.9,10.8-23.9,24.8c0,14.1,10.9,25.4,23.9,25.4
      C191.6,97.3,202,85.7,202,72.1 M150.7,56.4v-9.2c-4.5,0.2-8.6,1.5-11.3,5.6h-0.2v-4.3h-7.7v47.7h8.3V70c0-4.3,1-9.8,4.9-12
      C146.3,57.1,148.9,56.4,150.7,56.4 M120.7,96.1V48.5h-8.3V74c0,8.3-3.1,15.2-11.6,15.2c-8.7,0-11.1-6.5-11.1-14.9V48.5h-8.3
      v25.8c0,6.5,1,13.8,5.8,18.3c3.5,3.3,8,4.7,12.7,4.7c4.7,0,10.5-1.7,13-6.4h0.2v5.2H120.7z M71.6,96.1v-8.5H48.3V68.2h23.3
      v-8.5H48.3V41h23.3v-8.5H39.7v63.7H71.6z"/>
  </g>

  <rect x="39.7" y="129.8" width="201.9" height="17.5"/>

  <g>
    <defs>
      <rect id="SVGID_00000147913710732147222120000003428190104528903845_" width="463.8" height="185.5"/>
    </defs>
    <clipPath id="SVGID_00000178904462431397617670000013002929923417378987_">
      <use xlink:href="#SVGID_00000147913710732147222120000003428190104528903845_" style="overflow:visible;"/>
    </clipPath>
    <path style="clip-path:url(#SVGID_00000178904462431397617670000013002929923417378987_);" d="M267.1,139.6 c0,6.9-1.5,10.5-5.4,10.5h-2.4v-22.4h2.3c2,0,3.1,0.7,4.1,2.7C266.9,132.5,267.1,135.7,267.1,139.6 M271.2,139.1 c0-4.8-0.8-8.4-2.4-11c-2.1-3.3-4.5-4.3-8.7-4.3h-4.6v30.6h5.5c4.1,0,6-1,7.9-4.3C270.4,147.3,271.2,143.7,271.2,139.1"/>
  </g>

  <polygon points="290.6,154.3 290.6,149.9 281.7,149.9 281.7,140.4 288.4,140.4 288.4,136.2 281.7,136.2 281.7,127.8 289.8,127.8 290.2,123.7 278,123.7 278,154.3 "/>

  <g>
    <defs>
      <rect id="SVGID_00000078724600883349235140000018069039313949273487_" width="463.8" height="185.5"/>
    </defs>
    <clipPath id="SVGID_00000064341352440761233170000007363503311002367662_">
      <use xlink:href="#SVGID_00000078724600883349235140000018069039313949273487_" style="overflow:visible;"/>
    </clipPath>
    <path style="clip-path:url(#SVGID_00000064341352440761233170000007363503311002367662_);" d="M419.1,132.5 c0,1.6-0.4,2.9-1,3.7c-0.7,0.9-1.7,1.3-3.6,1.3h-1.9v-9.7h2C417.8,127.8,419.1,129.4,419.1,132.5 M424.1,154.3l-3.2-7.3 c-1.1-2.6-2.6-5.5-3.4-6.1c3.4,0,5.5-4,5.5-8.4c0-4.8-2.2-8.7-7.2-8.7H409v30.6h3.6v-13.2c0.7,0,1,0.3,1.4,0.9 c1.2,1.7,2.2,3.8,3.8,7.5l1.9,4.7H424.1z"/>
    <path style="clip-path:url(#SVGID_00000064341352440761233170000007363503311002367662_);" d="M397.3,142h-5.4 c0.5-2,2.8-13.3,2.8-13.3h0C394.8,129.9,397,141.3,397.3,142 M403.9,154.3l-7-30.6h-4.2l-7.2,30.6h3.8l1.8-8h7.1l1.8,8H403.9z"/>
    <path style="clip-path:url(#SVGID_00000064341352440761233170000007363503311002367662_);" d="M376.6,132 c0,0.8-0.2,2.1-0.9,3.1c-0.7,1-1.4,1.1-2.7,1.1H370v-8.3h2.8c1,0,1.6,0.1,2.1,0.4C375.9,128.7,376.6,130.2,376.6,132 M377.3,145.1 c0,2.7-1.2,4.9-4,4.9H370v-9.7h3.2c1,0,1.5,0,2,0.3C376.5,141.1,377.3,143,377.3,145.1 M381.4,145.6c0-3.1-1-6.5-4.7-7.7 c2.4-1,3.8-3.4,3.8-6.7c0-2.5-0.8-4.5-2.5-6c-1.4-1.2-2.5-1.5-5.8-1.5h-5.8v30.6h6.4C378.3,154.3,381.4,151.6,381.4,145.6"/>
    <path style="clip-path:url(#SVGID_00000064341352440761233170000007363503311002367662_);" d="M352.2,154.3l-1.9-30.6 h-4.9l-3.5,17.4c-0.4,2.1-0.7,4.2-0.8,5.1c-0.1-0.9-0.3-2.6-0.8-5.2l-3.4-17.3H332l-2,30.6h3.6l0.9-18.5c0.1-1.9,0.2-4.8,0.2-5.8 c0.1,1,0.5,3.8,1,5.8l3.7,18.5h3.1l4-19.3c0.4-2,0.7-3.9,0.9-4.9c0,0.9,0.1,3.3,0.2,5.3l1,19H352.2z"/>
  </g>

  <rect x="319.2" y="123.7" width="3.8" height="30.6"/>

  <g>
    <defs>
      <rect id="SVGID_00000151526817422760959820000000941180459348245120_" width="463.8" height="185.5"/>
    </defs>
    <clipPath id="SVGID_00000163042376420702638430000012647207020835436167_">
      <use xlink:href="#SVGID_00000151526817422760959820000000941180459348245120_" style="overflow:visible;"/>
    </clipPath>
    <path style="clip-path:url(#SVGID_00000163042376420702638430000012647207020835436167_);" d="M311.5,154.3v-30.6H308 l0,14c0,2.8,0.2,7.1,0.3,8.7l-0.1,0.1c-0.3-1.4-1.3-5-2.3-7.9l-5.3-14.9h-4.1v30.6h3.6l-0.1-14.8c0-2.7-0.1-5.9-0.2-8.5l0.1-0.1 c0.4,1.8,1.6,5.7,2.8,9l4.9,14.4H311.5z"/>
  </g>
</svg>