<svg xmlns="http://www.w3.org/2000/svg" width="368" height="208" viewBox="0 0 300 208" fill="none"><g clip-path="url(#clip0_632_380)"><path d="M30.0707 99.6442H25V93.9146H30.0707V91.4896C30.0707 85.9774 33.4916 82 40.4165 82C41.8895 82 43.4769 82.1997 44.9084 82.2628V88.6371C43.879 88.5145 42.8739 88.4654 41.8029 88.4654C39.5223 88.4654 38.5622 89.4221 38.5622 92.0293V93.9146H44.4162V99.6442H38.5622V125.169H30.0707V99.6442Z" fill="#FFFFFF"/><path d="M67.3851 109.863C65.9329 111.138 62.9626 111.191 60.325 111.678C57.7117 112.221 55.2959 113.129 55.2959 116.272C55.2959 119.482 57.7533 120.263 60.5017 120.263C67.139 120.263 67.3851 114.944 67.3851 113.059V109.863ZM47.7679 103.523C48.2358 95.5021 55.341 93.0631 62.2902 93.0631C68.4561 93.0631 75.8524 94.4473 75.8524 101.946V118.21C75.8524 121.034 76.1643 123.894 76.9234 125.184H68.3244C68.0332 124.185 67.7872 123.169 67.7213 122.135C65.0629 124.977 61.084 126 57.3304 126C51.4764 126 46.8286 123.042 46.8286 116.637C46.8286 109.565 52.0553 107.869 57.3304 107.14C62.5363 106.362 67.3851 106.541 67.3851 103.033C67.3851 99.3533 64.8619 98.8101 61.8673 98.8101C58.6509 98.8101 56.5506 100.138 56.2594 103.527H47.7679V103.523Z" fill="#FFFFFF"/><path d="M82.4236 93.9146H90.5131V99.7107H90.624C92.1871 95.7789 96.3671 93.0631 100.478 93.0631C101.102 93.0631 101.819 93.1752 102.356 93.3644V101.337C101.573 101.176 100.322 101.039 99.2958 101.039C93.0848 101.039 90.9394 105.577 90.9394 111.065V125.169H82.4271V93.9146H82.4236Z" fill="#FFFFFF"/><path d="M105.93 93.9146H113.95V98.1303H114.061C116.251 94.9379 119.513 93.0631 123.492 93.0631C127.401 93.0631 130.864 94.5069 132.562 98.267C134.326 95.5581 137.546 93.0631 141.858 93.0631C148.45 93.0631 153.164 96.1504 153.164 104.249V125.173H144.672V107.455C144.672 103.275 144.294 99.8159 139.466 99.8159C134.687 99.8159 133.768 103.835 133.768 107.739V125.173H125.301V107.623C125.301 104.007 125.547 99.8124 120.161 99.8124C118.487 99.8124 114.421 100.923 114.421 107.017V125.169H105.93V93.9146Z" fill="#FFFFFF"/><path d="M179.13 109.863C177.678 111.138 174.663 111.191 172.046 111.678C169.433 112.221 167.041 113.129 167.041 116.272C167.041 119.482 169.478 120.263 172.226 120.263C178.884 120.263 179.13 114.944 179.13 113.059V109.863ZM159.51 103.523C160.002 95.5021 167.083 93.0631 174.011 93.0631C180.201 93.0631 187.573 94.4473 187.573 101.946V118.21C187.573 121.034 187.885 123.894 188.644 125.184H180.087C179.775 124.185 179.529 123.169 179.463 122.135C176.78 124.977 172.826 126 169.051 126C163.197 126 158.529 123.042 158.529 116.637C158.529 109.565 163.804 107.869 169.051 107.14C174.278 106.362 179.127 106.541 179.127 103.033C179.127 99.3533 176.604 98.8101 173.63 98.8101C170.368 98.8101 168.268 100.138 167.977 103.527H159.51V103.523Z" fill="#FFFFFF"/><path d="M215.214 104.918C214.677 101.403 212.466 99.546 208.934 99.546C203.503 99.546 201.694 105.1 201.694 109.68C201.694 114.169 203.437 119.542 208.754 119.542C212.688 119.542 214.965 116.99 215.502 113.185H223.702C222.607 121.479 216.954 126.004 208.823 126.004C199.507 126.004 193.206 119.366 193.206 110.003C193.206 100.264 198.949 93.0666 209.003 93.0666C216.289 93.0666 222.992 96.9423 223.526 104.922H215.214V104.918Z" fill="#FFFFFF"/><path d="M228.756 93.9111H237.223V125.169H228.756V93.9111ZM237.223 89.0752H228.756V82H237.223V89.0752Z" fill="#FFFFFF"/><path d="M263.141 109.863C261.713 111.138 258.739 111.191 256.126 111.678C253.489 112.221 251.097 113.129 251.097 116.272C251.097 119.482 253.534 120.263 256.282 120.263C262.919 120.263 263.141 114.944 263.141 113.059V109.863ZM243.548 103.523C244.04 95.5021 251.121 93.0631 258.095 93.0631C264.24 93.0631 271.636 94.4473 271.636 101.946V118.21C271.636 121.034 271.948 123.894 272.731 125.184H264.129C263.817 124.185 263.592 123.169 263.526 122.135C260.843 124.977 256.889 126 253.114 126C247.26 126 242.588 123.042 242.588 116.637C242.588 109.565 247.863 107.869 253.114 107.14C258.32 106.362 263.145 106.541 263.145 103.033C263.145 99.3533 260.642 98.8101 257.672 98.8101C254.431 98.8101 252.355 100.138 252.04 103.527H243.548V103.523Z" fill="#FFFFFF"/><path d="M275.185 85.4167H275.879C276.326 85.4167 276.683 85.3396 276.683 84.849C276.683 84.4145 276.215 84.3374 275.854 84.3374H275.185V85.4167ZM274.381 83.7101H275.899C276.884 83.7101 277.463 84.029 277.463 84.9191C277.463 85.655 277.015 85.9529 276.412 86.0054L277.483 87.7821H276.634L275.674 86.0405H275.182V87.7821H274.378V83.7101H274.381ZM275.789 88.5951C277.286 88.5951 278.513 87.4106 278.513 85.7461C278.513 84.0956 277.286 82.8971 275.789 82.8971C274.312 82.8971 273.106 84.0956 273.106 85.7461C273.109 87.4106 274.315 88.5951 275.789 88.5951ZM275.789 82.1262C277.754 82.1262 279.497 83.5349 279.497 85.7426C279.497 87.9503 277.757 89.359 275.789 89.359C273.865 89.359 272.125 87.9503 272.125 85.7426C272.125 83.5349 273.868 82.1262 275.789 82.1262Z" fill="#FFFFFF"/></g><defs><clipPath id="clip0_632_380"><rect width="318" height="44" fill="white" transform="translate(25 82)"/></clipPath></defs></svg>