<svg xmlns="http://www.w3.org/2000/svg" xmlns:xlink="http://www.w3.org/1999/xlink" width="225px" height="65px" viewBox="0 0 225 65" version="1.1">
    <title>Group-10</title>
    <g id="Page-1" stroke="none" stroke-width="1" fill="none" fill-rule="evenodd">
        <g id="Group" transform="translate(0.7118, 0.9515)" fill="#FFFFFF" fill-rule="nonzero">
            <g id="Group-10">
                <path d="M203.1548,61.4061 L202.2417,61.4061 L201.6748,63.1472 L200.118,63.1472 L200.6858,61.4061 L197.4829,61.4061 L197.9359,60.0177 L202.5031,55.1112 L204.2861,55.1112 L202.6445,60.1631 L203.5581,60.1631 L203.1548,61.4061 Z M201.0875,60.1631 L202.2185,56.6805 L199.0695,60.1631 L201.0875,60.1631 Z M190.3198,55.8 C190.9919,55.2626 191.7312,54.9953 192.5291,54.9953 C193.7593,54.9953 194.4258,55.5392 194.5315,56.6275 C194.5902,57.2446 194.4547,58.0556 194.1281,59.0644 C193.8087,60.0407 193.4203,60.8582 192.9605,61.5116 C192.077,62.758 191.0021,63.381 189.733,63.381 C189.1292,63.381 188.6374,63.1999 188.2746,62.8438 C187.9055,62.4844 187.7998,61.9606 187.952,61.274 L189.5383,61.274 C189.4958,61.5116 189.5352,61.7023 189.6505,61.8514 C189.7653,62.0025 189.9578,62.0751 190.2308,62.0751 C190.7546,62.0751 191.2138,61.7854 191.6124,61.2077 C191.8338,60.8854 192.058,60.4199 192.2884,59.8062 C192.0835,59.9879 191.8831,60.1266 191.6886,60.2252 C191.332,60.4026 190.936,60.4925 190.5046,60.4925 C189.8611,60.4925 189.3637,60.2714 189.0079,59.8261 C188.6541,59.3813 188.6111,58.741 188.8849,57.907 C189.1655,57.0399 189.6432,56.338 190.3198,55.8 Z M191.9483,59.0083 C192.384,58.7775 192.6975,58.3779 192.8783,57.8121 C193.0274,57.3526 193.0399,56.9903 192.9112,56.723 C192.7856,56.4565 192.5348,56.3205 192.1637,56.3205 C191.8922,56.3205 191.6351,56.3962 191.3947,56.5484 C191.0117,56.7893 190.7283,57.191 190.544,57.7627 C190.3858,58.2395 190.3691,58.5998 190.4879,58.8402 C190.6035,59.0777 190.8643,59.1999 191.2694,59.1999 C191.4865,59.1999 191.7173,59.1373 191.9483,59.0083 Z M180.5425,55.8 C181.2183,55.2626 181.9542,54.9953 182.7555,54.9953 C183.9855,54.9953 184.6519,55.5392 184.7537,56.6275 C184.8138,57.2446 184.6817,58.0556 184.3514,59.0644 C184.0314,60.0407 183.6419,60.8582 183.1841,61.5116 C182.3031,62.758 181.2291,63.381 179.9552,63.381 C179.3528,63.381 178.8647,63.1999 178.4979,62.8438 C178.1285,62.4844 178.0239,61.9606 178.175,61.274 L179.7613,61.274 C179.7216,61.5116 179.7579,61.7023 179.8733,61.8514 C179.9881,62.0025 180.1837,62.0751 180.4535,62.0751 C180.9782,62.0751 181.4363,61.7854 181.8397,61.2077 C182.0599,60.8854 182.2802,60.4199 182.5112,59.8062 C182.3074,59.9879 182.1053,60.1266 181.9148,60.2252 C181.5582,60.4026 181.1622,60.4925 180.7307,60.4925 C180.0844,60.4925 179.5864,60.2714 179.2301,59.8261 C178.8777,59.3813 178.8372,58.741 179.1088,57.907 C179.3917,57.0399 179.8696,56.338 180.5425,55.8 Z M182.1744,59.0083 C182.6101,58.7775 182.9202,58.3779 183.105,57.8121 C183.2539,57.3526 183.2635,56.9903 183.1382,56.723 C183.0092,56.4565 182.7618,56.3205 182.3899,56.3205 C182.116,56.3205 181.8586,56.3962 181.6177,56.5484 C181.2347,56.7893 180.9518,57.191 180.767,57.7627 C180.612,58.2395 180.5921,58.5998 180.7109,58.8402 C180.8266,59.0777 181.0862,59.1999 181.4924,59.1999 C181.7098,59.1999 181.9409,59.1373 182.1744,59.0083 Z M169.8928,57.5706 L170.2423,56.4891 C170.7542,56.4659 171.1128,56.4327 171.3299,56.3899 C171.6698,56.3182 171.9759,56.1762 172.2432,55.965 C172.4312,55.8199 172.5928,55.6285 172.7447,55.3845 C172.834,55.2399 172.8867,55.1333 172.9097,55.0608 L174.2357,55.0608 L171.6103,63.1477 L169.9818,63.1477 L171.7954,57.5706 L169.8928,57.5706 Z M158.7951,56.3837 L154.4456,56.3837 L153.8781,58.1287 L157.8722,58.1287 L157.4076,59.5557 L153.4135,59.5557 L152.7281,61.6697 L157.2783,61.6697 L156.8004,63.1472 L150.5712,63.1472 L153.2386,54.9298 L159.2705,54.9298 L158.7951,56.3837 Z M142.0239,55.7873 C142.9075,55.1106 143.8602,54.7708 144.879,54.7708 C146.2478,54.7708 147.1028,55.2263 147.4418,56.1328 C147.6232,56.6402 147.6431,57.1519 147.5044,57.6658 L145.7858,57.6658 C145.8031,57.2706 145.7628,56.9744 145.6571,56.7723 C145.4666,56.416 145.0715,56.2383 144.47,56.2383 C143.8602,56.2383 143.2936,56.4894 142.7788,56.9943 C142.2572,57.4974 141.851,58.2103 141.552,59.1333 C141.2558,60.054 141.2161,60.7434 141.4372,61.2051 C141.6642,61.6629 142.0633,61.89 142.6368,61.89 C143.2244,61.89 143.738,61.6961 144.1737,61.3001 C144.4147,61.0898 144.6587,60.7694 144.9088,60.3471 L146.6175,60.3471 C146.1787,61.2448 145.5655,61.9699 144.7775,62.5334 C143.9923,63.0944 143.1249,63.3751 142.1787,63.3751 C141.0072,63.3751 140.2129,62.9955 139.7914,62.2375 C139.369,61.475 139.373,60.4304 139.8044,59.1047 C140.2733,57.67 141.0114,56.5654 142.0239,55.7873 Z M129.8188,54.9284 L131.6188,54.9284 L133.02,60.6597 L134.8801,54.9284 L136.4831,54.9284 L133.8117,63.1463 L132.0939,63.1463 L130.6428,57.3157 L128.7501,63.1463 L127.1472,63.1463 L129.8188,54.9284 Z M122.144,63.1463 L120.4367,63.1463 L123.1112,54.9295 L124.8157,54.9295 L122.144,63.1463 Z M111.5983,60.6096 C111.5291,60.9852 111.5421,61.2658 111.6414,61.4495 C111.812,61.7902 112.2446,61.9577 112.9362,61.9577 C113.3492,61.9577 113.7021,61.9158 113.9884,61.8256 C114.533,61.6544 114.8797,61.3372 115.0307,60.8729 C115.1203,60.5997 115.0707,60.3919 114.8754,60.2394 C114.6849,60.0982 114.3448,59.9695 113.8629,59.8573 L113.0357,59.6603 C112.2219,59.4678 111.6907,59.2569 111.4367,59.0298 C111.0041,58.6545 110.9228,58.0604 111.1858,57.2517 C111.4234,56.5178 111.8945,55.9069 112.5944,55.4188 C113.2931,54.9312 114.1665,54.6894 115.2184,54.6894 C116.0923,54.6894 116.7655,54.9179 117.2364,55.3799 C117.7086,55.8377 117.8175,56.5002 117.5641,57.3772 L115.9115,57.3772 C116.0424,56.8823 115.9347,56.5308 115.5914,56.3222 C115.3647,56.1833 115.0435,56.1141 114.6353,56.1141 C114.1798,56.1141 113.7914,56.2068 113.4612,56.3854 C113.1355,56.5589 112.9175,56.8106 112.8121,57.1306 C112.7188,57.4243 112.7792,57.6445 112.9992,57.79 C113.1412,57.8855 113.4655,57.9977 113.9819,58.1298 L115.3111,58.4689 C115.8984,58.6174 116.3078,58.8147 116.5376,59.0661 C116.9039,59.4513 116.9668,60.0123 116.7293,60.7442 C116.4849,61.4968 115.9934,62.1193 115.2482,62.6137 C114.51,63.1094 113.6058,63.3561 112.5504,63.3561 C111.4696,63.3561 110.6983,63.112 110.2362,62.6236 C109.7742,62.136 109.6818,61.4628 109.9598,60.6096 L111.5983,60.6096 Z" id="Fill-8"/>
                <path d="M41.4978,20.5002 L20.3757,20.5002 L24.1883,9.1097 L48.3474,9.1097 L49.1244,6.8312 L51.391,0.0014 L16.4058,0.0014 L3.04040088e-23,49.2812 L10.7705,49.2812 L17.6167,28.9188 L38.6679,28.9188 L41.4978,20.5002 Z M81.1848,40.1709 L54.3464,40.1709 L58.3823,28.0919 L83.1642,28.0919 L85.9901,19.6725 L61.211,19.6725 L64.7166,9.1109 L91.4737,9.1109 L93.5291,2.9081 L94.4784,3.04040088e-23 L56.8615,3.04040088e-23 L40.5289,49.2826 L78.1676,49.2826 L81.1848,40.1709 Z M223.7527,0.0003 L207.2812,49.2801 L196.4452,49.2801 L212.8478,0.0003 L223.7527,0.0003 Z M162.7687,49.2812 L163.1576,0.002 L173.9948,0.002 L172.6982,36.995 L172.8365,36.995 L196.0849,0.002 L207.333,0.002 L174.9835,49.2812 L162.7687,49.2812 Z M157.7389,0.0003 L141.2674,49.2801 L130.4308,49.2801 L146.834,0.0003 L157.7389,0.0003 Z M123.5588,0.0083 C125.7723,-0.038 127.76,0.1568 129.5246,0.5916 C131.2894,1.0304 132.749,1.7654 133.9103,2.8009 C135.0737,3.837 135.898,5.186 136.3838,6.8406 C136.8714,8.4963 136.9672,10.5208 136.6735,12.9158 C136.472,14.5707 135.9975,16.1564 135.2625,17.6769 C134.5232,19.1943 133.5739,20.539 132.4162,21.7129 C131.2622,22.887 129.943,23.866 128.4687,24.6476 C126.9915,25.4296 125.4121,25.937 123.7272,26.1649 L123.7107,26.3024 C125.6561,26.9496 126.8762,28.0639 127.3714,29.6504 C127.8666,31.2404 127.9941,33.0217 127.7501,35.0022 C127.6115,36.1077 127.3938,37.4264 127.091,38.9699 C126.784,40.5094 126.5405,42.0398 126.3515,43.5595 C126.2171,44.6644 126.1346,45.7095 126.1051,46.6994 C126.0785,47.689 126.1545,48.5516 126.3424,49.2877 L115.7799,49.2877 C115.717,48.6913 115.6708,48.1269 115.641,47.5954 C115.6189,47.0685 115.6348,46.5273 115.704,45.9743 C115.9083,44.3186 116.2023,42.6504 116.5949,40.9714 C116.9835,39.2928 117.2837,37.6234 117.4841,35.9683 C117.6335,34.7723 117.5777,33.7921 117.3265,33.0339 C117.0759,32.2725 116.6666,31.6661 116.1031,31.2041 C115.539,30.7454 114.8269,30.4359 113.9763,30.2701 C113.1191,30.1125 112.1618,30.03 111.1036,30.03 L100.8912,30.03 L94.4538,49.2877 L83.6849,49.2877 L100.0202,0.0083 L123.5588,0.0083 Z M113.5043,22.3005 C114.9752,22.3005 116.397,22.1519 117.769,21.8515 C119.1398,21.551 120.3834,21.0932 121.4946,20.4696 C122.606,19.8499 123.5324,19.0457 124.2742,18.0556 C125.0169,17.0663 125.4747,15.8834 125.6428,14.5015 C125.8047,13.1658 125.7188,12.0974 125.3823,11.293 C125.043,10.4877 124.5313,9.8779 123.8451,9.4624 C123.1602,9.0471 122.3453,8.7733 121.3957,8.6355 C120.4426,8.4963 119.4403,8.4269 118.3819,8.4269 L108.0963,8.4269 L103.496,22.3005 L113.5043,22.3005 Z" id="Fill-9"/>
            </g>
        </g>
    </g>
</svg>