<svg xmlns="http://www.w3.org/2000/svg" xmlns:xlink="http://www.w3.org/1999/xlink" version="1.1" id="layer" x="0px" y="0px" viewBox="0 0 652 652" style="enable-background:new 0 0 652 652;" xml:space="preserve">
<path fill="#FFFFFF" d="M79.7,296.2c-1.4,2.2-2.1,5-2.1,8.4v1.1h17.6v26.1H77.5V389H40.9v-57.2H26.7v-26.1h14.2v-1.9  c0-5.2,0.6-10.1,1.8-14.9c1.2-4.8,3.3-8.9,6.3-12.6c3-3.6,7-6.5,12-8.6c5-2.1,11.4-3.2,19-3.2c2.4,0,5.2,0.2,8.5,0.6  c3.2,0.4,5.9,1,8.1,1.8l-2.4,27.4c-0.9-0.4-2.1-0.8-3.3-1c-1.3-0.3-2.5-0.4-3.8-0.4C83.6,292.9,81.1,294,79.7,296.2 M152.2,306.8  c-3.5,2.2-6.2,5-8,8.4h-0.3v-9.5h-35.1V389h36.6v-40.4c0-4,1.4-7.4,4.3-10.1c2.9-2.7,6.6-4.1,11.4-4.1c1.2,0,2.5,0.1,3.9,0.2  c1.4,0.2,2.7,0.4,3.9,0.7l2.9-31c-1.8-0.5-4.1-0.8-7-0.8C159.9,303.5,155.7,304.6,152.2,306.8 M234.2,357.1c2.5-2.7,3.8-6.1,3.8-10  c0-3.7-1.3-6.9-3.9-9.7c-2.6-2.7-5.9-4.1-9.9-4.1c-4,0-7.2,1.4-9.7,4.1c-2.5,2.7-3.7,6-3.7,9.7c0,3.9,1.3,7.2,3.8,10  c2.5,2.7,5.8,4.1,9.8,4.1C228.4,361.2,231.7,359.9,234.2,357.1 M257.6,314.1c4.4,3.8,7.9,8.5,10.4,14c2.6,5.5,3.9,11.9,3.9,18.9  c0,7.2-1.3,13.6-3.9,19.2c-2.6,5.6-6.1,10.3-10.4,14.2c-4.4,3.9-9.5,6.8-15.2,8.8c-5.8,2-11.8,3-18.1,3c-6.2,0-12.2-1-18-3  c-5.7-2-10.8-4.9-15.1-8.8c-4.3-3.9-7.8-8.6-10.4-14.2c-2.6-5.6-3.9-12-3.9-19.2c0-7.1,1.3-13.4,3.9-18.9c2.6-5.5,6.1-10.2,10.4-14  c4.3-3.8,9.4-6.7,15.1-8.6c5.8-2,11.7-2.9,18-2.9c6.3,0,12.4,1,18.1,2.9C248.1,307.4,253.2,310.3,257.6,314.1 M552.2,357.1  c2.5-2.7,3.8-6.1,3.8-10c0-3.7-1.3-6.9-3.9-9.7c-2.6-2.7-5.9-4.1-9.9-4.1c-4,0-7.3,1.4-9.7,4.1c-2.5,2.7-3.7,6-3.7,9.7  c0,3.9,1.3,7.2,3.8,10c2.5,2.7,5.8,4.1,9.8,4.1C546.4,361.2,549.7,359.9,552.2,357.1 M575.6,314.1c4.4,3.8,7.9,8.5,10.5,14  c2.6,5.5,3.9,11.9,3.9,18.9c0,7.2-1.3,13.6-3.9,19.2c-2.6,5.6-6.1,10.3-10.5,14.2c-4.4,3.9-9.4,6.8-15.2,8.8c-5.7,2-11.8,3-18.1,3  c-6.2,0-12.2-1-18-3c-5.7-2-10.8-4.9-15.1-8.8c-4.3-3.9-7.8-8.6-10.4-14.2c-2.6-5.6-3.9-12-3.9-19.2c0-7.1,1.3-13.4,3.9-18.9  c2.6-5.5,6-10.2,10.4-14c4.3-3.8,9.4-6.7,15.1-8.6c5.8-2,11.7-2.9,18-2.9c6.3,0,12.4,1,18.1,2.9  C566.1,307.4,571.2,310.3,575.6,314.1 M345,310.6h-25.6c-21.6,0-39.2,17.5-39.2,39.2c0,21,16.5,38.1,37.2,39.1v0.1h33.1h27.8v-78.4  v-37.7H345V310.6z M456,260.5l-31.8,10.4l11.8,35.8l-24.3,8c-20.6,6.8-31.8,28.9-25,49.5c6.5,19.9,27.5,31,47.6,25.6l0,0.1  l31.5-10.3l26.4-8.7l-24.5-74.5L456,260.5z M613.5,386.8c5.8,0,10.4-4.7,10.4-10.4c0-5.7-4.7-10.4-10.4-10.4  c-5.7,0-10.4,4.7-10.4,10.4C603.1,382.1,607.8,386.8,613.5,386.8 M613.5,363.2c7.3,0,13.2,5.9,13.2,13.2c0,7.3-5.9,13.2-13.2,13.2  c-7.3,0-13.2-5.9-13.2-13.2C600.3,369.1,606.2,363.2,613.5,363.2 M615.5,374.5c0.1-0.2,0.2-0.5,0.2-0.8c0-0.3-0.1-0.5-0.2-0.7  c-0.1-0.2-0.3-0.3-0.5-0.4c-0.2-0.1-0.4-0.2-0.7-0.2c-0.3,0-0.5-0.1-0.7-0.1H612v3h1.5c0.3,0,0.5,0,0.8-0.1c0.3,0,0.5-0.1,0.7-0.2  C615.2,374.8,615.4,374.7,615.5,374.5 M618.1,375.8c-0.5,0.6-1.1,1-2,1.3l3.4,5.5h-3.6l-2.8-5.1H612v5.1h-3v-12.9h4.9  c0.6,0,1.2,0.1,1.8,0.2c0.6,0.1,1.1,0.3,1.6,0.6c0.5,0.3,0.8,0.7,1.1,1.2c0.3,0.5,0.4,1.1,0.4,1.9  C618.8,374.5,618.6,375.2,618.1,375.8"/>
</svg>