<svg width="100" height="27" viewBox="0 0 100 27" fill="none" xmlns="http://www.w3.org/2000/svg">
	<path d="M18.0712 0H42.9052L47.4475 16.9773V0H61.0195V27.0029H36.1509L31.623 10.2324V27.0029H18.0712V0ZM78.3657 22.5101L77.3349 27.0029H63.7628L68.5159 0H95.2471L100 27.0029H86.4599L85.4088 22.5101H78.3657ZM81.8887 6.73348L80.3351 13.5187H83.4452L81.8887 6.73348ZM6.80929 0.772743C5.61617 0.768196 4.44852 1.11589 3.45414 1.77182C2.45975 2.42774 1.68335 3.36241 1.2232 4.45751C0.763048 5.5526 0.639836 6.75889 0.869167 7.92368C1.0985 9.08847 1.67006 10.1594 2.5115 11.0009C3.35294 11.8424 4.42643 12.4166 5.59608 12.6509C6.76573 12.8851 7.97896 12.7689 9.08219 12.317C10.1854 11.865 11.1291 11.0976 11.7937 10.1118C12.4583 9.12609 12.8139 7.96636 12.8156 6.77944C12.8149 5.19206 12.1829 3.66943 11.0575 2.54403C9.93218 1.41862 8.40495 0.781848 6.80929 0.772743V0.772743ZM0.0117188 0H13.5838V27.0029H0.0117188V0Z" fill="white"></path>
</svg>