<svg xmlns="http://www.w3.org/2000/svg" xmlns:xlink="http://www.w3.org/1999/xlink" width="200px" height="38px" viewBox="0 0 200 38" version="1.1">
    <!-- Generator: Sketch 46.2 (44496) - http://www.bohemiancoding.com/sketch -->
    <title>Logo</title>
    <desc>Created with Sketch.</desc>
    <defs/>
    <g id="Symbols" stroke="none" stroke-width="1" fill="none" fill-rule="evenodd">
        <g id="Header" transform="translate(-120.000000, -66.000000)" fill="#FFFFFF">
            <g id="Logo">
                <g transform="translate(220.000000, 84.500000) rotate(-270.000000) translate(-220.000000, -84.500000) translate(201.500000, -15.500000)">
                    <path d="M0.682593857,179.349171 L0.682593857,165.073059 L1.72355396,165.073059 C1.8301164,166.870579 2.15770895,168.122947 2.54063808,168.996956 C3.08831211,170.140861 4.23551845,171.611416 5.98288951,173.356912 L16.2565207,183.708181 L29.9180154,171.012979 C32.2702943,168.833631 33.7469904,167.308214 34.3481038,166.545506 C35.3840045,165.181522 35.8769744,163.872715 35.8241675,162.457338 L36.8600683,162.457338 L36.8600683,179.075491 L35.8241675,179.075491 C35.7666175,177.442242 35.6591064,176.407115 35.5474846,176.079204 C35.3840045,175.536259 35.0017078,175.262895 34.4546662,175.262895 C33.0355201,175.262895 29.9761978,177.607459 25.2757507,182.347035 L19.5387704,188.122683 L20.6850281,189.539953 L30.9055361,189.539953 C32.8170197,189.539953 34.1292871,189.266589 34.7307167,188.668466 C35.3308814,188.067506 35.7128619,186.70636 35.8241675,184.635476 L36.8600683,184.635476 L36.8600683,200 L35.8241675,200 C35.7128619,197.875515 35.3308814,196.568285 34.6715856,195.968901 C34.0182978,195.368887 32.6010489,195.098045 30.3006283,195.098045 L6.64186912,195.098045 C4.72848832,195.098045 3.47155745,195.368887 2.86981167,195.913724 C2.27091178,196.514999 1.88703403,197.875515 1.72355396,200 L0.682593857,200 L0.682593857,184.527013 L1.72355396,184.527013 C1.88703403,186.70636 2.27091178,188.067506 2.81795339,188.668466 C3.35961945,189.266589 4.67125448,189.539953 6.64186912,189.539953 L17.8445224,189.539953 C12.1031152,183.218521 8.6071082,179.349171 7.18891073,177.98834 C5.6005928,176.407115 4.28864156,175.645353 3.41685328,175.645353 C2.75977093,175.645353 2.27091178,175.916825 2.04766821,176.515578 C1.88703403,176.89646 1.77667708,177.823754 1.72355396,179.349171 L0.682593857,179.349171 Z M36.8600683,121.501706 L36.8600683,135.356164 L35.8233699,135.356164 C35.8233699,133.835468 35.7119787,132.803332 35.3828681,132.258812 C35.0534411,131.770253 34.5100922,131.553325 33.7445936,131.553325 C33.0863725,131.553325 31.93765,131.878402 30.295578,132.58609 L25.0472137,134.812272 L25.0472137,149.048083 L31.4436676,151.548097 C32.1560022,151.820043 32.8686531,151.980695 33.522444,151.980695 C35.0534411,151.980695 35.8233699,150.731946 35.8233699,148.286949 L36.8600683,148.286949 L36.8600683,159.044369 L35.8233699,159.044369 C35.7657756,157.904083 35.3297041,156.979467 34.6157873,156.274295 C33.6866828,155.458457 31.1189874,154.101558 26.8500435,152.307973 L-1.33226763e-15,141.006662 L-1.33226763e-15,139.922023 L31.0607601,126.3917 C33.0325755,125.523045 34.2876261,124.815358 34.8350888,124.218335 C35.4395131,123.62194 35.7657756,122.752343 35.8233699,121.501706 L36.8600683,121.501706 Z M22.8048314,135.572777 L7.76669318,141.875631 L22.8048314,148.125982 L22.8048314,135.572777 Z M36.8600683,79.8634812 L36.8600683,88.5931448 L20.0279457,101.50032 L20.1383027,104.535716 L30.9055361,104.535716 C32.8170197,104.535716 34.1292871,104.26713 34.7307167,103.667832 C35.3308814,103.0723 35.7128619,101.718389 35.8241675,99.6585 L36.8600683,99.6585 L36.8600683,114.675768 L35.8241675,114.675768 C35.6591064,112.562224 35.2195758,111.261654 34.5119,110.716952 C33.906676,110.285207 32.5412854,110.066511 30.3006283,110.066511 L6.64186912,110.066511 C4.67125448,110.066511 3.41685328,110.33792 2.86981167,110.881367 C2.27091178,111.424186 1.88703403,112.722246 1.72355396,114.675768 L0.682593857,114.675768 L0.682593857,99.7099581 C0.682593857,95.319711 1.50442111,91.9018322 3.19930148,89.5159375 C4.83694801,87.1319255 7.18891073,85.9374093 10.2488655,85.9374093 C15.0552426,85.9374093 18.1689529,89.1896184 19.4274648,95.750515 L33.2533881,84.5800473 C34.8948292,83.2813601 35.7666175,81.7065566 35.8241675,79.8634812 L36.8600683,79.8634812 Z M18.1158298,104.535716 C18.1158298,100.956874 17.7325844,98.2471699 17.0217465,96.4568076 C15.819836,93.3671305 13.5260558,91.8491191 10.1372437,91.8491191 C5.16485677,91.8491191 2.7060154,94.9384825 2.7060154,101.175256 C2.7060154,102.585018 2.81795339,103.45196 3.08831211,103.886529 C3.30649634,104.318274 3.85290553,104.535716 4.67125448,104.535716 L18.1158298,104.535716 Z M1.72355396,57.6003879 C1.8301164,59.6256235 2.10553446,60.8829612 2.65320849,61.5402995 C3.30649634,62.307247 4.61781516,62.689612 6.64186912,62.689612 L32.4881623,62.689612 C33.5250117,62.689612 34.1830427,62.3620516 34.4021755,61.7056637 C34.6175139,61.0480086 34.7307167,59.5160143 34.7307167,57.1597336 C34.7307167,52.5624837 34.4021755,49.4436906 33.7469904,47.8534071 C32.8170197,45.6640745 30.6832412,43.8026191 27.3516629,42.3257462 L27.3516629,40.9556314 L36.8600683,43.5834007 L36.8600683,73.0375427 L35.8241675,73.0375427 C35.7128619,71.1219163 35.3308814,69.8633114 34.7307167,69.2059731 C34.1292871,68.6021722 32.8170197,68.2752454 30.9055361,68.2752454 L6.64186912,68.2752454 C4.61781516,68.2752454 3.2527408,68.6021722 2.65320849,69.3710204 C2.15770895,69.918116 1.88703403,71.1219163 1.72355396,73.0375427 L0.682593857,73.0375427 L0.682593857,57.6003879 L1.72355396,57.6003879 Z M36.8600683,1.26217745e-29 L36.8600683,13.8557973 L35.8233699,13.8557973 C35.8233699,12.3341841 35.7119787,11.3020651 35.3828681,10.7588114 C35.0534411,10.2686885 34.5100922,10.0514499 33.7445936,10.0514499 C33.0863725,10.0514499 31.93765,10.377465 30.295578,11.0848265 L25.0472137,13.3112861 L25.0472137,27.5459148 L31.4436676,30.0468308 C32.1560022,30.3175144 32.8686531,30.4809935 33.522444,30.4809935 C35.0534411,30.4809935 35.8233699,29.2306928 35.8233699,26.7841651 L36.8600683,26.7841651 L36.8600683,37.5426621 L35.8233699,37.5426621 C35.7657756,36.4005091 35.3297041,35.4787384 34.6157873,34.77232 C33.6866828,33.957754 31.1189874,32.5999342 26.8500435,30.8063798 L-1.55431223e-14,19.5055723 L-1.55431223e-14,18.4196938 L31.0607601,4.89022592 C33.0325755,4.02064284 34.2876261,3.31391009 34.8350888,2.71689697 C35.4395131,2.11894071 35.7657756,1.25187269 35.8233699,1.26217745e-29 L36.8600683,1.26217745e-29 Z M22.8048314,14.071464 L7.76669318,20.3745266 L22.8048314,26.623201 L22.8048314,14.071464 Z" id="Combined-Shape"/>
                </g>
            </g>
        </g>
    </g>
</svg>