<svg xmlns="http://www.w3.org/2000/svg" width="261" height="98" fill="none"><path fill="#FFFFFF" d="M51.145.82S63.872.435 77.362 7.121c16.19 8.024 17.621 24.357 17.621 24.357H58.308s9.231-17.21-4.585-19.915c-6.59-1.289-17.959 6.205-23.495 15.902-5.213 9.133-5.302 20.201-5.302 20.201s.288 35.53 34.672 35.53c0 0 8.882 1.578 22.775-6.014 10.92-5.965 14.901-16.621 14.901-16.621h16.619s-14.614 32.525-59.74 32.525C16.045 93.087 0 68.444 0 47.667c0-7.11 2.865-24.355 17.048-35.386C33.238-.756 51.145.819 51.145.819Z"/><path fill="#F07500" d="m95.056 32.84-5.59 17.553h29.8a9.46 9.46 0 0 1-.358 3.58c-1.003 3.367-2.436 3.798-2.436 3.798H86.959l-2.863 8.739s-1.077 3.866.5 4.368c2.05.653 3.44.145 3.44.145s-.816.938-4.154 3.367c-.897.652-2.08 1.504-3.225 2.22-5.48 3.426-12.177.43-10.458-5.732 2.005-7.179 3.439-11.605 3.439-11.605l-5.157.073s4.868-2.795 6.447-5.514c1.574-2.724 4.796-12.182 4.796-12.182s1.48-3.626.717-4.727C78.222 33.7 76.72 32.84 76.72 32.84h18.337Z"/><path fill="#F07500" d="m38.465 38.571 6.16-16.833s1.361-2.436.144-3.867c-1.218-1.431-1.647-1.863-1.647-1.863s4.022-2.1 6.375-2.865c3.08-1.003 11.245-1.434 7.162 10.243-4.182 11.957-10.672 28.652-10.672 28.652s2.078.503 5.014-1.146c2.114-1.185 4.084-5.443 4.942-8.093.858-2.65 2.17-6.012.646-6.95-1.864-1.145-2.078-2.077-2.078-2.077h13.61s3.939.5 1.434 7.521c-2.505 7.02-2.795 10.101-6.735 12.177a56.938 56.938 0 0 1-6.517 3.01l4.01 8.312s2.364 4.441 3.367 6.231a29.98 29.98 0 0 0 4.226 6.017c.775.833 1.587 1.315 2.22 1.791a28.153 28.153 0 0 1 1.435 1.144s-6.929 2.645-13.11 1.29c-5.23-1.145-8.166-7.378-9.814-10.53-1.649-3.153-5.658-10.027-5.658-10.027s-2.364 5.729-2.578 7.52c-.215 1.79-.432 2.65-.072 4.084.216.87.36 1.757.429 2.652 0 0-6.375-2.152-9.313-13.184-.706-2.654.717-6.16 1.432-7.952.716-1.792 5.588-15.26 5.588-15.26"/><path fill="#FFFFFF" d="M51.145.82S63.872.435 77.362 7.121c16.19 8.024 17.621 24.357 17.621 24.357H58.308s9.231-17.21-4.585-19.915c-6.59-1.289-17.959 6.205-23.495 15.902-5.213 9.133-5.302 20.201-5.302 20.201s.288 35.53 34.672 35.53c0 0 8.882 1.578 22.775-6.014 10.92-5.965 14.901-16.621 14.901-16.621h16.619s-14.614 32.525-59.74 32.525C16.045 93.087 0 68.444 0 47.667c0-7.11 2.865-24.355 17.048-35.386C33.238-.756 51.145.819 51.145.819Z"/><path fill="#F07500" d="m95.056 32.84-5.59 17.553h29.8a9.46 9.46 0 0 1-.358 3.58c-1.003 3.367-2.436 3.798-2.436 3.798H86.959l-2.863 8.739s-1.077 3.866.5 4.368c2.05.653 3.44.145 3.44.145s-.816.938-4.154 3.367c-.897.652-2.08 1.504-3.225 2.22-5.48 3.426-12.177.43-10.458-5.732 2.005-7.179 3.439-11.605 3.439-11.605l-5.157.073s4.868-2.795 6.447-5.514c1.574-2.724 4.796-12.182 4.796-12.182s1.48-3.626.717-4.727C78.222 33.7 76.72 32.84 76.72 32.84h18.337Z"/><path fill="#F07500" d="m38.465 38.571 6.16-16.833s1.361-2.436.144-3.867c-1.218-1.431-1.647-1.863-1.647-1.863s4.022-2.1 6.375-2.865c3.08-1.003 11.245-1.434 7.162 10.243-4.182 11.957-10.672 28.652-10.672 28.652s2.078.503 5.014-1.146c2.114-1.185 4.084-5.443 4.942-8.093.858-2.65 2.17-6.012.646-6.95-1.864-1.145-2.078-2.077-2.078-2.077h13.61s3.939.5 1.434 7.521c-2.505 7.02-2.795 10.101-6.735 12.177a56.938 56.938 0 0 1-6.517 3.01l4.01 8.312s2.364 4.441 3.367 6.231a29.98 29.98 0 0 0 4.226 6.017c.775.833 1.587 1.315 2.22 1.791a28.153 28.153 0 0 1 1.435 1.144s-6.929 2.645-13.11 1.29c-5.23-1.145-8.166-7.378-9.814-10.53-1.649-3.153-5.658-10.027-5.658-10.027s-2.364 5.729-2.578 7.52c-.215 1.79-.432 2.65-.072 4.084.216.87.36 1.757.429 2.652 0 0-6.375-2.152-9.313-13.184-.706-2.654.717-6.16 1.432-7.952.716-1.792 5.588-15.26 5.588-15.26"/><path fill="#FFFFFF" d="M129.195 25.6h13.175v16.114l13.805-16.115h17.52l-15.556 16.1 16.259 26.542h-16.226l-8.99-17.535-6.812 7.128v10.407h-13.175V25.599ZM175.764 25.6h40.052v10.53H202.38V68.24h-13.179V36.13h-13.437V25.6ZM248.127 50.789l11.548 3.49c-.773 3.236-1.995 5.94-3.665 8.113a15.842 15.842 0 0 1-6.21 4.917c-2.469 1.106-5.613 1.66-9.435 1.661-4.633 0-8.42-.674-11.361-2.022-2.939-1.347-5.473-3.716-7.604-7.109-2.136-3.387-3.202-7.727-3.199-13.02 0-7.056 1.876-12.477 5.627-16.264 3.751-3.787 9.059-5.68 15.925-5.68 5.372 0 9.594 1.086 12.667 3.258 3.073 2.169 5.357 5.505 6.851 10.007l-11.634 2.588c-.41-1.3-.835-2.252-1.286-2.853a7.54 7.54 0 0 0-2.7-2.327 7.772 7.772 0 0 0-3.58-.816c-2.986 0-5.274 1.201-6.864 3.603-1.204 1.784-1.805 4.583-1.803 8.397 0 4.723.717 7.963 2.152 9.72 1.438 1.75 3.456 2.626 6.054 2.63 2.516 0 4.421-.708 5.713-2.123 1.293-1.415 2.227-3.472 2.804-6.17Z"/><path fill="#F07500" d="M148.678 93.117c-.546 0-1.024-.119-1.433-.357-.396-.223-.594-.621-.594-1.194 0-.363.089-.769.266-1.216.246.28.471.475.676.587.218.112.45.168.696.168.682 0 1.187-.391 1.515-1.174.341-.782.512-1.649.512-2.599 0-1.774-.648-2.661-1.945-2.661-.369 0-.683.02-.942.063l-1.679 8.026h-2.948l2.784-13.329 3.031-.419-.963 4.653h.123c.519 0 1.003-.168 1.454-.503.45-.35.812-.783 1.085-1.3.273-.53.409-1.062.409-1.593 0-.642-.225-1.18-.675-1.613-.437-.433-1.113-.65-2.027-.65-.833 0-1.645.196-2.437.587-.791.377-1.44.95-1.945 1.718-.491.769-.737 1.698-.737 2.788 0 .517.048.88.143 1.09.096.195.144.307.144.335-.724 0-1.27-.147-1.638-.44-.369-.308-.553-.804-.553-1.488 0-.95.348-1.852 1.044-2.704.696-.852 1.618-1.537 2.764-2.054a8.527 8.527 0 0 1 3.624-.796c.956 0 1.761.154 2.416.461.655.307 1.14.713 1.454 1.216.328.503.491 1.055.491 1.655 0 .643-.177 1.265-.532 1.866-.355.6-.86 1.09-1.515 1.467.819.153 1.426.544 1.822 1.173.396.615.594 1.349.594 2.2 0 .797-.15 1.663-.451 2.6a5.79 5.79 0 0 1-1.453 2.43c-.669.671-1.529 1.007-2.58 1.007ZM157.29 81.15c-.45 0-.833-.161-1.146-.482a1.617 1.617 0 0 1-.471-1.174c0-.461.157-.852.471-1.174a1.51 1.51 0 0 1 1.146-.503c.451 0 .833.168 1.147.503.327.322.491.713.491 1.174 0 .461-.164.852-.491 1.174a1.543 1.543 0 0 1-1.147.482Zm-1.392 11.736c-.655 0-1.188-.21-1.597-.629-.396-.419-.594-1.047-.594-1.886 0-.349.055-.803.164-1.362l1.392-6.728h2.948l-1.474 7.126c-.054.21-.082.433-.082.67 0 .28.062.483.185.609.136.111.355.167.655.167.396 0 .764-.167 1.105-.503.342-.349.587-.796.738-1.341h.859c-.505 1.509-1.153 2.536-1.945 3.08-.791.532-1.576.797-2.354.797Z"/><path fill="#F07500" d="M160.722 82.281h2.948l-.266 1.3c.464-.42.88-.74 1.249-.964a2.39 2.39 0 0 1 1.228-.336c.437 0 .778.154 1.024.462.259.307.389.677.389 1.11 0 .406-.13.762-.389 1.07-.259.306-.621.46-1.085.46-.3 0-.505-.07-.614-.21-.096-.153-.171-.37-.226-.649a2.035 2.035 0 0 0-.122-.398c-.041-.084-.116-.126-.226-.126-.286 0-.532.063-.737.189-.191.111-.443.314-.757.607L161.5 92.76h-2.949l2.171-10.479ZM169.484 92.886c-.778 0-1.426-.272-1.945-.817-.518-.545-.778-1.397-.778-2.557 0-1.034.198-2.117.594-3.249.409-1.145 1.01-2.11 1.802-2.892.805-.796 1.761-1.194 2.866-1.194.56 0 .976.097 1.249.293a.91.91 0 0 1 .41.776v.146l.225-1.11h2.948l-1.474 7.125c-.055.21-.082.433-.082.67 0 .602.28.902.84.902.382 0 .709-.182.982-.545.287-.363.512-.838.676-1.425h.86c-.505 1.509-1.133 2.536-1.884 3.08-.737.532-1.481.797-2.231.797-.574 0-1.038-.16-1.393-.482-.341-.335-.546-.817-.614-1.446a5.87 5.87 0 0 1-1.331 1.404c-.478.35-1.051.524-1.72.524Zm1.331-2.033c.341 0 .676-.16 1.003-.482.342-.335.574-.79.697-1.362l.982-4.737a.823.823 0 0 0-.204-.523c-.137-.182-.348-.273-.635-.273-.546 0-1.037.328-1.474.985-.437.643-.778 1.425-1.024 2.347-.246.909-.369 1.712-.369 2.41 0 .7.096 1.146.287 1.342.205.195.451.293.737.293Z"/><path fill="#F07500" d="M181.06 81.129c-.45 0-.833-.16-1.147-.482a1.617 1.617 0 0 1-.471-1.174c0-.461.157-.852.471-1.174a1.513 1.513 0 0 1 1.147-.503c.45 0 .833.168 1.147.503.327.322.491.713.491 1.174 0 .461-.164.852-.491 1.174a1.544 1.544 0 0 1-1.147.482ZM175.962 98c-.655 0-1.201-.175-1.638-.524-.437-.35-.655-.852-.655-1.509 0-1.355 1.119-2.396 3.357-3.123l2.191-10.563h2.949l-2.027 9.725c.655-.224 1.18-.559 1.576-1.006.396-.447.73-1.11 1.003-1.991h.86c-.368 1.243-.866 2.159-1.494 2.745a5.036 5.036 0 0 1-2.13 1.174l-.307 1.51c-.273 1.354-.744 2.284-1.413 2.787a3.617 3.617 0 0 1-2.272.775Zm-.471-1.635c.232 0 .457-.16.676-.482.218-.321.389-.782.511-1.383l.123-.608c-1.337.503-2.006 1.097-2.006 1.782 0 .181.061.342.184.482.123.14.293.21.512.21Z"/><path fill="#F07500" d="M184.75 92.886c-.655 0-1.187-.21-1.597-.629-.396-.419-.594-1.047-.594-1.886 0-.349.055-.803.164-1.362l1.229-5.89h-.676l.164-.838h.675l.615-2.892 3.03-.419-.696 3.311h1.228l-.163.839H186.9l-1.31 6.287c-.055.21-.082.433-.082.67 0 .28.061.483.184.609.137.111.355.167.655.167.396 0 .765-.167 1.106-.503.341-.349.587-.796.737-1.341h.86c-.505 1.509-1.154 2.536-1.945 3.08-.792.532-1.577.797-2.355.797Z"/><path fill="#F07500" d="M191.069 92.886c-.997 0-1.775-.265-2.334-.796-.56-.545-.84-1.39-.84-2.536 0-.964.184-2.026.553-3.186a7.331 7.331 0 0 1 1.802-2.997c.832-.852 1.89-1.278 3.173-1.278 1.502 0 2.252.67 2.252 2.012 0 .782-.218 1.502-.655 2.158a4.96 4.96 0 0 1-1.74 1.593 5.611 5.611 0 0 1-2.314.67 8.802 8.802 0 0 0-.041.63c0 1.16.424 1.74 1.27 1.74.382 0 .791-.106 1.228-.315.437-.21.833-.475 1.188-.797-.369 2.068-1.549 3.102-3.542 3.102Zm.041-5.365a2.504 2.504 0 0 0 1.453-.524 3.667 3.667 0 0 0 1.106-1.278c.287-.531.43-1.083.43-1.656s-.171-.86-.512-.86c-.478 0-.955.448-1.433 1.342-.464.88-.812 1.872-1.044 2.976ZM212.567 92.886c-.832 0-1.447-.223-1.843-.67-.382-.462-.573-1.027-.573-1.698 0-.293.034-.622.103-.985.068-.377.136-.74.204-1.09.082-.35.137-.573.164-.67.109-.49.212-.972.307-1.447.096-.475.144-.859.144-1.152 0-.713-.246-1.07-.738-1.07-.354 0-.668.182-.941.546-.273.349-.492.81-.656 1.383l-1.392 6.727h-2.948l1.494-7.23c.041-.168.062-.342.062-.524 0-.615-.205-.922-.614-.922-.383 0-.717.181-1.004.545-.273.349-.491.817-.655 1.404l-1.392 6.727h-2.948l2.17-10.479h2.948l-.225 1.09c.696-.796 1.529-1.194 2.498-1.194 1.201 0 1.904.6 2.109 1.802.751-1.188 1.699-1.781 2.846-1.781.696 0 1.249.195 1.658.586.41.392.614.985.614 1.782 0 .405-.047.86-.143 1.362a36.96 36.96 0 0 1-.409 1.803c-.11.433-.212.859-.307 1.278a5.15 5.15 0 0 0-.123.964c0 .28.061.496.184.65.123.153.334.23.635.23.409 0 .737-.146.982-.44.246-.307.492-.775.738-1.404h.859c-.505 1.537-1.092 2.57-1.76 3.102-.656.517-1.338.775-2.048.775Z"/><path fill="#F07500" d="M217.542 92.886c-.656 0-1.188-.21-1.597-.629-.396-.419-.594-1.047-.594-1.886 0-.349.055-.803.165-1.362l1.391-6.728h2.948l-1.474 7.126c-.041.21-.061.405-.061.587 0 .573.204.86.614.86.382 0 .71-.161.983-.483.273-.335.491-.79.655-1.362l1.392-6.728h2.948l-1.474 7.126c-.054.21-.082.433-.082.67 0 .28.062.483.185.609.136.111.354.167.655.167.382 0 .71-.167.983-.503.286-.335.511-.782.675-1.341h.86c-.505 1.509-1.133 2.536-1.884 3.08-.737.532-1.48.797-2.231.797-.587 0-1.058-.167-1.413-.503-.341-.335-.546-.831-.614-1.488-.464.769-.956 1.293-1.474 1.572-.505.28-1.024.42-1.556.42Z"/><path fill="#F07500" d="M228.309 92.886c-.778 0-1.427-.272-1.945-.817-.519-.545-.778-1.397-.778-2.557 0-1.034.198-2.117.593-3.249.41-1.145 1.011-2.11 1.802-2.892.806-.796 1.761-1.194 2.867-1.194.559 0 .976.097 1.249.293a.91.91 0 0 1 .409.776v.083l1.003-4.82 3.031-.42-2.355 11.318c-.055.21-.082.433-.082.67 0 .28.062.483.184.609.137.111.355.167.656.167.382 0 .709-.167.982-.503.287-.335.512-.782.676-1.341h.86c-.833 2.501-2.204 3.751-4.115 3.751-.56 0-1.017-.153-1.372-.46-.342-.308-.553-.755-.635-1.342a4.95 4.95 0 0 1-1.29 1.383c-.491.364-1.071.545-1.74.545Zm1.331-2.033c.327 0 .655-.153.982-.46.342-.308.574-.734.697-1.28v-.104l1.003-4.8c-.123-.488-.403-.733-.84-.733-.546 0-1.037.328-1.474.985-.437.643-.778 1.425-1.024 2.347-.245.909-.368 1.712-.368 2.41 0 .7.095 1.146.287 1.342.204.195.45.293.737.293Z"/><path fill="#F07500" d="M238.001 82.281h2.949l-.267 1.3c.465-.42.881-.74 1.249-.964a2.396 2.396 0 0 1 1.229-.336c.437 0 .778.154 1.024.462.259.307.389.677.389 1.11 0 .406-.13.762-.389 1.07-.26.306-.621.46-1.086.46-.3 0-.505-.07-.614-.21-.095-.153-.17-.37-.225-.649a1.956 1.956 0 0 0-.123-.398c-.041-.084-.116-.126-.225-.126-.287 0-.532.063-.737.189-.191.111-.444.314-.758.607l-1.638 7.964h-2.948l2.17-10.479ZM247.296 92.844c-1.01 0-1.808-.265-2.395-.796s-.881-1.37-.881-2.515c0-.964.185-2.019.553-3.165a7.342 7.342 0 0 1 1.802-2.997c.833-.852 1.897-1.278 3.194-1.278 1.611 0 2.477.943 2.6 2.83.3-.07.567-.238.799-.504.232-.28.45-.594.655-.943h.655c-.368.755-.696 1.348-.983 1.781-.286.42-.662.762-1.126 1.027-.082 1.314-.348 2.466-.798 3.459-.437.992-1.01 1.76-1.72 2.305-.71.53-1.495.796-2.355.796Zm.819-1.886c.505 0 .976-.42 1.413-1.257.437-.839.737-1.873.901-3.102-.328-.126-.492-.44-.492-.943 0-.545.192-.909.574-1.09-.028-.447-.103-.755-.225-.922-.11-.182-.294-.273-.553-.273-.451 0-.881.336-1.29 1.006-.41.657-.744 1.46-1.003 2.41-.246.937-.369 1.76-.369 2.473 0 .671.075 1.125.225 1.363.15.223.423.335.819.335ZM257.847 77.44 261 77l-2.969 10.92h-1.74l1.556-10.48Zm-1.27 15.446c-.45 0-.839-.16-1.167-.482a1.687 1.687 0 0 1-.47-1.194c0-.461.156-.853.47-1.174a1.611 1.611 0 0 1 1.167-.482c.451 0 .833.16 1.147.482.314.321.471.713.471 1.174 0 .46-.157.859-.471 1.194a1.543 1.543 0 0 1-1.147.482Z"/></svg>