<svg xmlns="http://www.w3.org/2000/svg" viewBox="0 0 96 32.32"><path fill="#fff200" fill-rule="evenodd" d="M.42.38h95.29V22.5H.42z" clip-rule="evenodd"></path><path fill="#001522" d="M95.32.68H.68v21.64h94.65V.68zM96 23H0V0h96z"></path><path fill="#fff" fill-rule="evenodd" d="m54.86 32.24 29.82-1.56-.73-13.95-29.82 1.57z" clip-rule="evenodd"></path><path fill="#001522" d="M20.37 11.5c-.13-.95-.54-1.89-1.24-2.57-.56-.57-1.28-.96-2.04-1.19-.9-.27-1.84-.33-2.77-.26-.86.08-1.72.27-2.49.68-.78.39-1.46.99-1.9 1.75-.43.71-.64 1.55-.64 2.38-.01.49 0 .97-.01 1.46 0 .6-.03 1.21.11 1.8.18.88.66 1.69 1.31 2.3.57.52 1.25.92 1.98 1.16.87.3 1.79.42 2.71.39 1.51-.01 3.04-.24 4.46-.78.19-.06.29-.27.24-.46-.09-.32-.19-.64-.28-.97l-.02-.03c-.1-.35-.2-.71-.32-1.06-.08-.25-.39-.26-.59-.18-.06.02-.12.03-.18.05-1.12.26-2.26.43-3.41.38-.47-.03-.94-.11-1.37-.32-.33-.16-.59-.45-.72-.8-.06-.21-.1-.42-.09-.63 2.23-.01 4.46 0 6.68 0 .17-.01.38.03.51-.12.19-.16.12-.42.13-.64-.02-.78.05-1.56-.06-2.34m-7.21.61-.03-.03c-.01-.51.09-1.08.47-1.45.24-.26.58-.37.92-.43.53-.04 1.12-.03 1.54.33.45.39.57 1.03.55 1.59-1.15-.01-2.3 0-3.45-.01m50.25 5.7 9.85-.52v-5.43c-.06-.84-.29-1.67-.77-2.36-.46-.69-1.14-1.22-1.89-1.55-.86-.37-1.8-.51-2.73-.51-1.23.01-2.47.17-3.66.52-.13.04-.29.08-.37.2-.09.11-.09.26-.04.39.18.56.35 1.12.53 1.68.05.16.09.36.26.45.18.1.37 0 .55-.04.68-.18 1.38-.28 2.09-.29.46 0 .92.01 1.36.16.28.1.55.28.67.56.15.33.16.7.16 1.06h-2.15c-.82-.01-1.66.05-2.41.4-.69.31-1.26.87-1.57 1.55-.39.85-.46 1.83-.27 2.73.08.35.21.69.39 1m3.39-2.68c.05-.28.17-.57.43-.7.29-.18.63-.15.95-.17.23.01.46.02.69 0 .18.02.35.01.53.01.02.75.02 1.51.01 2.26-.06.01-.11.01-.16.02-.55.09-1.1.17-1.66.12-.33-.04-.64-.25-.74-.57-.08-.32-.04-.65-.05-.97M7.67 3.83c-1.05.01-2.11-.01-3.16.01-.16.04-.29.19-.27.35v14.62c-.02.21.19.37.39.35h2.99c.13.01.27-.03.35-.14.12-.12.09-.29.09-.44V4.23c.01-.21-.17-.43-.39-.4m34.8 5.47a3.88 3.88 0 0 0-2.1-1.61c-.36-.11-.73-.19-1.1-.22-1.06-.1-2.12.18-3.1.57-.02-.2-.19-.39-.41-.38h-3.17c-.13.06-.27.18-.26.34v10.81c-.02.19.16.36.35.35.95 0 1.9.01 2.85.01.13 0 .26.01.38-.02.12-.07.24-.18.24-.33.01-2.53 0-5.07.01-7.6.17-.16.36-.32.58-.42.53-.27 1.16-.41 1.74-.24.36.1.65.38.77.73.14.38.14.78.14 1.18v6.3c-.02.21.17.41.38.4 1.01.01 2.03 0 3.04 0 .17.01.33-.08.39-.24.05-.19.02-.39.03-.58-.02-.6.02-1.19-.01-1.79.03-.77-.01-1.53.01-2.3-.01-.89.03-1.78-.03-2.67-.08-.8-.29-1.61-.73-2.29m6.5-5.46h-3.82c-.1-.01-.21.01-.28.08-.11.08-.11.23-.15.35.01.48-.02.96 0 1.44 0 .23.19.45.42.43h3.82c.23.01.4-.21.39-.43V4.23c0-.2-.17-.41-.38-.39m5.16 14.46.63-.03v-6.9c-.01-.1.05-.19.13-.25.4-.33.89-.55 1.4-.61.38-.06.78-.01 1.11.19.27.17.44.46.52.76.12.47.08.97.09 1.46v5.18l3.82-.2c0-2.01.01-4.02 0-6.02-.03-.41-.08-.83-.18-1.23-.23-.89-.72-1.75-1.46-2.31-.68-.53-1.54-.8-2.39-.86-1.05-.1-2.08.2-3.04.57 0-.2-.16-.37-.35-.36h-3.09c-.21-.02-.4.18-.39.38v10.72c-.01.21.18.42.39.39.95 0 1.91.02 2.86.01zm-25.18-6.09c-.78-.34-1.63-.49-2.47-.47-.3-.01-.62-.03-.89-.19-.36-.25-.32-.91.09-1.09.33-.15.69-.14 1.04-.14.92-.02 1.83.19 2.71.44.02.01.07.02.1.03.13.04.27.11.41.07.13-.03.23-.15.28-.28.15-.51.32-1.02.48-1.53.05-.2.16-.38.14-.59 0-.17-.15-.28-.3-.33-.3-.1-.61-.2-.92-.28-.82-.2-1.65-.33-2.49-.38-1.02-.06-2.06-.02-3.04.27-.03 0-.08.02-.09.04-.75.25-1.46.68-1.91 1.34-.4.59-.56 1.32-.55 2.03-.02.9.3 1.82.91 2.49.63.7 1.52 1.12 2.43 1.3.42.1.85.11 1.28.13.34-.01.7 0 .99.2.12.07.16.21.22.33.02.19.02.4-.1.56-.2.27-.56.34-.88.35-.38 0-.77 0-1.15-.02-.86-.08-1.72-.22-2.56-.43-.13-.03-.28-.11-.41-.02-.14.06-.21.2-.24.34-.18.62-.37 1.23-.56 1.84-.08.19 0 .45.21.52 1.44.52 3 .66 4.53.65.7.01 1.4-.08 2.07-.26.61-.17 1.21-.43 1.7-.83.41-.33.76-.75.96-1.24.33-.81.33-1.73.09-2.57-.29-1.04-1.11-1.86-2.08-2.28m19.61-4.55h-2.07c-.37.01-.74-.01-1.1.02-.16.05-.27.21-.26.36v10.72c-.02.21.17.43.39.4 1.01-.02 2.03 0 3.04 0 .2.02.41-.14.4-.35V8.04c.02-.21-.19-.4-.4-.38"></path><path fill="#ed1c24" fill-rule="evenodd" d="m84.57 30.61 8.7-.46-.73-13.84-8.7.46z" clip-rule="evenodd"></path><path fill="#001522" d="m54.62 32.33 38.97-2.04-.74-14.09-38.97 2.04zm-.05-13.52L92.2 16.9l.69 12.82-37.63 1.92z"></path><path fill="#001522" d="m62.78 28.96-1.74-2.54-1.46 2.71-2.35.12 2.46-4.35-2.8-3.95 2.34-.12 1.66 2.42 1.39-2.58 2.34-.12-2.37 4.22 2.9 4.07zm20.16-1.05-2.9-4.07 2.37-4.22-2.34.12-1.39 2.58-1.66-2.42-2.34.12 2.8 3.95-2.46 4.35 2.35-.12 1.46-2.71 1.74 2.54zm-8.88.46-2.9-4.07 2.37-4.22-2.34.12-1.39 2.58-1.66-2.42-2.34.12 2.8 3.95-2.46 4.35 2.35-.12 1.46-2.71 1.74 2.54z"></path><path fill="#fff" d="m90.98 25.59-2.77.15-.33-6.39-2.04.11.43 8.28 4.8-.25z"></path></svg>