<svg xmlns="http://www.w3.org/2000/svg" width="86" height="36" viewBox="0 0 86 36" fill="none">
<g clip-path="url(#clip0_2557_114973)">
<path fill-rule="evenodd" clip-rule="evenodd" d="M31.4096 33.4342C31.0045 32.9498 30.8096 32.3374 30.8617 31.7087L31.4148 25.0096L31.3917 24.7169C31.3122 23.6995 30.4626 22.9205 29.4685 22.9205C29.4181 22.9205 29.3676 22.9223 29.3164 22.9266L21.5014 23.5492C20.4441 23.633 19.6466 24.577 19.7296 25.6461L20.3458 33.5413C20.4253 34.5587 21.2749 35.3377 22.269 35.3377C22.3194 35.3377 22.3699 35.3351 22.4211 35.3316L30.2361 34.7089C30.8822 34.6571 31.4301 34.2858 31.7404 33.7598C31.6216 33.664 31.5105 33.5551 31.4096 33.4342Z" fill="#EC008C"/>
<path fill-rule="evenodd" clip-rule="evenodd" d="M42.1792 26.5718C42.0211 25.5139 42.586 24.5112 43.4981 24.076C43.2647 23.3505 42.6185 22.7969 41.8219 22.7296L34.0104 22.0706C33.9566 22.0663 33.9027 22.0637 33.8497 22.0637C32.8599 22.0637 32.0112 22.8375 31.9274 23.8514L31.2752 31.744C31.1872 32.8123 31.9804 33.7597 33.0369 33.8487L40.8484 34.5076C40.9022 34.5128 40.9561 34.5145 41.0099 34.5145C41.9997 34.5145 42.8485 33.7407 42.9322 32.7268L42.9912 32.0144L42.1792 26.5718Z" fill="#EC008C"/>
<path fill-rule="evenodd" clip-rule="evenodd" d="M54.3674 34.1164C53.9717 33.6242 53.7896 33.0067 53.8546 32.3797L54.4435 26.6703L54.1572 24.747C54.0136 23.7841 53.1853 23.088 52.2485 23.088C52.1536 23.088 52.0579 23.0949 51.9613 23.1096L44.2105 24.2893C43.1609 24.4491 42.4318 25.4474 42.5899 26.5079L43.7575 34.3393C43.9011 35.3022 44.7293 35.9983 45.6661 35.9983C45.761 35.9983 45.8567 35.9914 45.9525 35.9767L53.7041 34.797C54.0529 34.7443 54.3657 34.5983 54.623 34.3885C54.5324 34.3056 54.4461 34.2149 54.3674 34.1164Z" fill="#EC008C"/>
<path d="M29.8324 17.7051C29.8111 17.7517 29.7897 17.7966 29.7683 17.8415C29.7128 17.9581 29.6529 18.0747 29.5897 18.1921C29.2691 18.7855 28.9153 19.2397 28.5289 19.5567C28.2494 19.7855 27.9349 19.9583 27.5853 20.0714C27.2408 20.1837 26.8682 20.2407 26.4647 20.2407V20.2389C26.2254 20.2389 25.998 20.2173 25.7818 20.1742C25.7536 20.169 25.7177 20.1612 25.6741 20.1508H25.6724C25.4903 20.1077 25.3117 20.0489 25.1365 19.9738C25.0877 19.9531 25.0313 19.9263 24.9681 19.8952C24.9082 19.8658 24.8535 19.8373 24.8048 19.8097C24.5287 19.6534 24.2817 19.4617 24.0646 19.2354L24.0569 19.2268C24.0108 19.1784 23.9732 19.1369 23.9424 19.1024C23.9133 19.0687 23.8757 19.0221 23.8287 18.9616C23.639 18.7155 23.4817 18.4461 23.3577 18.1498V18.149C23.3295 18.0825 23.3065 18.0229 23.2877 17.9711C23.2697 17.9201 23.25 17.8605 23.2304 17.7906C23.1389 17.4753 23.0928 17.148 23.0928 16.8078H23.0945C23.0945 16.5185 23.1304 16.2248 23.2013 15.9286C23.2235 15.8345 23.2509 15.736 23.2834 15.6341C23.3458 15.4372 23.4227 15.2394 23.5142 15.0408V15.0391L29.2119 2.8413C29.2486 2.7584 29.2914 2.67203 29.3392 2.58308C29.3854 2.49758 29.4324 2.4164 29.4828 2.33868C29.7444 1.93105 30.0752 1.59596 30.476 1.33429L30.4803 1.33083H30.4812C30.5598 1.27902 30.6384 1.23238 30.7137 1.19093C30.7914 1.14861 30.8726 1.10802 30.959 1.07002C31.3863 0.880023 31.8428 0.785889 32.3291 0.785889V0.787616C32.6779 0.787616 33.0078 0.832524 33.3172 0.922341C33.3634 0.936159 33.4147 0.952567 33.4694 0.971567C33.7275 1.05966 33.9737 1.18056 34.2079 1.33429C34.2865 1.38524 34.3617 1.43965 34.4344 1.49578C34.5104 1.55451 34.5814 1.6141 34.6463 1.67455C34.9934 1.99496 35.2771 2.39136 35.4968 2.86462L41.215 15.1911L41.2159 15.1902C41.3467 15.4458 41.4467 15.7118 41.5142 15.9908C41.5809 16.2637 41.6133 16.5461 41.6133 16.8363C41.6133 17.0781 41.5903 17.3087 41.5441 17.5289C41.5373 17.5608 41.5296 17.5963 41.5202 17.6368V17.6386C41.474 17.8225 41.4116 18.0022 41.3321 18.1757V18.1766C41.3116 18.2215 41.2843 18.2768 41.2509 18.3416C41.2219 18.3977 41.1928 18.4512 41.1629 18.5022C41.0048 18.776 40.8159 19.023 40.5979 19.2432C40.4466 19.396 40.2782 19.5359 40.0945 19.6612C39.9141 19.7838 39.7209 19.8883 39.5175 19.9764H39.5167C39.4508 20.0049 39.3919 20.0282 39.3406 20.0472C39.2902 20.0653 39.2312 20.0852 39.1611 20.1051C38.85 20.1975 38.5252 20.2441 38.1892 20.2441V20.2424C37.8012 20.2424 37.4439 20.1888 37.1174 20.0826C37.0636 20.0653 37.0097 20.0463 36.9567 20.0256C36.684 19.9185 36.4345 19.7734 36.2088 19.5903C36.1344 19.529 36.0592 19.4625 35.9857 19.3883C35.9131 19.3157 35.8421 19.2389 35.7712 19.1551C35.4609 18.788 35.1643 18.3053 34.8805 17.7077H29.8324V17.7051ZM32.6539 12.5216L32.3283 11.747L32.0018 12.5216H32.6539Z" fill="#006991"/>
<path d="M86.0001 14.0258H85.9984C85.9984 14.6493 85.8164 15.2746 85.4531 15.9025C85.3967 16 85.3343 16.0994 85.2668 16.2013C84.9283 16.7056 84.4727 17.21 83.9 17.7169L83.8949 17.7212C83.7573 17.8404 83.6265 17.9484 83.5026 18.0468C83.3744 18.147 83.2385 18.2489 83.0949 18.3508C82.3854 18.8552 81.623 19.2663 80.8076 19.5815C80.2426 19.8 79.6648 19.9649 79.0742 20.0755C78.4827 20.186 77.8861 20.2413 77.2843 20.2413C76.5954 20.2413 75.9244 20.1756 75.274 20.0444C74.6252 19.9122 73.9927 19.7153 73.3799 19.4511C72.7713 19.1885 72.2012 18.8802 71.6695 18.5244C71.1379 18.1686 70.6447 17.7661 70.1891 17.3145C69.2788 16.4146 68.5634 15.3523 68.0428 14.1294V14.1286C67.9736 13.9654 67.9061 13.7918 67.8403 13.6087C67.7753 13.4282 67.7172 13.252 67.6667 13.0801C67.3966 12.1656 67.2607 11.2139 67.2607 10.2233C67.2607 9.5298 67.3274 8.85359 67.4608 8.19378C67.5941 7.53657 67.7932 6.90094 68.0582 6.28864C68.3232 5.67719 68.6352 5.10548 68.9942 4.57349C69.3532 4.0415 69.76 3.54751 70.2147 3.09238C70.6703 2.63725 71.1635 2.23049 71.696 1.87208L71.6952 1.87122C72.2234 1.51454 72.7944 1.2045 73.4063 0.9411L73.4072 0.940237C73.5713 0.870284 73.744 0.801194 73.926 0.735559C74.1072 0.669924 74.2833 0.611198 74.4543 0.560244C75.368 0.28734 76.321 0.150024 77.3117 0.150024V0.151752C77.8929 0.151752 78.4604 0.200114 79.0143 0.297703C79.569 0.395293 80.1186 0.542972 80.6614 0.739013V0.739877H80.6623L80.664 0.741604C80.8272 0.80033 80.9768 0.859056 81.1127 0.916919C81.2666 0.981691 81.4127 1.04733 81.5521 1.11382C82.2897 1.46877 82.9863 1.92217 83.641 2.47316V2.4723C84.4129 3.09842 84.995 3.73405 85.3881 4.3809C85.7959 5.05193 85.9993 5.73246 85.9993 6.42163C85.9993 6.89749 85.9112 7.34398 85.7343 7.7637V7.76456C85.707 7.8302 85.6813 7.8872 85.6582 7.9347C85.6369 7.97874 85.6078 8.03401 85.5719 8.09965C85.4172 8.38119 85.23 8.63336 85.0095 8.85531V8.85618C84.9804 8.88554 84.9351 8.92786 84.8753 8.98227C84.8249 9.02804 84.7787 9.06777 84.7377 9.10145C84.4941 9.29922 84.2248 9.46071 83.9291 9.58766C83.7205 9.67748 83.5051 9.74484 83.2846 9.78802C83.0624 9.83207 82.835 9.85452 82.6017 9.85452C82.1897 9.85452 81.7863 9.77593 81.3939 9.61962H81.3922C81.1982 9.54276 81.0204 9.45035 80.8589 9.34412C80.6956 9.23703 80.552 9.11526 80.4281 8.97881L79.5554 8.01501L79.552 8.01329C79.4066 7.85006 79.2502 7.71015 79.0827 7.59097C78.9135 7.4718 78.728 7.37162 78.528 7.29043C78.3254 7.20925 78.1177 7.14707 77.9057 7.10648C77.6963 7.06589 77.4809 7.04517 77.2578 7.04517C77.0364 7.04517 76.8236 7.06503 76.6176 7.10648C76.4116 7.14707 76.2116 7.20839 76.0193 7.28871V7.28957C75.9706 7.30943 75.9167 7.33448 75.8578 7.36298C75.8073 7.38716 75.7552 7.41393 75.703 7.44243C75.4432 7.58493 75.209 7.75765 75.003 7.95974L75.0039 7.9606V7.96147L74.9987 7.96406C74.9611 8.00119 74.9218 8.04178 74.8816 8.08669C74.8406 8.1316 74.8039 8.17392 74.7722 8.21364C74.591 8.43732 74.4423 8.69123 74.3261 8.97363V8.97449C74.303 9.0289 74.2825 9.08504 74.2628 9.14031C74.2406 9.20422 74.2226 9.26035 74.209 9.30785C74.126 9.5963 74.085 9.90202 74.085 10.2242H74.0824C74.0824 10.4426 74.1038 10.656 74.1448 10.8667C74.1517 10.9012 74.1585 10.934 74.1662 10.9651C74.2055 11.1353 74.2585 11.3002 74.3243 11.4574V11.4583C74.3508 11.5204 74.3748 11.574 74.3961 11.6172C74.4192 11.6655 74.4457 11.7165 74.4756 11.7709C74.6167 12.0257 74.7927 12.2597 75.0039 12.4739C75.0492 12.5205 75.0911 12.5602 75.1287 12.5939C75.1748 12.6362 75.2175 12.6734 75.2577 12.7062C75.4851 12.8919 75.7364 13.043 76.009 13.1605C76.1954 13.2408 76.3911 13.3012 76.5945 13.3418C76.798 13.3824 77.0099 13.4023 77.2305 13.4023H77.2313V13.404C77.4442 13.404 77.6578 13.3807 77.8732 13.3332C77.9032 13.3263 77.9373 13.3176 77.9758 13.309C78.1536 13.2624 78.328 13.201 78.4998 13.1225C78.7092 13.0266 78.9058 12.9126 79.0904 12.7796C79.2767 12.6449 79.4511 12.4912 79.6161 12.3167L79.6178 12.315L80.2452 11.6534L80.2503 11.6474C80.3939 11.5023 80.5571 11.3684 80.7392 11.2458V11.2467C80.9153 11.1284 81.1076 11.0221 81.3144 10.9306H81.3153C81.3751 10.9038 81.4341 10.8796 81.4905 10.858C81.5529 10.8347 81.6127 10.814 81.6692 10.7959C81.9794 10.6974 82.2906 10.6482 82.6042 10.6482H82.6051V10.6499C82.8359 10.6499 83.0581 10.6732 83.2735 10.7199C83.3128 10.7276 83.3479 10.7371 83.3804 10.7449C83.5616 10.7907 83.7393 10.8529 83.9129 10.9323H83.9137C83.9753 10.96 84.0308 10.9867 84.0804 11.0126C84.1188 11.0325 84.1727 11.0627 84.2428 11.1033C84.5197 11.264 84.7684 11.4548 84.9864 11.675V11.6759C85.0129 11.7018 85.0539 11.7467 85.1103 11.8089C85.1642 11.8693 85.2035 11.9151 85.2292 11.9462C85.424 12.1863 85.5873 12.4514 85.7198 12.7425C85.8129 12.9454 85.8822 13.1553 85.93 13.3712C85.9754 13.5897 86.0001 13.8082 86.0001 14.0258Z" fill="#006991"/>
<path d="M85.2055 14.0261H85.2038C85.2038 13.8577 85.1867 13.6971 85.1533 13.5442C85.1191 13.3888 85.0662 13.2342 84.9952 13.0787C84.8926 12.8533 84.7644 12.646 84.6097 12.456C84.5678 12.4042 84.5371 12.3671 84.5191 12.3472C84.5037 12.3291 84.4704 12.2954 84.4208 12.2453V12.2445C84.2465 12.0683 84.055 11.9197 83.8456 11.7988C83.8208 11.7841 83.7781 11.7617 83.7182 11.7306C83.6704 11.7056 83.6259 11.684 83.5857 11.6658H83.5849C83.4541 11.6071 83.3216 11.5596 83.1866 11.5251C83.1575 11.5182 83.131 11.5112 83.1079 11.5061C82.9413 11.4698 82.7737 11.4517 82.6045 11.4517V11.4534C82.3686 11.4534 82.1352 11.4897 81.9053 11.5631C81.8574 11.5786 81.8121 11.5942 81.7703 11.6097C81.7224 11.6278 81.6762 11.6468 81.6327 11.6667H81.6318C81.4668 11.7401 81.3155 11.8221 81.1796 11.9146L81.1779 11.9154C81.0463 12.0044 80.9249 12.1046 80.8138 12.2168L80.813 12.216L80.1933 12.8697C79.9941 13.0813 79.7804 13.2687 79.5531 13.4337C79.324 13.5986 79.0821 13.7394 78.8282 13.8551C78.612 13.9544 78.3932 14.0313 78.1735 14.0883C78.1342 14.0987 78.0914 14.109 78.0436 14.1194C77.7812 14.1772 77.5111 14.2066 77.2341 14.2066V14.2083H77.2333C76.9632 14.2083 76.7008 14.1824 76.4452 14.1315C76.1896 14.0805 75.9418 14.0028 75.7007 13.9C75.3597 13.7532 75.0469 13.5641 74.7631 13.3318C74.7032 13.2834 74.6485 13.2368 74.5998 13.1919C74.5417 13.1392 74.4904 13.0899 74.4443 13.0433C74.1844 12.7808 73.9647 12.4871 73.7844 12.1607C73.7528 12.102 73.7194 12.0389 73.6861 11.969C73.6502 11.8964 73.6203 11.8299 73.5955 11.7721V11.7712C73.51 11.5682 73.4425 11.3592 73.3929 11.1468C73.3827 11.1028 73.3741 11.0613 73.3656 11.0198C73.316 10.7677 73.2912 10.5017 73.2912 10.2236H73.2886V10.2227C73.2886 9.8315 73.3416 9.45151 73.4468 9.08361C73.4699 9.00416 73.4921 8.93334 73.5134 8.87116C73.5374 8.80121 73.5639 8.73212 73.5921 8.66389V8.66303C73.7374 8.31067 73.9263 7.99113 74.1571 7.70527C74.2058 7.64482 74.2519 7.59041 74.2972 7.54032C74.3417 7.49196 74.3896 7.441 74.4426 7.39005L74.4417 7.38919L74.4426 7.38832L74.4468 7.38573C74.7109 7.12665 75.0033 6.90901 75.3255 6.73284C75.387 6.69915 75.4511 6.66634 75.5178 6.63352C75.5768 6.60502 75.6426 6.57566 75.7161 6.54457C75.9597 6.44266 76.2102 6.36493 76.4674 6.31484C76.7256 6.26389 76.9897 6.23798 77.2598 6.23798C77.5273 6.23798 77.794 6.26389 78.0564 6.31484C78.3171 6.3658 78.5727 6.4418 78.8248 6.5437C79.0787 6.64647 79.3163 6.77602 79.5377 6.93233C79.7608 7.08951 79.9625 7.27001 80.1445 7.47382L80.1437 7.47469L81.0138 8.43589C81.0899 8.51967 81.1822 8.59739 81.2916 8.66994C81.4027 8.74248 81.5335 8.80898 81.6848 8.86943V8.8703C81.9822 8.98861 82.2882 9.0482 82.6019 9.0482C82.7857 9.0482 82.9626 9.03093 83.1319 8.99725C83.3011 8.96357 83.4635 8.91348 83.6182 8.84698C83.8464 8.74853 84.0533 8.62416 84.2396 8.47389C84.2815 8.43935 84.3174 8.40912 84.3465 8.38235C84.3661 8.36421 84.3995 8.3314 84.4465 8.28476C84.6183 8.11117 84.7627 7.91859 84.8781 7.70786C84.8944 7.67764 84.9157 7.63532 84.9422 7.58091C84.967 7.52996 84.9875 7.48505 85.0029 7.44791C85.1354 7.13183 85.2021 6.78983 85.2021 6.42021C85.2021 5.87958 85.0379 5.33809 84.7089 4.79746C84.3653 4.23179 83.843 3.66439 83.143 3.097L83.1379 3.09181C82.5378 2.5866 81.8951 2.16947 81.2087 1.8387C81.0702 1.7722 80.936 1.71175 80.807 1.65648C80.66 1.5943 80.5232 1.54075 80.3967 1.49498V1.49584H80.3958L80.395 1.49412C79.9018 1.31535 79.3966 1.18062 78.8804 1.08994C78.3624 0.998399 77.8393 0.953491 77.3111 0.953491V0.955218C76.3922 0.955218 75.5144 1.08044 74.6776 1.33089C74.5084 1.38098 74.3468 1.43453 74.1938 1.49066C74.0417 1.54593 73.8836 1.60898 73.7186 1.6798H73.7177C73.157 1.92161 72.6305 2.20833 72.1373 2.54082H72.1356C71.6458 2.87073 71.192 3.24467 70.7748 3.66094C70.3569 4.07893 69.9825 4.5332 69.6509 5.02546C69.3184 5.51772 69.0312 6.04539 68.7867 6.60934C68.5431 7.17156 68.3602 7.75363 68.2388 8.35385C68.1183 8.95234 68.0576 9.57501 68.0576 10.2227C68.0576 11.1373 68.1816 12.013 68.4286 12.8499C68.479 13.0191 68.5311 13.1806 68.5867 13.3343C68.6406 13.4855 68.7038 13.6444 68.7739 13.8102C69.2534 14.9381 69.9107 15.9148 70.7458 16.7413C71.1629 17.1541 71.6168 17.5246 72.1082 17.8528C72.5997 18.181 73.1271 18.4668 73.6904 18.7104C74.2485 18.9505 74.8289 19.1318 75.4289 19.2527C76.0281 19.3736 76.6452 19.4341 77.2837 19.4341C77.8461 19.4341 78.394 19.384 78.93 19.2838C79.4659 19.1836 79.9975 19.0316 80.5232 18.8278C81.2779 18.5351 81.9822 18.1568 82.6361 17.6913C82.7575 17.6049 82.8831 17.5108 83.0122 17.4089C83.1447 17.3053 83.2669 17.2042 83.378 17.1075L83.3797 17.1058V17.1066C83.9011 16.6455 84.3097 16.1929 84.608 15.749C84.6636 15.6661 84.7166 15.5815 84.7661 15.4951C85.0593 14.9951 85.2055 14.5046 85.2055 14.0261Z" fill="#FFFFFF"/>
<path d="M50.9612 13.3444C50.527 13.2347 50.1586 13.0491 49.8569 12.7882V12.7874C49.7791 12.7209 49.709 12.6509 49.6458 12.5801C49.5817 12.5076 49.521 12.4307 49.4654 12.3487C49.1876 11.9384 49.0492 11.4419 49.0492 10.8572C49.0492 9.97025 49.3458 9.30181 49.939 8.85445C50.4971 8.433 51.3074 8.23178 52.3716 8.25251L54.3332 8.28014H54.3409C54.6204 8.28964 54.8631 8.30001 55.0708 8.31123C55.3102 8.32419 55.5093 8.33628 55.6683 8.34923C55.8495 8.36305 56.0213 8.38464 56.1837 8.41228C56.347 8.43991 56.4974 8.47532 56.6359 8.51678H56.6376C56.6615 8.52455 56.6991 8.53664 56.7487 8.55305C56.7906 8.56686 56.8273 8.57982 56.8581 8.59191C57.0487 8.66359 57.2154 8.74736 57.3556 8.84236H57.3573C57.3718 8.85186 57.4 8.87259 57.441 8.90281C57.4684 8.92354 57.4957 8.94513 57.5222 8.96672C57.6556 9.0764 57.7829 9.20854 57.9052 9.36226L57.906 9.36139L57.9086 9.36399C57.9889 9.46158 58.0667 9.57039 58.1419 9.68957C58.2146 9.80616 58.2813 9.92361 58.3385 10.0445C58.6343 10.6629 58.7744 11.4134 58.7608 12.2968L58.7334 13.8669V13.8799C58.7223 14.1053 58.7146 14.2797 58.7095 14.3911C58.7026 14.5405 58.6967 14.6675 58.6924 14.7728V14.7746L58.689 14.8609L58.6856 14.9438C58.6779 15.0984 58.6719 15.215 58.6659 15.2936C58.6616 15.3566 58.6548 15.424 58.6462 15.4922C58.6377 15.5553 58.6274 15.614 58.6163 15.6684C58.6026 15.7306 58.5898 15.7841 58.5779 15.8265C58.5685 15.8584 58.5514 15.9128 58.5257 15.9897H58.5266L58.5257 15.9923H58.5266L58.5257 15.9931L58.5249 15.9923C58.5001 16.0734 58.4719 16.152 58.4402 16.2272C58.4112 16.2997 58.3744 16.3774 58.3308 16.4621C58.1283 16.8533 57.8223 17.248 57.4128 17.6478C56.8598 18.1876 56.1658 18.6773 55.3307 19.1186V19.1203C54.623 19.4917 53.893 19.7715 53.1425 19.9597C52.3912 20.1471 51.6228 20.2404 50.839 20.2404C50.1492 20.2404 49.4791 20.1748 48.8287 20.0435C48.1799 19.9122 47.5482 19.7145 46.9345 19.4502C46.3225 19.1859 45.7516 18.8759 45.2225 18.5201C44.6934 18.1634 44.2002 17.7566 43.7421 17.2989C43.2891 16.8464 42.8831 16.3524 42.5241 15.817C42.1642 15.2798 41.8557 14.7081 41.5975 14.1009C41.3385 13.4912 41.1428 12.8565 41.012 12.1958C40.8804 11.5351 40.8154 10.8598 40.8154 10.168V10.1672H40.8171C40.8171 9.47971 40.8821 8.81041 41.012 8.1601C41.0394 8.02451 41.0616 7.91915 41.0795 7.84229C41.206 7.30253 41.3787 6.77572 41.5975 6.26186C41.8557 5.65474 42.1642 5.08389 42.5241 4.5493C42.8831 4.01731 43.2882 3.52678 43.7404 3.07856L43.7395 3.0777L43.7429 3.07597C43.878 2.94297 44.0079 2.82034 44.1335 2.70807C44.2532 2.60184 44.3891 2.48698 44.5421 2.36521C45.2592 1.79177 46.0507 1.31677 46.9174 0.9411H46.9183V0.940237C47.0798 0.870284 47.2516 0.802058 47.4337 0.735559C47.6132 0.669924 47.7884 0.611197 47.9585 0.560244C48.8671 0.28734 49.8184 0.150024 50.8108 0.150024C51.2698 0.150024 51.7314 0.182842 52.1938 0.247613C52.6528 0.312385 53.1101 0.40911 53.5622 0.536926C54.0152 0.665605 54.4546 0.824512 54.8819 1.01451C55.3068 1.20278 55.7187 1.42214 56.1179 1.67172L56.1307 1.67777L56.1299 1.6795C56.3213 1.80299 56.4931 1.92476 56.6436 2.04308C56.8017 2.16744 56.9513 2.29871 57.0923 2.43689C57.8223 3.15197 58.1872 3.95686 58.1872 4.85071H58.1889V4.85157H58.1872C58.1872 5.09166 58.1642 5.32397 58.118 5.54592C58.1103 5.58392 58.1018 5.62106 58.0932 5.6556C58.0479 5.84387 57.9855 6.02523 57.9077 6.20055C57.8804 6.26273 57.8539 6.31886 57.8274 6.36982C57.8086 6.40781 57.7787 6.46309 57.7385 6.53304C57.5787 6.81372 57.3898 7.06417 57.1718 7.28439C57.0179 7.43984 56.8487 7.57888 56.6624 7.70324C56.4795 7.82588 56.2837 7.93038 56.0743 8.01847H56.0735C56.0196 8.04092 55.9598 8.06424 55.894 8.08756C55.8418 8.10656 55.7811 8.12556 55.7119 8.14542C55.3948 8.23783 55.07 8.28446 54.7358 8.28446C54.57 8.28446 54.3999 8.26805 54.2264 8.23524C54.1392 8.21883 54.0631 8.20155 53.999 8.18428C53.9272 8.16442 53.8605 8.14196 53.7973 8.11692L53.7768 8.10828L53.7597 8.09965L52.4237 7.38284C52.2869 7.32239 52.1408 7.2628 51.9844 7.20494C51.8339 7.1488 51.6826 7.09957 51.5313 7.05553C51.4809 7.04171 51.4407 7.03048 51.4117 7.02271C51.3655 7.01149 51.3262 7.00199 51.2946 6.99508C51.098 6.95449 50.8997 6.9329 50.6997 6.9329C50.4894 6.9329 50.2877 6.95449 50.0937 6.99594C49.8971 7.03826 49.709 7.1013 49.5287 7.18421C49.3441 7.26971 49.1697 7.37075 49.0081 7.48734C48.8483 7.60306 48.6996 7.73347 48.5628 7.87942C48.4252 8.02624 48.3004 8.18687 48.1876 8.36132C48.0731 8.5375 47.9731 8.72404 47.8876 8.92181C47.8619 8.98054 47.8397 9.03667 47.8209 9.08763C47.8021 9.13858 47.7833 9.19385 47.7654 9.25344C47.679 9.53671 47.6363 9.83207 47.6363 10.1378H47.6337C47.6337 10.5774 47.7183 10.9919 47.8876 11.3823L47.8893 11.3857V11.3866C47.9124 11.4393 47.9372 11.4928 47.9637 11.5472C47.9867 11.5947 48.0149 11.6465 48.0457 11.7027C48.1902 11.9626 48.3645 12.1958 48.568 12.4013C48.7098 12.5447 48.8637 12.6734 49.0304 12.7865C49.2005 12.9031 49.3834 13.0041 49.5766 13.0896C49.9603 13.2589 50.3715 13.3435 50.8091 13.3435C50.8621 13.3479 50.9125 13.347 50.9612 13.3444Z" fill="#006991"/>
<path d="M50.374 12.1779C50.7441 12.4992 51.2903 12.659 52.0109 12.659H52.8836H54.3554L53.0827 13.4086C52.7545 13.6029 52.4673 13.754 52.222 13.8637C52.1818 13.881 52.134 13.9017 52.0775 13.9242C52.0254 13.9458 51.9784 13.9639 51.9391 13.9777C51.6134 14.0943 51.2373 14.153 50.8117 14.153C50.2672 14.153 49.7509 14.0451 49.262 13.8292C49.0193 13.7212 48.7945 13.5977 48.5876 13.4569C48.3765 13.3136 48.1833 13.1521 48.0072 12.9742C47.7534 12.7177 47.5354 12.4258 47.3534 12.0993C47.3217 12.0423 47.2876 11.9776 47.2525 11.9059C47.2217 11.8437 47.191 11.7772 47.1602 11.7073L47.1585 11.7047V11.7038H47.1593C46.9474 11.2133 46.8414 10.6934 46.8414 10.1415H46.8397C46.8397 9.75979 46.8952 9.3867 47.0063 9.02139C47.0269 8.95489 47.0508 8.88494 47.0781 8.81067C47.1055 8.73726 47.1328 8.66817 47.1602 8.60426V8.6034C47.2653 8.35986 47.3867 8.13359 47.5218 7.92373C47.6585 7.71301 47.8132 7.51524 47.9842 7.33215C48.1568 7.1482 48.3449 6.98239 48.5474 6.83557C48.7483 6.69048 48.9663 6.56439 49.1996 6.45644C49.4372 6.34676 49.68 6.26472 49.9296 6.21117C50.1809 6.15676 50.4381 6.12913 50.7005 6.12913C50.9459 6.12913 51.1972 6.1559 51.4544 6.21031C51.5108 6.22154 51.5604 6.23363 51.6023 6.24399C51.6621 6.25867 51.7109 6.27163 51.7493 6.28372H51.7502C51.9168 6.33208 52.0869 6.38735 52.2587 6.45126C52.416 6.50912 52.5861 6.57994 52.7699 6.66198L52.7938 6.67321L54.111 7.37879C54.1366 7.38829 54.1674 7.39779 54.2041 7.40815C54.2571 7.42283 54.3135 7.43579 54.3717 7.44615C54.4896 7.4686 54.611 7.47983 54.7349 7.47983C55.0033 7.47983 55.2563 7.44442 55.4939 7.3762C55.5324 7.36497 55.5786 7.34942 55.6324 7.33042C55.6726 7.31661 55.7179 7.29847 55.7683 7.27774H55.7692C55.9324 7.20952 56.0837 7.12834 56.2239 7.03507C56.3607 6.94352 56.4889 6.8373 56.6085 6.71725C56.7829 6.54108 56.9299 6.34763 57.0496 6.13604C57.0641 6.11099 57.0863 6.06781 57.1171 6.00736C57.1419 5.959 57.1633 5.91409 57.1812 5.87263H57.1821C57.2402 5.7405 57.2872 5.60491 57.3214 5.46673C57.3282 5.43737 57.3342 5.4106 57.3402 5.38469C57.3761 5.21283 57.394 5.03579 57.394 4.85356H57.3923V4.8527H57.394C57.394 4.18598 57.1086 3.57281 56.5384 3.01405C56.4265 2.90437 56.2991 2.79297 56.1547 2.68069C56.0068 2.56497 55.8555 2.45615 55.6999 2.35684L55.6948 2.35338L55.688 2.35079V2.34906L55.6888 2.3482C55.3281 2.12366 54.9529 1.92416 54.5648 1.7523C54.1734 1.57872 53.7682 1.43276 53.3485 1.31272C52.9289 1.19354 52.5075 1.10459 52.0861 1.045C51.6681 0.986272 51.2425 0.956909 50.8117 0.956909C49.8937 0.956909 49.0184 1.08213 48.1859 1.33172C48.0184 1.38267 47.8577 1.43535 47.7047 1.49149C47.5534 1.54676 47.397 1.60981 47.2329 1.68062H47.232C46.4234 2.03212 45.6909 2.46997 45.0345 2.99505C44.9199 3.0866 44.7951 3.19196 44.6592 3.31286C44.5302 3.42859 44.4113 3.53913 44.3019 3.64709L44.3028 3.64795L44.2994 3.64968C43.8797 4.06421 43.507 4.51416 43.1805 5.00038C42.854 5.48487 42.5694 6.01168 42.3283 6.57994C42.1283 7.04975 41.9711 7.53338 41.854 8.02823C41.8249 8.15345 41.8035 8.25018 41.7898 8.31754C41.6702 8.91603 41.6104 9.53266 41.6104 10.1674H41.6121C41.6121 10.8169 41.6719 11.4404 41.7898 12.038C41.9087 12.6348 42.0882 13.2169 42.3283 13.7825C42.5711 14.3517 42.8549 14.8793 43.1805 15.3664C43.5079 15.8552 43.8814 16.3095 44.3011 16.7292C44.7156 17.1437 45.1695 17.5177 45.6635 17.8493C46.1567 18.1818 46.6841 18.4694 47.244 18.7103C47.803 18.9513 48.3825 19.1327 48.9834 19.2536C49.5825 19.3745 50.2005 19.4349 50.8382 19.4349C51.563 19.4349 52.2673 19.3494 52.9519 19.1793C53.6374 19.0083 54.3076 18.7501 54.9632 18.4064L54.964 18.4072C55.7281 18.003 56.3615 17.5574 56.8624 17.0686C57.2111 16.7283 57.4667 16.4019 57.6282 16.0901C57.6547 16.0392 57.6812 15.9813 57.7069 15.9183C57.7308 15.8595 57.7505 15.8043 57.7667 15.7524V15.749L57.7701 15.7438C57.7795 15.7144 57.7932 15.6678 57.8112 15.6048C57.8265 15.5504 57.8359 15.5141 57.8411 15.4942C57.8471 15.4657 57.853 15.4303 57.8582 15.388C57.8633 15.3517 57.8676 15.3008 57.8718 15.236C57.8795 15.1298 57.8855 15.0192 57.8915 14.9044L57.8949 14.8249L57.8983 14.7394V14.7377C57.9035 14.6315 57.9086 14.5045 57.9154 14.3551C57.924 14.1694 57.9317 14.001 57.9394 13.8404L57.9667 12.2824C57.9795 11.5285 57.8642 10.898 57.6223 10.392C57.5744 10.2926 57.5248 10.202 57.4727 10.1191C57.4222 10.0387 57.3633 9.95756 57.2957 9.87551L57.2932 9.87292L57.2898 9.86688C57.2043 9.75892 57.1145 9.66565 57.0205 9.58879C57.0026 9.57411 56.9855 9.56029 56.9675 9.54647C56.9641 9.54388 56.9462 9.53179 56.9154 9.51107H56.9145L56.9154 9.5102C56.8214 9.44716 56.7094 9.39102 56.5803 9.34266C56.5496 9.33143 56.5222 9.32107 56.4983 9.3133C56.4837 9.30811 56.4547 9.29948 56.4102 9.28566H56.4085V9.2848C56.3017 9.25284 56.1829 9.22607 56.0512 9.20362C55.9179 9.1803 55.7692 9.16303 55.6051 9.14921C55.4187 9.13453 55.2264 9.12157 55.0298 9.11121C54.8016 9.09912 54.5631 9.08876 54.3144 9.08012L52.3596 9.05248H52.3579C51.4767 9.03607 50.8288 9.18462 50.4142 9.49725C50.0347 9.78397 49.8449 10.2365 49.8449 10.8549C49.8449 11.2754 49.9373 11.6218 50.121 11.8938C50.1544 11.9439 50.1928 11.9931 50.2356 12.0406C50.2809 12.0916 50.3262 12.1373 50.374 12.1779Z" fill="#FFFFFF"/>
<path d="M29.2079 17.1472L29.3113 16.9037H29.5737H35.1364H35.3936L35.4988 17.1395C35.7843 17.7794 36.0774 18.2768 36.3766 18.6309C36.433 18.6974 36.4886 18.7587 36.5441 18.8131C36.598 18.8676 36.6527 18.9168 36.7082 18.9617C36.8715 19.0938 37.0493 19.1975 37.2442 19.2743C37.2818 19.289 37.3211 19.3028 37.3613 19.3158C37.6108 19.397 37.8878 19.4384 38.1904 19.4384V19.4367C38.4553 19.4367 38.7049 19.4021 38.9391 19.333C38.975 19.3218 39.0212 19.3071 39.0742 19.2881C39.1272 19.2691 39.1716 19.2519 39.2066 19.2363H39.2075C39.3673 19.1681 39.5161 19.0869 39.6537 18.9936C39.787 18.903 39.9152 18.7967 40.0357 18.6741C40.2101 18.4979 40.358 18.3053 40.4785 18.0972C40.5033 18.0549 40.5264 18.0126 40.5477 17.9711C40.5648 17.9392 40.5854 17.896 40.6101 17.8407C40.6683 17.7146 40.7136 17.5825 40.7478 17.4452H40.7486C40.7537 17.4227 40.7597 17.3959 40.7666 17.3649C40.8025 17.1947 40.8204 17.0185 40.8204 16.8389H40.8187V16.838H40.8204C40.8204 16.6135 40.7948 16.395 40.7426 16.1817C40.6922 15.9736 40.6144 15.7672 40.5093 15.5633L40.5024 15.5478L34.7765 3.20322C34.603 2.83013 34.3808 2.51837 34.1098 2.26878C34.0543 2.21783 34.0004 2.17205 33.9474 2.1306C33.891 2.08656 33.8329 2.04597 33.7739 2.0071V2.00624C33.5978 1.89051 33.4106 1.79897 33.2132 1.73161C33.1799 1.72038 33.1414 1.70829 33.0978 1.69534C32.8533 1.62452 32.5961 1.58911 32.3277 1.58911V1.59084C31.9499 1.59084 31.5986 1.66338 31.2755 1.80588C31.2157 1.83265 31.1541 1.86288 31.0892 1.89829C31.025 1.9337 30.9644 1.96997 30.9079 2.00624L30.9037 2.00969H30.9028C30.5985 2.21005 30.3472 2.46482 30.1481 2.77573C30.1079 2.83791 30.0703 2.90181 30.0353 2.96659C30.0036 3.02617 29.9703 3.0944 29.9361 3.17126L29.9344 3.17472L29.9327 3.17817L24.2341 15.3828L24.2333 15.382C24.1555 15.5504 24.0914 15.7153 24.0409 15.8768C24.017 15.9546 23.9948 16.0349 23.9743 16.1178C23.9179 16.3536 23.8896 16.5841 23.8896 16.8087H23.8922V16.8096C23.8922 17.0773 23.9264 17.3294 23.9948 17.5652C24.0059 17.6015 24.0204 17.6481 24.0401 17.7017C24.0589 17.7552 24.076 17.8001 24.0905 17.8355V17.8364C24.1888 18.0696 24.311 18.2812 24.4563 18.4686C24.4751 18.4919 24.5042 18.5273 24.5452 18.5748C24.5828 18.618 24.6136 18.6534 24.6384 18.6784L24.6461 18.6871C24.8068 18.8537 24.9888 18.9945 25.1923 19.1094C25.2376 19.1353 25.2795 19.1569 25.3179 19.1759C25.3521 19.1931 25.3957 19.213 25.4487 19.2355C25.5778 19.2916 25.7137 19.3356 25.8538 19.3685C25.8727 19.3728 25.9 19.3788 25.935 19.3857C26.1094 19.4203 26.2863 19.4384 26.465 19.4384V19.4367H26.4658C26.7898 19.4367 27.083 19.3944 27.3428 19.3097C27.5975 19.226 27.8257 19.1016 28.0283 18.9358C28.3352 18.6845 28.6232 18.3097 28.8925 17.8096C28.9437 17.7155 28.9967 17.6093 29.0523 17.4935C29.1053 17.383 29.1566 17.2673 29.2079 17.1472ZM32.6935 10.563L33.6209 12.7669L33.856 13.3266H33.2551H31.4003H30.7994L31.0344 12.7669L31.9618 10.563L32.3277 9.69332L32.6935 10.563Z" fill="#FFFFFF"/>
<path d="M13.84 2.63404C13.8827 2.54854 13.9229 2.4734 13.9605 2.41036C13.9998 2.34559 14.046 2.27477 14.0998 2.19877C14.3511 1.84641 14.6708 1.5476 15.0614 1.30147C15.335 1.12961 15.6196 1.00093 15.9162 0.915432C16.2102 0.829933 16.5179 0.787616 16.8393 0.787616V0.785889C17.2513 0.785889 17.671 0.868796 18.0983 1.03288H18.0992C18.1573 1.05534 18.2163 1.07952 18.2744 1.10543C18.3342 1.13306 18.3907 1.15984 18.4428 1.18661C18.73 1.33429 18.9796 1.51565 19.1924 1.73069C19.2129 1.75055 19.2505 1.79201 19.3069 1.85332C19.3557 1.90773 19.3916 1.94832 19.4155 1.97768C19.5958 2.19532 19.742 2.42677 19.8557 2.67203C19.9335 2.83785 20.0027 3.02957 20.0651 3.24634C20.1258 3.45707 20.1805 3.6937 20.2284 3.95365L20.2301 3.9571L22.3028 15.8034H22.3011C22.3242 15.9303 22.3413 16.0305 22.3515 16.1031C22.3652 16.1946 22.3772 16.287 22.3866 16.3794C22.396 16.4666 22.4037 16.5539 22.4088 16.6411C22.4139 16.7369 22.4174 16.8207 22.4174 16.8915V16.8924H22.4156C22.4156 17.1351 22.3943 17.3639 22.3515 17.5807C22.3464 17.6092 22.3379 17.6446 22.3285 17.6878C22.2857 17.8709 22.2267 18.0488 22.1515 18.2232C22.0635 18.4262 21.9609 18.6153 21.843 18.788C21.7233 18.9642 21.5874 19.1266 21.4353 19.2743C21.2857 19.4194 21.1224 19.5515 20.9429 19.6698C20.766 19.7864 20.5771 19.8883 20.3745 19.9747C20.3241 19.9963 20.266 20.0196 20.1984 20.0437C20.1284 20.0697 20.0694 20.0895 20.0224 20.1033C19.7155 20.1957 19.3984 20.2424 19.0736 20.2424V20.2407C18.2197 20.2407 17.4846 20.0014 16.8692 19.5256C16.5581 19.2846 16.3051 19.0014 16.1102 18.6766C15.917 18.3554 15.7845 17.9987 15.7119 17.604H15.711L15.3076 15.5659L14.6221 17.4667H14.6229V17.4676L14.6212 17.4702C14.4597 17.9192 14.2699 18.3122 14.0511 18.6499C13.8246 18.9979 13.5673 19.2898 13.2767 19.5264C12.6895 20.004 11.9869 20.2432 11.1664 20.2432V20.2415C10.7501 20.2415 10.3689 20.1862 10.0244 20.0757C9.96887 20.0584 9.9116 20.0377 9.85434 20.0152C9.56629 19.9047 9.30388 19.7536 9.06541 19.5618C8.78591 19.3364 8.53376 19.048 8.30981 18.6956C8.09442 18.3571 7.90467 17.9581 7.7397 17.4978H7.73885L7.05591 15.6307L6.81487 17.0677H6.81401C6.79265 17.1964 6.767 17.3259 6.73538 17.4555C6.70546 17.579 6.67042 17.7016 6.63024 17.8242C6.42511 18.4495 6.10458 18.9668 5.67037 19.3762C5.36437 19.6646 5.02247 19.8814 4.64297 20.0265C4.26773 20.1707 3.86002 20.2432 3.42239 20.2432V20.2415C2.92237 20.2415 2.46679 20.1543 2.05651 19.9807C1.9907 19.9531 1.92317 19.922 1.85565 19.8874C1.52144 19.7164 1.21972 19.4841 0.94962 19.1896H0.94791L0.948765 19.1888C0.855598 19.0869 0.772688 18.9858 0.700035 18.8856C0.621398 18.7777 0.550455 18.6689 0.488058 18.5575C0.163256 17.9797 0 17.3052 0 16.5331H0.000854743C0.000854743 16.3846 0.0059832 16.2507 0.0145306 16.1316C0.0196591 16.0711 0.0256423 16.0063 0.033335 15.9346C0.0401729 15.8681 0.0487204 15.8008 0.0589773 15.7326L0.0606868 15.7196L2.13258 3.95624H2.13344C2.15395 3.83274 2.1796 3.70492 2.21122 3.57279C2.24285 3.43807 2.27704 3.31543 2.31294 3.20402C2.51295 2.58222 2.82322 2.06577 3.24546 1.65555C3.54206 1.36624 3.87883 1.14861 4.25491 1.00266C4.62587 0.859296 5.03102 0.786752 5.47036 0.786752V0.785889H5.47121V0.787616C5.8285 0.787616 6.17467 0.838569 6.50973 0.943067C6.56443 0.959476 6.61828 0.978476 6.67298 0.997476C6.95248 1.09852 7.21916 1.23324 7.47473 1.40338C7.78329 1.60805 8.05339 1.85073 8.28246 2.13227C8.50897 2.40949 8.69274 2.72126 8.83463 3.06844L11.1783 8.35465L13.8366 2.6444L13.84 2.63404Z" fill="#006991"/>
<path d="M14.6418 2.82582C14.6059 2.88627 14.5768 2.93895 14.5537 2.98472L11.5271 9.48519L11.1587 10.2771L10.8048 9.47914L8.10554 3.39062L8.10127 3.3794C7.98844 3.10476 7.84399 2.85863 7.66706 2.64186C7.49269 2.42682 7.28157 2.23855 7.03711 2.07619C6.82856 1.93801 6.61743 1.83006 6.40375 1.75234C6.36187 1.73679 6.32084 1.72297 6.2781 1.71002C6.01826 1.63057 5.74816 1.58997 5.46951 1.58997V1.5917H5.46866V1.58911C5.12676 1.58911 4.81649 1.64352 4.53699 1.75234C4.26347 1.85856 4.01645 2.01919 3.79507 2.23596C3.47027 2.55205 3.22838 2.95881 3.06854 3.45453C3.03435 3.56076 3.00614 3.66266 2.98221 3.76025C2.95828 3.85957 2.93691 3.97011 2.91639 4.09275V4.09361V4.0962L0.845352 15.8587H0.844497C0.836804 15.9148 0.829966 15.9692 0.823983 16.0228C0.818855 16.0755 0.812871 16.1316 0.808598 16.1912C0.799196 16.3112 0.794922 16.4244 0.794922 16.5332H0.795777C0.795777 17.1628 0.924843 17.7043 1.18127 18.1577C1.2317 18.2466 1.2864 18.3312 1.34367 18.4098C1.40606 18.4953 1.46931 18.5739 1.53427 18.6439H1.53598L1.53513 18.6447C1.73685 18.865 1.96421 19.0394 2.21551 19.1681C2.26166 19.1923 2.31124 19.2147 2.36338 19.2372C2.67963 19.371 3.03349 19.4384 3.42411 19.4384V19.4367C3.76857 19.4367 4.08226 19.3823 4.36518 19.2735C4.64469 19.1664 4.90025 19.004 5.13103 18.7872C5.46866 18.4694 5.71824 18.0644 5.87894 17.5721C5.91056 17.4771 5.93877 17.3752 5.96526 17.2664C5.99005 17.1645 6.01228 17.054 6.03193 16.9356V16.9348L6.52256 14.014L6.77214 12.5303L7.28841 13.9415L8.48847 17.2198V17.2215C8.63206 17.6239 8.79703 17.9703 8.98165 18.2604C9.15773 18.5377 9.3509 18.7613 9.56288 18.9306C9.73554 19.0696 9.92785 19.1802 10.1398 19.2614C10.1791 19.2769 10.221 19.2916 10.2663 19.3054C10.539 19.3926 10.8399 19.4367 11.1689 19.4367V19.435H11.1698C11.804 19.435 12.3416 19.2553 12.781 18.8978C13.0041 18.7164 13.2058 18.4858 13.387 18.2078C13.5742 17.9193 13.7366 17.5825 13.8759 17.1973L13.8751 17.1965H13.8759L13.8768 17.193L15.0495 13.9423L15.535 12.5951L15.8128 14.0002L16.494 17.4443V17.4504C16.5496 17.7518 16.6478 18.0212 16.7906 18.2587C16.9316 18.4945 17.1197 18.7026 17.3539 18.884C17.8291 19.2519 18.4026 19.4358 19.0762 19.4358V19.4341C19.3266 19.4341 19.5676 19.3995 19.7976 19.3296C19.8548 19.3123 19.9001 19.2976 19.9335 19.2855C19.9694 19.2726 20.0138 19.2545 20.0651 19.2329C20.2267 19.1638 20.3754 19.0835 20.5121 18.9936C20.6463 18.9047 20.7711 18.8054 20.8857 18.6931C20.9976 18.5843 21.0985 18.4642 21.1874 18.333C21.278 18.1983 21.3575 18.054 21.4242 17.8994C21.478 17.7733 21.5216 17.6412 21.5541 17.5022C21.5592 17.4823 21.5643 17.4555 21.5712 17.4201C21.6062 17.2457 21.6233 17.0695 21.6233 16.889H21.6216V16.8881C21.6216 16.813 21.619 16.7448 21.6165 16.6843C21.6131 16.6152 21.6062 16.5418 21.5977 16.4641C21.5891 16.3907 21.5789 16.3087 21.5652 16.2162C21.5489 16.1066 21.5344 16.0142 21.5207 15.9399L21.519 15.9382L19.4463 4.09447H19.4471C19.4035 3.86043 19.3565 3.6523 19.3035 3.46921C19.2522 3.29131 19.1967 3.13845 19.1377 3.01063C19.0548 2.83272 18.9445 2.66 18.8052 2.49332C18.7676 2.44669 18.7394 2.41387 18.7215 2.39401C18.7112 2.38278 18.6796 2.35082 18.6291 2.29901C18.4753 2.14356 18.2924 2.01229 18.0813 1.90347C18.0368 1.88015 17.9932 1.85942 17.9522 1.84129C17.9086 1.82143 17.8624 1.80243 17.8146 1.78429C17.4795 1.65561 17.1539 1.59084 16.8385 1.59084V1.58911C16.5966 1.58911 16.3615 1.62279 16.1333 1.68843C15.9068 1.75406 15.6897 1.85252 15.4811 1.98379C15.1777 2.17465 14.9324 2.40264 14.7435 2.66691C14.7127 2.71095 14.6785 2.7645 14.6418 2.82582Z" fill="#FFFFFF"/>
<path d="M62.9289 20.2165C61.0288 20.2165 59.4834 18.6974 59.4834 16.8302V3.38625C59.4834 1.51911 61.0296 0 62.9289 0C64.829 0 66.3743 1.51911 66.3743 3.38625V16.8302C66.3743 18.6974 64.829 20.2165 62.9289 20.2165Z" fill="#006991"/>
<path d="M65.6693 16.8303C65.6693 18.307 64.4428 19.5032 62.9299 19.5032C61.417 19.5032 60.1904 18.307 60.1904 16.8303V3.38628C60.1904 1.90949 61.417 0.713379 62.9299 0.713379C64.4428 0.713379 65.6693 1.90949 65.6693 3.38628V16.8303Z" fill="#FFFFFF"/>
<path d="M22.349 26.1798C22.3225 25.8404 22.4191 25.539 22.6371 25.2696C22.855 25.0036 23.1354 24.8568 23.4773 24.8291C23.826 24.8015 24.1311 24.8999 24.391 25.1245C24.6517 25.349 24.7953 25.6383 24.8235 25.9907L24.9491 27.5996L25.1329 27.5167C25.4295 27.3872 25.744 27.3094 26.0783 27.2827C26.1603 27.2758 26.2304 27.2706 26.2894 27.2654C26.3492 27.2611 26.4509 27.268 26.5937 27.287C27.2116 27.3509 27.7424 27.5746 28.1869 27.958C28.6314 28.3415 28.9425 28.8476 29.1177 29.4745C29.1793 29.6887 29.2186 29.9089 29.2365 30.1335C29.2981 30.9133 29.1194 31.6224 28.7023 32.2597C28.2852 32.8962 27.751 33.2986 27.098 33.4636C26.8928 33.518 26.7125 33.5508 26.5561 33.5629C25.962 33.6104 25.4748 33.4532 25.0962 33.0905L25.0927 33.0447C24.9705 33.1959 24.8714 33.3099 24.7944 33.3859C24.5577 33.6156 24.3474 33.7382 24.1619 33.7529C23.7901 33.7823 23.4858 33.6959 23.2499 33.4912C23.014 33.2848 22.8798 32.9843 22.849 32.5853L22.349 26.1798ZM26.7749 30.4668C26.7518 30.1672 26.6543 29.9271 26.4834 29.7483C26.3125 29.5695 26.1082 29.4901 25.8706 29.5082C25.8039 29.5134 25.756 29.5212 25.727 29.5315C25.3449 29.6222 25.1312 29.9003 25.085 30.3641L25.1021 30.5782C25.1244 30.8632 25.2218 31.0869 25.3936 31.251C25.5671 31.4142 25.7748 31.4868 26.0176 31.4678C26.062 31.4643 26.121 31.4522 26.1919 31.4315C26.3817 31.3711 26.5287 31.2579 26.639 31.0895C26.7484 30.9211 26.7937 30.7147 26.7749 30.4668Z" fill="white"/>
<path d="M39.6593 25.2419C39.7055 25.2385 39.7474 25.2376 39.7841 25.2411C39.844 25.2462 39.8893 25.2497 39.9192 25.2523C40.0611 25.2644 40.1807 25.2877 40.2765 25.3222C40.3713 25.3568 40.4543 25.4155 40.5226 25.4976C40.8047 25.8344 40.9269 26.2265 40.8902 26.6738L40.5739 30.4953C40.5423 30.8822 40.4004 31.1793 40.1491 31.3874C39.8978 31.5956 39.5918 31.6837 39.232 31.6534C39.0371 31.637 38.8157 31.5187 38.5695 31.2994C38.4918 31.232 38.3875 31.1232 38.2567 30.9755L38.2524 31.0325C38.2353 31.2372 38.1234 31.3745 37.9174 31.4453C37.7114 31.5153 37.4396 31.5369 37.102 31.5084C36.8096 31.4833 36.4968 31.4246 36.1643 31.3322C35.8318 31.2389 35.5173 31.0696 35.2207 30.8226C34.9232 30.5765 34.6702 30.2604 34.4599 29.8761C34.3163 29.5972 34.2189 29.2949 34.1659 28.9702C34.1138 28.6446 34.1027 28.3009 34.1326 27.9364C34.195 27.1782 34.4847 26.5365 35.0001 26.0114C35.5155 25.4863 36.1087 25.1867 36.7797 25.1141C36.9934 25.0942 37.178 25.0899 37.3361 25.1037C37.8986 25.1512 38.349 25.368 38.6875 25.7558C38.7311 25.691 38.7721 25.6409 38.8131 25.6064C39.0593 25.3663 39.3414 25.2462 39.6593 25.2419ZM38.1396 28.9503C38.1653 28.914 38.1917 28.8709 38.2182 28.8199C38.2447 28.769 38.2678 28.7016 38.2858 28.6195C38.3037 28.5366 38.3148 28.4693 38.3191 28.4166C38.3234 28.3639 38.3277 28.3225 38.3294 28.2922C38.3071 27.9002 38.1541 27.6281 37.8644 27.4744C37.7242 27.4088 37.6088 27.3725 37.5165 27.3647C37.3182 27.3474 37.1353 27.4044 36.9695 27.5357C36.8054 27.667 36.6883 27.8552 36.6224 28.1022L36.6053 28.3069C36.5848 28.5574 36.6472 28.7897 36.7917 29.0047C36.937 29.2189 37.1293 29.3363 37.3686 29.3571C37.7003 29.3821 37.9567 29.2474 38.1396 28.9503Z" fill="white"/>
<path d="M45.5797 26.514C45.5293 26.1764 45.6037 25.8689 45.8028 25.5857C46.002 25.3041 46.2704 25.1383 46.6097 25.0865C46.9559 25.0338 47.267 25.1098 47.5422 25.3153C47.8175 25.5209 47.9816 25.7981 48.0337 26.1487L48.2713 27.7447L48.4491 27.6497C48.7355 27.4994 49.0449 27.3993 49.3765 27.3483C49.4569 27.3353 49.5278 27.325 49.5868 27.3163C49.6458 27.3077 49.7475 27.3077 49.8919 27.3155C50.5125 27.3353 51.0578 27.5202 51.5287 27.8717C51.9989 28.2223 52.3442 28.705 52.5638 29.3182C52.6399 29.5272 52.6946 29.7431 52.728 29.9668C52.8433 30.7406 52.7151 31.4609 52.3442 32.1258C51.9724 32.7917 51.4672 33.2296 50.8287 33.4411C50.6278 33.5094 50.4509 33.5551 50.2962 33.5793C49.7064 33.6691 49.2098 33.5474 48.8064 33.2123L48.7996 33.1682C48.6884 33.328 48.597 33.448 48.526 33.5292C48.3072 33.7754 48.1055 33.9127 47.9209 33.9412C47.5525 33.9973 47.2431 33.9325 46.9935 33.746C46.743 33.5577 46.5892 33.2667 46.5294 32.8703L45.5797 26.514ZM50.2954 30.4729C50.2509 30.1749 50.1372 29.9435 49.9543 29.7768C49.7714 29.611 49.562 29.5453 49.3261 29.5808C49.2603 29.5911 49.2124 29.6023 49.1842 29.6144C48.8098 29.7319 48.6158 30.0247 48.603 30.491L48.6346 30.7035C48.6765 30.9859 48.7902 31.2026 48.9731 31.3538C49.1577 31.5049 49.3697 31.5619 49.6107 31.5256C49.6552 31.5187 49.7124 31.5023 49.7825 31.4764C49.9671 31.403 50.1073 31.2786 50.2056 31.1033C50.3013 30.9289 50.3321 30.7181 50.2954 30.4729Z" fill="white"/>
<path fill-rule="evenodd" clip-rule="evenodd" d="M66.7149 25.7722C66.8252 24.7056 66.0508 23.7418 64.996 23.6312L57.1991 22.8099C57.1324 22.803 57.0657 22.7987 56.9991 22.7987C56.0255 22.7996 55.1827 23.5475 55.0802 24.5458L54.2673 32.4238C54.157 33.4903 54.9306 34.4541 55.9862 34.5655L63.7823 35.3868C63.849 35.3937 63.9156 35.3972 63.9823 35.3972C64.9559 35.3972 65.7986 34.6484 65.9012 33.6501L66.7149 25.7722Z" fill="#EC008C"/>
<path d="M61.0018 27.4986L61.7146 25.9181C61.7428 25.856 61.783 25.78 61.8343 25.691C61.8864 25.6021 61.9343 25.5235 61.9779 25.4552C62.0864 25.3067 62.2232 25.1979 62.389 25.1279C62.554 25.0588 62.7361 25.0347 62.9352 25.0554C63.1062 25.0735 63.2643 25.1227 63.4104 25.2039C63.5566 25.2851 63.6865 25.4034 63.7985 25.5606C63.9694 25.7895 64.0395 26.0529 64.0088 26.3474C63.9891 26.5408 63.931 26.7161 63.8353 26.8742L60.5881 32.6397C60.2795 33.1898 59.8838 33.4385 59.4 33.3876C59.2795 33.3746 59.1572 33.341 59.0333 33.284C58.7991 33.1864 58.6188 33.0352 58.4931 32.8297C58.3675 32.6233 58.3162 32.4022 58.341 32.1647C58.3581 32.0067 58.4136 31.8452 58.5094 31.6811L59.5043 30.0868L58.2555 26.2075C58.2128 26.065 58.1991 25.9216 58.2136 25.7782C58.2367 25.5554 58.3205 25.3516 58.4658 25.1668C58.6111 24.9828 58.7854 24.8542 58.9906 24.7816C59.1957 24.7082 59.3803 24.6806 59.5436 24.6978C60.0701 24.7531 60.4137 25.1098 60.5761 25.7653L61.0018 27.4986Z" fill="white"/>
<path d="M18.0385 30.7794C17.8966 30.7794 17.7547 30.7785 17.6146 30.7759C17.4855 30.7734 17.3821 30.6663 17.3846 30.5359C17.3872 30.4055 17.4915 30.2984 17.6222 30.3035C17.7599 30.3061 17.8983 30.307 18.0377 30.307C18.1667 30.307 18.271 30.4124 18.271 30.5428C18.2727 30.674 18.1676 30.7794 18.0385 30.7794ZM18.8787 30.7708C18.7514 30.7708 18.6471 30.6671 18.6454 30.5384C18.6428 30.408 18.7462 30.301 18.8753 30.2984L19.295 30.2915C19.2958 30.2906 19.2975 30.2906 19.2984 30.2906C19.4258 30.2906 19.53 30.3942 19.5317 30.5229C19.5343 30.6533 19.4309 30.7613 19.3018 30.763L18.8821 30.7699C18.8813 30.7708 18.8796 30.7708 18.8787 30.7708ZM20.1378 30.7535C20.0087 30.7535 19.9044 30.6481 19.9044 30.5177C19.9044 30.3873 20.0087 30.282 20.1378 30.2811H20.2343C20.3634 30.2811 20.4685 30.3865 20.4685 30.5169C20.4685 30.6473 20.3634 30.7526 20.2343 30.7526H20.1395H20.1378V30.7535ZM16.7803 30.7397C16.7743 30.7397 16.7692 30.7397 16.7632 30.7388C16.6179 30.7284 16.4743 30.7155 16.3367 30.6999C16.2085 30.6853 16.1162 30.5687 16.1299 30.4391C16.1444 30.3087 16.2606 30.2163 16.3889 30.2301C16.5205 30.2448 16.6581 30.2578 16.7974 30.2673C16.9265 30.2768 17.0231 30.3899 17.0137 30.5195C17.0043 30.6455 16.9017 30.7397 16.7803 30.7397ZM15.5341 30.5687C15.5179 30.5687 15.5008 30.5669 15.4845 30.5635C15.3426 30.5333 15.2008 30.4979 15.0631 30.4599C14.9384 30.4253 14.8657 30.2949 14.8999 30.1688C14.9349 30.0436 15.0631 29.9702 15.1879 30.0039C15.3153 30.0401 15.4478 30.073 15.582 30.1015C15.7076 30.1291 15.7888 30.2543 15.7623 30.3821C15.7392 30.4927 15.6418 30.5687 15.5341 30.5687ZM14.334 30.187C14.3033 30.187 14.2717 30.1809 14.2417 30.1671C14.1084 30.1084 13.9751 30.0445 13.8477 29.9771C13.7332 29.9166 13.6896 29.7741 13.7486 29.6576C13.8084 29.5418 13.9494 29.4978 14.0648 29.5582C14.1828 29.6204 14.3041 29.68 14.4281 29.7336C14.5469 29.7854 14.6016 29.9253 14.5494 30.0436C14.5101 30.1343 14.4247 30.187 14.334 30.187ZM13.2434 29.5565C13.1955 29.5565 13.1468 29.5418 13.1058 29.5107C12.9904 29.4252 12.8741 29.3337 12.763 29.2387C12.6647 29.1549 12.6519 29.0055 12.7348 28.9062C12.8177 28.8069 12.9656 28.7939 13.0639 28.8777C13.1673 28.9658 13.2742 29.0496 13.3819 29.129C13.4861 29.2059 13.5092 29.3536 13.4323 29.4589C13.387 29.5228 13.3152 29.5565 13.2434 29.5565ZM9.90648 28.7836C9.78169 28.7836 9.67741 28.6834 9.67313 28.5564C9.66801 28.426 9.76887 28.3164 9.89793 28.3112C9.94836 28.3086 9.99965 28.3069 10.0509 28.3034C10.1347 28.2982 10.2193 28.2913 10.3014 28.2827C10.4287 28.2697 10.545 28.3639 10.5578 28.4934C10.5715 28.6229 10.4783 28.7395 10.3492 28.7533C10.2603 28.7628 10.1697 28.7698 10.0783 28.7749C10.0227 28.7784 9.96888 28.7818 9.91503 28.7836C9.91246 28.7827 9.90904 28.7836 9.90648 28.7836ZM9.06883 28.7585C9.06028 28.7585 9.05259 28.7577 9.04404 28.7568C8.89617 28.7413 8.75001 28.7197 8.60983 28.692C8.48333 28.667 8.40042 28.5426 8.42521 28.4148C8.45 28.287 8.57223 28.2032 8.69958 28.2283C8.82608 28.2533 8.95857 28.2732 9.09362 28.287C9.22268 28.2999 9.315 28.4165 9.30218 28.5469C9.2885 28.6678 9.18679 28.7585 9.06883 28.7585ZM12.3263 28.6903C12.2562 28.6903 12.1869 28.6584 12.1408 28.5979C12.0553 28.4848 11.9707 28.3613 11.8895 28.2309C11.8211 28.1203 11.8536 27.9744 11.963 27.9053C11.9903 27.888 12.0194 27.8776 12.0485 27.8725C12.0237 27.7826 12.0536 27.6816 12.1314 27.6211C12.2339 27.5426 12.3297 27.4553 12.4186 27.3629C12.5083 27.2696 12.6562 27.2671 12.7494 27.3577C12.8425 27.4484 12.8442 27.5978 12.7545 27.692C12.6494 27.8016 12.5357 27.9035 12.4152 27.9968C12.3869 28.0184 12.3553 28.0331 12.322 28.04C12.3844 28.1367 12.4476 28.2274 12.5117 28.312C12.5904 28.4157 12.5707 28.5642 12.4681 28.6437C12.4263 28.6748 12.3758 28.6903 12.3263 28.6903ZM11.1484 28.5979C11.0467 28.5979 10.9535 28.5305 10.9236 28.426C10.8877 28.2999 10.9604 28.1695 11.0843 28.1341C11.2134 28.097 11.339 28.0538 11.457 28.0055C11.5766 27.9562 11.7126 28.015 11.7613 28.1359C11.81 28.2568 11.7527 28.3941 11.6331 28.4433C11.4997 28.4977 11.3578 28.5469 11.2117 28.5893C11.1912 28.5953 11.1698 28.5979 11.1484 28.5979ZM7.85339 28.4519C7.82262 28.4519 7.79184 28.4459 7.76193 28.4329C7.62517 28.3742 7.49012 28.3069 7.36191 28.2334C7.24994 28.1687 7.21062 28.0245 7.27387 27.9113C7.33798 27.7973 7.48072 27.7585 7.59269 27.8224C7.70552 27.8871 7.82347 27.9459 7.94399 27.9977C8.0628 28.0486 8.11836 28.1877 8.06878 28.3069C8.03032 28.3984 7.94399 28.4519 7.85339 28.4519ZM6.80376 27.7636C6.74649 27.7636 6.68923 27.7429 6.64392 27.7006C6.53794 27.6013 6.43366 27.4925 6.33536 27.3785C6.25074 27.28 6.261 27.1306 6.35844 27.0451C6.45588 26.9596 6.60375 26.97 6.68752 27.0684C6.77555 27.1703 6.86787 27.2671 6.96274 27.3551C7.05677 27.4441 7.06189 27.5935 6.97471 27.6894C6.92941 27.7386 6.86616 27.7636 6.80376 27.7636ZM11.6955 27.5918C11.6057 27.5918 11.5202 27.5391 11.4818 27.451C11.4236 27.3189 11.3672 27.1824 11.3177 27.0451C11.2724 26.9225 11.3339 26.7869 11.4544 26.7411C11.5758 26.6953 11.71 26.7575 11.7553 26.8802C11.8032 27.008 11.8544 27.1358 11.9091 27.2593C11.9613 27.3785 11.9083 27.5175 11.7903 27.5711C11.7587 27.5849 11.7262 27.5918 11.6955 27.5918ZM13.0759 27.0779C13.0391 27.0779 13.0015 27.0693 12.9673 27.0503C12.8528 26.9898 12.81 26.8465 12.8699 26.7307C12.9297 26.6176 12.9836 26.4958 13.0306 26.3715C13.0767 26.2488 13.2118 26.1884 13.3323 26.235C13.4528 26.2817 13.5126 26.4173 13.4673 26.5399C13.4135 26.6833 13.3511 26.8223 13.2827 26.9527C13.2408 27.0322 13.1605 27.0779 13.0759 27.0779ZM6.01996 26.7739C5.94133 26.7739 5.8644 26.7333 5.81995 26.6599C5.7473 26.539 5.6755 26.4103 5.60712 26.2773C5.54729 26.1616 5.59174 26.0191 5.70542 25.9587C5.81995 25.8982 5.96098 25.9431 6.02082 26.058C6.08492 26.1824 6.15245 26.3024 6.21912 26.4147C6.28664 26.5261 6.2516 26.6712 6.14134 26.7394C6.10373 26.7618 6.06184 26.7739 6.01996 26.7739ZM11.2912 26.387C11.1852 26.387 11.0886 26.3136 11.0638 26.2048C11.0305 26.0589 11.0014 25.9129 10.9792 25.7713C10.9595 25.6426 11.0459 25.5217 11.1741 25.501C11.3014 25.4802 11.4211 25.5683 11.4416 25.697C11.4621 25.8274 11.4878 25.9613 11.5194 26.0969C11.5484 26.2238 11.4707 26.3508 11.345 26.3801C11.3271 26.3853 11.3091 26.387 11.2912 26.387ZM13.4648 25.8732C13.452 25.8732 13.4391 25.8723 13.4255 25.8697C13.2981 25.8481 13.2126 25.7264 13.2348 25.5977C13.2562 25.469 13.2742 25.3334 13.287 25.1952C13.299 25.0657 13.4126 24.9707 13.5408 24.9819C13.6699 24.994 13.7639 25.1089 13.752 25.2384C13.7383 25.3878 13.7195 25.5355 13.6956 25.6771C13.6759 25.792 13.5776 25.8732 13.4648 25.8732ZM5.46352 25.6331C5.37121 25.6331 5.28403 25.5778 5.24642 25.4863C5.19513 25.3593 5.14385 25.2237 5.09257 25.0838C5.04726 24.9612 5.10966 24.8256 5.23103 24.7807C5.35155 24.7349 5.4866 24.798 5.53105 24.9197C5.58062 25.0562 5.6302 25.1866 5.67977 25.3092C5.72849 25.4301 5.67123 25.5675 5.55071 25.6167C5.5225 25.627 5.49259 25.6331 5.46352 25.6331ZM11.157 25.1244C11.1536 25.1244 11.1501 25.1244 11.1467 25.1244C11.0176 25.1184 10.9176 25.0087 10.9236 24.8783C10.9305 24.7177 10.9484 24.5631 10.9766 24.4214C11.0023 24.2936 11.1262 24.2107 11.2518 24.2358C11.3783 24.2617 11.4604 24.386 11.4356 24.5138C11.4117 24.6322 11.3963 24.7617 11.3903 24.899C11.3843 25.026 11.2809 25.1244 11.157 25.1244ZM13.5434 24.6045C13.4178 24.6045 13.3135 24.5035 13.3101 24.3748C13.3066 24.2418 13.299 24.1028 13.2887 23.9628C13.2784 23.8324 13.375 23.7193 13.5032 23.7089C13.634 23.7003 13.7443 23.7962 13.7545 23.9266C13.7656 24.0743 13.7733 24.2202 13.7776 24.3618C13.781 24.4922 13.6793 24.6011 13.5503 24.6045C13.5477 24.6045 13.546 24.6045 13.5434 24.6045ZM5.03872 24.4344C4.94042 24.4344 4.84896 24.3713 4.81648 24.2712C4.77289 24.1364 4.73015 24.0008 4.68827 23.8653C4.64895 23.7409 4.71733 23.6088 4.84042 23.569C4.96264 23.5293 5.09428 23.5984 5.13359 23.7228C5.17548 23.8566 5.21736 23.9913 5.26095 24.1252C5.30112 24.2496 5.2336 24.3826 5.11137 24.4232C5.08658 24.4301 5.06179 24.4344 5.03872 24.4344ZM11.5553 23.9438C11.4997 23.9438 11.4433 23.924 11.398 23.8834C11.3023 23.7953 11.2954 23.6459 11.3818 23.5492C11.4963 23.4222 11.6305 23.3186 11.7826 23.2417C11.898 23.183 12.0382 23.2305 12.0963 23.3471C12.1545 23.4637 12.1074 23.6053 11.9921 23.6632C11.892 23.7141 11.8032 23.7815 11.7288 23.8653C11.6826 23.9179 11.6194 23.9438 11.5553 23.9438ZM13.1212 23.6096C13.1049 23.6096 13.0887 23.6079 13.0716 23.6044C12.9374 23.5751 12.8092 23.5569 12.6895 23.5483C12.5605 23.5397 12.463 23.4274 12.4724 23.297C12.4801 23.1666 12.5921 23.0681 12.7203 23.0776C12.8622 23.0871 13.0126 23.1087 13.169 23.1424C13.2947 23.1692 13.3759 23.2953 13.3485 23.4231C13.3263 23.5336 13.2289 23.6096 13.1212 23.6096ZM4.65665 23.221C4.55835 23.221 4.46604 23.158 4.43441 23.0578C4.39168 22.923 4.34808 22.7901 4.30364 22.6579C4.26175 22.5344 4.32757 22.4006 4.4498 22.3582C4.57203 22.3168 4.70451 22.3824 4.74639 22.5059C4.7917 22.6398 4.83529 22.7762 4.87973 22.9127C4.91991 23.037 4.85238 23.17 4.7293 23.2098C4.70537 23.2167 4.68058 23.221 4.65665 23.221Z" fill="#EC008C"/>
<path d="M67.9604 30.7794C67.8314 30.7794 67.7271 30.674 67.7271 30.5436C67.7271 30.4132 67.8322 30.3078 67.9604 30.3078C68.0998 30.3078 68.2382 30.307 68.3767 30.3044C68.3784 30.3044 68.3793 30.3044 68.381 30.3044C68.5083 30.3044 68.6117 30.408 68.6143 30.5367C68.6169 30.6671 68.5143 30.7742 68.3852 30.7768C68.2442 30.7785 68.1023 30.7794 67.9604 30.7794ZM67.1211 30.7707C67.1194 30.7707 67.1185 30.7707 67.1177 30.7707L66.6971 30.7638C66.5681 30.7612 66.4655 30.6541 66.4681 30.5237C66.4698 30.3951 66.574 30.2914 66.7014 30.2914C66.7031 30.2914 66.704 30.2914 66.7057 30.2923L67.1253 30.2992C67.2544 30.3018 67.3578 30.4089 67.3553 30.5393C67.3527 30.6671 67.2476 30.7707 67.1211 30.7707ZM65.8612 30.7535H65.7646C65.6355 30.7535 65.5312 30.6481 65.5312 30.5177C65.5312 30.3873 65.6364 30.2819 65.7646 30.2819H65.8612C65.9902 30.2828 66.0945 30.3881 66.0945 30.5186C66.0945 30.649 65.9894 30.7535 65.8612 30.7535ZM69.2195 30.7396C69.0981 30.7396 68.9955 30.6446 68.9861 30.5203C68.9767 30.3899 69.0742 30.2767 69.2024 30.2681C69.3417 30.2586 69.4793 30.2457 69.6109 30.231C69.7383 30.2163 69.8545 30.3096 69.8691 30.44C69.8836 30.5695 69.7913 30.6861 69.6622 30.7008C69.5246 30.7163 69.381 30.7293 69.2357 30.7396C69.2306 30.7396 69.2246 30.7396 69.2195 30.7396ZM70.4657 30.5686C70.3571 30.5686 70.2605 30.4926 70.2375 30.3821C70.2101 30.2543 70.2913 30.1291 70.4178 30.1014C70.5512 30.0721 70.6836 30.0401 70.8119 30.0038C70.9358 29.9693 71.0649 30.0427 71.0999 30.1688C71.1341 30.2949 71.0606 30.4253 70.9366 30.4598C70.7999 30.4978 70.658 30.5332 70.5153 30.5635C70.4982 30.5669 70.4819 30.5686 70.4657 30.5686ZM71.6649 30.1869C71.5743 30.1869 71.4888 30.1342 71.4503 30.0444C71.3991 29.9244 71.4538 29.7862 71.5717 29.7344C71.6948 29.6808 71.817 29.6221 71.935 29.5591C72.0495 29.4986 72.1906 29.5435 72.2504 29.6584C72.3102 29.7741 72.2658 29.9166 72.1521 29.9779C72.0239 30.0453 71.8905 30.1101 71.7581 30.1679C71.7281 30.1809 71.6965 30.1869 71.6649 30.1869ZM72.7564 29.5565C72.6846 29.5565 72.6128 29.5228 72.5675 29.4589C72.4914 29.3535 72.5137 29.2059 72.6179 29.129C72.7256 29.0495 72.8325 28.9658 72.9359 28.8777C73.0342 28.7939 73.1821 28.8069 73.265 28.9062C73.3479 29.0064 73.3351 29.1558 73.2359 29.2387C73.1248 29.3337 73.0094 29.4252 72.8932 29.5107C72.8521 29.5418 72.8034 29.5565 72.7564 29.5565ZM76.0933 28.7835C76.0899 28.7835 76.0873 28.7827 76.0839 28.7827C76.0301 28.781 75.9762 28.7775 75.9207 28.774C75.8292 28.7689 75.7377 28.7611 75.6497 28.7525C75.5206 28.7386 75.4283 28.622 75.4411 28.4925C75.4548 28.363 75.5694 28.2688 75.6984 28.2818C75.7805 28.2904 75.8642 28.2973 75.9497 28.3025C76.001 28.306 76.0523 28.3077 76.1027 28.3103C76.2318 28.3155 76.3318 28.4243 76.3275 28.5555C76.3224 28.6834 76.2181 28.7835 76.0933 28.7835ZM76.931 28.7585C76.8122 28.7585 76.7113 28.6687 76.6985 28.5469C76.6848 28.4165 76.778 28.3008 76.9062 28.287C77.0412 28.2731 77.1737 28.2524 77.3002 28.2282C77.4267 28.2041 77.5498 28.287 77.5746 28.4148C77.5994 28.5426 77.5165 28.667 77.3891 28.692C77.2498 28.7196 77.1028 28.7412 76.9549 28.7568C76.9472 28.7576 76.9387 28.7585 76.931 28.7585ZM73.6727 28.6903C73.6231 28.6903 73.5735 28.6747 73.5308 28.6419C73.4282 28.5625 73.4094 28.4139 73.4872 28.3103C73.5505 28.2265 73.6146 28.135 73.6761 28.0382C73.6436 28.0313 73.612 28.0166 73.5838 27.9951C73.4633 27.9018 73.3496 27.7999 73.2445 27.6902C73.1547 27.5969 73.1564 27.4467 73.2496 27.356C73.3419 27.2653 73.4906 27.267 73.5804 27.3612C73.6693 27.4544 73.7658 27.5408 73.8684 27.6194C73.9471 27.6798 73.977 27.7809 73.9513 27.8707C73.9812 27.8759 74.0094 27.8862 74.0368 27.9035C74.1462 27.9726 74.1787 28.1186 74.1112 28.2291C74.0291 28.3604 73.9445 28.4839 73.8599 28.5961C73.8129 28.6592 73.7428 28.6903 73.6727 28.6903ZM74.8505 28.5979C74.83 28.5979 74.8086 28.5953 74.7864 28.5892C74.6403 28.5469 74.4992 28.4977 74.3659 28.4433C74.2462 28.3941 74.1889 28.2567 74.2377 28.1358C74.2864 28.0149 74.4223 27.9562 74.542 28.0063C74.6591 28.0546 74.7847 28.0978 74.9138 28.135C75.0386 28.1704 75.1104 28.3008 75.0753 28.4269C75.0463 28.5305 74.9522 28.5979 74.8505 28.5979ZM78.1464 28.4519C78.0558 28.4519 77.9686 28.3975 77.931 28.3077C77.8806 28.1876 77.9361 28.0495 78.0558 27.9985C78.1763 27.9476 78.2943 27.888 78.4071 27.8232C78.5191 27.7584 78.6618 27.7982 78.7259 27.9122C78.79 28.0253 78.7499 28.1695 78.6379 28.2343C78.5097 28.3077 78.3746 28.3751 78.2379 28.4338C78.208 28.4459 78.1772 28.4519 78.1464 28.4519ZM79.1952 27.7636C79.1328 27.7636 79.0704 27.7386 79.0242 27.6885C78.9362 27.5926 78.9413 27.4432 79.0362 27.3543C79.1302 27.2662 79.2225 27.1694 79.3114 27.0675C79.396 26.9691 79.5431 26.9587 79.6405 27.0442C79.7379 27.1297 79.7473 27.2791 79.6636 27.3776C79.5653 27.4916 79.461 27.6004 79.355 27.6997C79.3097 27.7429 79.2524 27.7636 79.1952 27.7636ZM74.3043 27.5917C74.2727 27.5917 74.2402 27.5848 74.2095 27.571C74.0915 27.5183 74.0385 27.3784 74.0907 27.2593C74.1445 27.1358 74.1966 27.0079 74.2445 26.8801C74.2898 26.7575 74.4249 26.6962 74.5454 26.7411C74.6659 26.7869 74.7274 26.9224 74.6821 27.0451C74.6317 27.1824 74.5761 27.3188 74.518 27.451C74.4796 27.5391 74.3941 27.5917 74.3043 27.5917ZM72.9231 27.0779C72.8393 27.0779 72.7581 27.0321 72.7162 26.9518C72.6478 26.8214 72.5854 26.6824 72.5316 26.539C72.4854 26.4172 72.5461 26.2808 72.6666 26.2341C72.788 26.1875 72.9222 26.2488 72.9684 26.3706C73.0154 26.4967 73.0692 26.6176 73.1291 26.7307C73.1889 26.8464 73.1462 26.9889 73.0316 27.0503C72.9983 27.0684 72.9598 27.0779 72.9231 27.0779ZM79.979 26.7739C79.938 26.7739 79.8961 26.7627 79.8576 26.7394C79.7473 26.672 79.7123 26.526 79.779 26.4146C79.8465 26.3024 79.914 26.1823 79.9781 26.058C80.038 25.9422 80.179 25.8982 80.2935 25.9586C80.4081 26.0191 80.4516 26.1616 80.3918 26.2773C80.3234 26.4103 80.2508 26.539 80.179 26.6599C80.1354 26.7333 80.0585 26.7739 79.979 26.7739ZM74.7078 26.387C74.6907 26.387 74.6727 26.3844 74.6548 26.3801C74.5291 26.3507 74.4505 26.2238 74.4804 26.0968C74.512 25.9612 74.5377 25.8265 74.5582 25.697C74.5779 25.5683 74.6975 25.4802 74.8257 25.5009C74.9531 25.5208 75.0403 25.6417 75.0198 25.7712C74.9984 25.912 74.9693 26.058 74.936 26.2048C74.9104 26.3136 74.8146 26.387 74.7078 26.387ZM72.5342 25.8731C72.423 25.8731 72.3239 25.792 72.3042 25.6762C72.2803 25.5355 72.2615 25.3878 72.2478 25.2375C72.2359 25.1071 72.3307 24.9923 72.4589 24.981C72.588 24.9698 72.7017 25.0648 72.7128 25.1943C72.7256 25.3325 72.7427 25.4681 72.7649 25.5968C72.7863 25.7255 72.7008 25.8472 72.5743 25.8688C72.5607 25.8723 72.547 25.8731 72.5342 25.8731ZM80.5363 25.6331C80.5072 25.6331 80.4773 25.6279 80.4482 25.6158C80.3286 25.5674 80.2713 25.4292 80.32 25.3083C80.3696 25.1848 80.4192 25.0544 80.4687 24.9188C80.514 24.7962 80.6474 24.734 80.7688 24.7789C80.8901 24.8247 80.9525 24.9603 80.9072 25.0821C80.8568 25.222 80.8047 25.3576 80.7525 25.4854C80.7158 25.5778 80.6286 25.6331 80.5363 25.6331ZM74.8428 25.1244C74.718 25.1244 74.6155 25.0251 74.6095 24.899C74.6035 24.7617 74.5881 24.6321 74.565 24.5138C74.5394 24.386 74.6214 24.2616 74.7488 24.2357C74.8745 24.2098 74.9984 24.2927 75.024 24.4214C75.0531 24.5639 75.0702 24.7176 75.0779 24.8783C75.083 25.0087 74.9839 25.1183 74.8548 25.1244C74.8497 25.1244 74.8462 25.1244 74.8428 25.1244ZM72.4564 24.6045C72.4538 24.6045 72.4521 24.6045 72.4495 24.6045C72.3205 24.601 72.2188 24.4922 72.2222 24.3618C72.2256 24.221 72.2333 24.0751 72.2453 23.9265C72.2547 23.7961 72.3666 23.7011 72.4966 23.7089C72.6256 23.7184 72.7214 23.8324 72.7119 23.9628C72.7008 24.1036 72.694 24.2418 72.6906 24.3748C72.6863 24.5034 72.582 24.6045 72.4564 24.6045ZM80.9611 24.4344C80.9371 24.4344 80.9132 24.4309 80.8884 24.4231C80.7653 24.3825 80.6987 24.2495 80.7388 24.1252C80.7816 23.9913 80.8243 23.8566 80.8662 23.7227C80.9055 23.5984 81.0363 23.5293 81.1594 23.569C81.2825 23.6087 81.3508 23.7409 81.3124 23.8652C81.2705 24.0008 81.2278 24.1364 81.1842 24.2711C81.1508 24.3704 81.0594 24.4344 80.9611 24.4344ZM74.4437 23.9438C74.3796 23.9438 74.3163 23.9179 74.2701 23.8661C74.1958 23.7823 74.1069 23.715 74.0069 23.664C73.8915 23.6053 73.8445 23.4636 73.9026 23.3479C73.9607 23.2313 74.1009 23.1838 74.2163 23.2426C74.3684 23.3194 74.5026 23.4231 74.6172 23.55C74.7035 23.6467 74.6958 23.7961 74.6001 23.8842C74.5556 23.924 74.5001 23.9438 74.4437 23.9438ZM72.8786 23.6096C72.7701 23.6096 72.6735 23.5336 72.6504 23.4231C72.6231 23.2952 72.7043 23.1691 72.8299 23.1424C72.9863 23.1087 73.1368 23.0862 73.2786 23.0776C73.4077 23.0698 73.5188 23.1674 73.5265 23.297C73.5351 23.4274 73.4376 23.5396 73.3094 23.5483C73.1897 23.5569 73.0615 23.5751 72.9273 23.6044C72.9111 23.6079 72.8949 23.6096 72.8786 23.6096ZM81.3423 23.221C81.3184 23.221 81.2944 23.2175 81.2705 23.2097C81.1474 23.17 81.0799 23.0362 81.1201 22.9127C81.1637 22.7762 81.2081 22.6398 81.2534 22.5059C81.2944 22.3824 81.4269 22.3159 81.55 22.3582C81.6722 22.4005 81.738 22.5344 81.6962 22.6579C81.6517 22.79 81.6081 22.923 81.5654 23.0577C81.5329 23.1571 81.4414 23.221 81.3423 23.221Z" fill="#EC008C"/>
</g>
<defs>
<clipPath id="clip0_2557_114973">
<rect width="86" height="36" fill="white"/>
</clipPath>
</defs>
</svg>