<svg xmlns="http://www.w3.org/2000/svg" width="130" height="52" viewBox="0 0 130 52" fill="none">
<g clip-path="url(#clip0_2001_157)">
<path d="M130 46.799C130 49.6697 127.675 52 124.804 52H5.19584C2.32524 52 0 49.6697 0 46.799V5.20099C0 2.33028 2.32524 0 5.19584 0H124.799C127.67 0 129.995 2.33028 129.995 5.20099V46.799H130Z" fill="#D7191E"/>
<path d="M38.5673 13.6301C38.0616 12.9409 37.4121 12.5889 36.6387 12.5889C35.6372 12.5889 34.8341 13.1243 34.2391 14.1705L34.2292 14.1854C34.2292 14.1854 26.6784 29.6198 25.6818 31.6575C24.6655 29.6247 16.9461 14.1754 16.9461 14.1754L16.9312 14.1556C16.3363 13.1392 15.5034 12.6186 14.4622 12.6186C13.7185 12.6186 13.0839 12.9508 12.6228 13.5706C12.1816 14.1259 11.9585 14.8795 11.9585 15.8066V37.0073C12.0081 38.6285 12.8162 39.4367 14.3779 39.4367C15.9397 39.4367 16.7577 38.5641 16.718 36.8139C16.718 32.6491 16.718 28.4794 16.718 24.3097C18.4285 27.8894 23.0542 37.5824 23.0542 37.5824L23.0691 37.6022C23.7433 38.7723 24.6159 39.3623 25.667 39.3623C26.718 39.3623 27.6005 38.7674 28.2401 37.5873L28.25 37.5675C28.25 37.5675 32.7617 28.0084 34.4573 24.4089C34.4573 28.5736 34.4573 32.7433 34.4573 36.913C34.487 38.5889 35.2951 39.4268 36.8816 39.4268C38.4682 39.4268 39.2019 38.6186 39.2168 36.9973V15.9802C39.2168 15.0381 38.9987 14.2449 38.5772 13.6251L38.5673 13.6053V13.6301Z" fill="white"/>
<path d="M62.3253 27.2793C60.7685 23.06 58.944 18.8853 57.2633 14.7106C57.1939 14.5371 57.1047 14.3735 57.0006 14.2297C56.4106 13.2579 55.3546 12.6084 54.1448 12.6084H54.1399C53.0045 12.6084 52.003 13.1786 51.3982 14.0512C51.2544 14.2297 51.1404 14.428 51.0561 14.6511L42.9748 34.5577C42.7467 35.1229 42.4344 35.698 42.3055 36.2979C42.2609 36.4715 42.2311 36.6351 42.2212 36.7987V37.1309C42.2856 38.0779 42.9351 38.7819 43.9961 39.1835C45.4686 39.7388 46.4949 39.2133 47.065 37.597C49.182 32.0043 51.304 26.4066 53.421 20.809C53.7631 19.7331 54.0259 19.5695 54.1548 19.5695C54.2837 19.5695 54.5415 19.7331 54.8836 20.809C54.8836 20.809 56.5444 25.1275 58.131 29.2625L61.3238 37.6366C61.889 39.2282 62.9004 39.7487 64.3481 39.1984C65.4438 38.7869 66.0933 38.0481 66.1032 37.0565V37.007C66.1032 36.7045 66.0387 36.3773 65.9098 36.0253L62.3352 27.2842L62.3253 27.2793Z" fill="white"/>
<path d="M54.1498 32.6338C52.3005 32.6338 50.8032 34.146 50.8032 36.0152C50.8032 37.8844 52.3005 39.4015 54.1498 39.4015C55.9991 39.4015 57.5013 37.8893 57.5013 36.0152C57.5013 34.141 56.004 32.6338 54.1498 32.6338Z" fill="white"/>
<path d="M88.716 12.3057C87.3972 12.3057 86.3263 13.3469 86.3263 14.6359V30.4174C84.7348 28.3053 74.1448 14.2294 74.1448 14.2294V14.2195C73.2524 13.1584 72.355 12.6478 71.4031 12.6478C69.8761 12.6478 69.1027 13.8427 69.1027 16.2027V26.808C69.0928 26.9022 69.0928 27.0013 69.0928 27.1054V36.8579C69.1225 38.5238 69.9356 39.451 71.5271 39.451C73.1186 39.451 73.9118 38.5833 73.8721 36.8381V27.0906C73.8721 26.9864 73.8721 26.8823 73.8622 26.7881C73.8622 24.7256 73.8622 22.9407 73.8622 22.1771C75.3793 24.1058 86.2172 37.8842 86.2172 37.8842C86.9956 38.8858 87.8434 39.3915 88.7408 39.3915C89.4497 39.3915 91.0957 38.9948 91.0957 35.316C91.0957 28.4243 91.0957 21.5276 91.0957 14.6359C91.0957 13.3469 90.0248 12.3057 88.7061 12.3057" fill="white"/>
<path d="M106.158 32.6289H106.153C104.303 32.6289 102.806 34.1411 102.806 36.0153C102.806 37.8894 104.303 39.3966 106.153 39.3966H106.158C108.007 39.3966 109.504 37.8844 109.504 36.0153C109.504 34.1461 108.007 32.6339 106.158 32.6289Z" fill="white"/>
<path d="M117.863 36.0204C114.958 28.9254 112.082 21.8156 109.226 14.7057C109.152 14.5322 109.068 14.3735 108.964 14.2248C108.384 13.2629 107.343 12.6184 106.153 12.6035H106.103C104.968 12.6035 103.961 13.1737 103.356 14.0463C103.218 14.2248 103.099 14.4231 103.014 14.6462L94.8338 34.7908L94.3678 35.941C94.3678 35.941 94.3628 35.9559 94.3628 35.9609L94.3182 36.065C94.2538 36.298 94.2141 36.5261 94.1992 36.7393V37.0913C94.2637 38.0482 94.8884 38.7721 95.9543 39.1737C97.4268 39.734 98.4531 39.2084 99.0183 37.5871L99.3256 36.769C99.3256 36.769 99.3356 36.7542 99.3356 36.7492L105.374 20.7992C105.721 19.7183 105.979 19.5597 106.108 19.5597C106.123 19.5597 106.138 19.5597 106.153 19.5696C106.286 19.6043 106.529 19.8373 106.832 20.8041C106.832 20.8041 108.498 25.1325 110.089 29.2774L113.277 37.6317C113.842 39.2183 114.849 39.7439 116.301 39.1935C117.397 38.782 118.047 38.0433 118.056 37.0467V37.0021C118.056 36.6996 117.992 36.3724 117.863 36.0204Z" fill="white"/>
</g>
<defs>
<clipPath id="clip0_2001_157">
<rect width="130" height="52" fill="white"/>
</clipPath>
</defs>
</svg>