<svg xmlns="http://www.w3.org/2000/svg" viewBox="0 0 96 29.512"><path fill="#ec008c" d="M95.992 2.28c-.055 3.163-8.999 7.011-8.95 12.458.062 5.281 8.66 8.153 8.944 12.222a2.444 2.444 0 0 1-2.34 2.513c-3.461.152-7.337-11.932-12.37-10.195-4.672 1.613-7.698 9.855-11.768 10.229-1.281.09-2.264-1.184-2.208-2.492.166-4.021 9.691-6.61 9.622-12.278-.055-5.433-9.885-9.087-9.753-12.666A1.91 1.91 0 0 1 68.996.112c4.846-.63 7.774 10.492 12.827 10.278C86.211 10.205 89.554.176 93.59.01a2.194 2.194 0 0 1 2.408 2.257"></path><path fill="#333" d="M6.445 8.879v2.183H6.5a4.92 4.92 0 0 1 4.494-2.575 3.72 3.72 0 0 1 3.729 2.431 5.09 5.09 0 0 1 4.329-2.431c2.826 0 4.135 1.448 4.135 4.016v5.815c0 .762.193 1.174.986 1.174h.93v2.184h-7.837v-2.204h.414c.793 0 .986-.412.986-1.174v-5.005c0-.954-.462-2.348-1.723-2.348-1.482 0-1.971.844-1.971 2.059v5.87c0 .522.138.632.985.632h.359v2.183H9.043v-2.218h.386c.792 0 .985-.329.985-1.174v-5.005c0-1.373-.165-2.348-1.73-2.348s-1.971 1.174-1.971 2.458v5.492c0 .385.193.632.985.632h.442v2.183H0v-2.238h1.178c.793 0 .986-.412.986-1.174v-6.062c0-.762-.193-1.174-.986-1.174H.083V8.879zm31.37-4.347a2.16 2.16 0 0 1-1.351 1.996 2.2 2.2 0 0 1-2.378-.477 2.14 2.14 0 0 1-.459-2.358 2.18 2.18 0 0 1 2.029-1.318 2.18 2.18 0 0 1 1.546.628c.409.404.638.955.634 1.53M30.33 15.246c0 3.223.577 4.618 2.236 4.618s2.235-1.375 2.235-4.618-.576-4.618-2.235-4.618-2.236 1.374-2.236 4.618m1.389-10.714a2.17 2.17 0 0 1-2.18 2.158 2.17 2.17 0 0 1-2.18-2.158c0-1.192.976-2.157 2.18-2.157a2.18 2.18 0 0 1 1.546.628c.408.403.637.954.634 1.529m7.97 10.714c0 4.371-3.007 6.803-7.124 6.803s-7.124-2.433-7.124-6.803c0-4.371 3.013-6.789 7.124-6.789s7.124 2.433 7.124 6.803m6.429-6.381v2.183h.055a4.92 4.92 0 0 1 4.498-2.575 3.73 3.73 0 0 1 3.732 2.431 5.09 5.09 0 0 1 4.332-2.431c2.828 0 4.139 1.448 4.139 4.016v5.815c0 .762.193 1.174.986 1.174h.931v2.184h-7.857v-2.204h.414c.793 0 .986-.412.986-1.174v-5.005c0-.954-.462-2.348-1.731-2.348-1.483 0-1.973.844-1.973 2.059v5.87c0 .522.138.632.986.632h.359v2.183h-7.257v-2.218h.386c.793 0 .986-.329.986-1.174v-5.005c0-1.373-.166-2.348-1.732-2.348s-1.973 1.174-1.973 2.458v5.492c0 .385.193.632.986.632h.442v2.183h-8.126v-2.238h1.179c.793 0 .986-.412.986-1.174v-6.062c0-.762-.193-1.174-.986-1.174h-1.117V8.879zm27.126 6.461c-1.318.761-3.539.925-3.539 2.618-.042.419.112.835.417 1.125.305.292.729.427 1.149.369 1.566 0 1.973-1.145 1.973-2.289zm7.491 1.631v1.501c0 2.741-1.041 3.57-4.091 3.57a3.05 3.05 0 0 1-3.042-1.905 5.11 5.11 0 0 1-4.249 1.905c-2.608 0-4.222-1.007-4.222-3.789 0-5.153 8.147-2.125 8.147-5.695 0-1.796-1.152-2.398-2.663-2.398a4.05 4.05 0 0 0-2.166.521v.055c.821.11 1.731.548 1.731 1.501 0 1.199-1.069 1.72-2.166 1.72-1.29 0-2.387-.733-2.387-2.015 0-3.022 4.139-3.46 6.367-3.46 3.76 0 5.788.87 5.788 4.852v5.071c0 .788.083 1.09.524 1.09.607 0 .904-.356.904-1.878v-.631z"></path></svg>