<svg xmlns:xlink="http://www.w3.org/1999/xlink" xmlns="http://www.w3.org/2000/svg" width="212" height="41" viewBox="0 0 212 41" fill="none"><g clip-path="url(#clip0_275_1444)"><path d="M211.106 0.5H0V40.5H211.106V0.5Z" fill="#004F93"/><path fill-rule="evenodd" clip-rule="evenodd" d="M35.0765 31.2305V10.9424H30.7967L26.2414 17.8693C25.6276 18.8255 25.1349 19.6856 24.7633 20.4246H24.7007C24.2372 19.623 23.7445 18.8839 23.1308 18.0238L18.0494 10.9424H13.7988V31.2305H18.4794V20.7336C18.4794 20.1783 18.4794 19.3808 18.4502 18.7002H18.5128C18.9429 19.4685 19.4356 20.0864 19.8656 20.671L23.6527 25.8443H25.7153L29.0389 20.8589C29.3771 20.337 30.208 19.1344 30.3917 18.7044H30.421C30.3917 19.3182 30.3917 20.1491 30.3917 20.8881V31.2305H35.0723H35.0765Z" fill="white"/><path fill-rule="evenodd" clip-rule="evenodd" d="M52.3714 31.2307C52.125 30.429 52.125 29.2599 52.125 28.5501V16.667H47.4778V27.2265C46.8306 27.6566 46.125 27.9363 45.386 27.9363C43.6323 27.9363 42.8933 26.7046 42.8933 25.2891V16.667H38.2461V25.5021C38.2461 30.5835 41.6323 31.5355 43.5112 31.5355C45.3901 31.5355 46.8348 30.7338 47.8202 29.8444L48.4674 31.2307H52.3755H52.3714Z" fill="white"/><path fill-rule="evenodd" clip-rule="evenodd" d="M62.7064 30.6465L62.1219 27.1726C61.5373 27.3271 61.1657 27.3563 60.8609 27.3563C60.1511 27.3563 60.03 26.8344 60.03 25.9742V9.46484H55.3828V27.9742C55.3828 29.9742 56.3974 31.54 59.2325 31.54C60.1553 31.54 61.387 31.3855 62.7106 30.6465H62.7064Z" fill="white"/><path fill-rule="evenodd" clip-rule="evenodd" d="M74.2427 30.4916L73.2865 27.381C72.7312 27.5981 71.8084 27.8737 71.0402 27.8737C70.0255 27.8737 69.5913 27.4102 69.5913 26.3037V20.024H72.8857L74.18 16.667H69.5913V11.8945L64.9441 13.2181V16.667H62.2051V20.024H64.9441V27.7192C64.9441 29.9071 65.9921 31.5354 69.2531 31.5354C70.823 31.5354 72.7312 31.2265 74.2385 30.4874L74.2427 30.4916Z" fill="white"/><path fill-rule="evenodd" clip-rule="evenodd" d="M80.6927 31.2308V16.6672H76.0456V31.2308H80.6927ZM81.1562 12.2663C81.1562 10.759 79.9537 9.61914 78.3838 9.61914C76.8138 9.61914 75.6113 10.8216 75.6113 12.2663C75.6113 13.711 76.8138 14.9427 78.3838 14.9427C79.9537 14.9427 81.1562 13.711 81.1562 12.2663Z" fill="white"/><path fill-rule="evenodd" clip-rule="evenodd" d="M93.921 17.7441C93.921 19.6856 92.8145 20.7921 90.4722 20.7921H89.7957V14.7294H90.4722C92.7811 14.7294 93.921 16.1157 93.921 17.7482V17.7441ZM98.5682 17.7441C98.5682 13.2514 95.4909 10.9424 90.9649 10.9424H85.0859V31.2305H89.7957V24.5791H90.3177C96.6266 24.5791 98.5682 20.9466 98.5682 17.7441Z" fill="#62BB46"/><path fill-rule="evenodd" clip-rule="evenodd" d="M107.206 30.6465L106.622 27.1726C106.037 27.3271 105.666 27.3563 105.361 27.3563C104.651 27.3563 104.53 26.8344 104.53 25.9742V9.46484H99.8828V27.9742C99.8828 29.9742 100.897 31.54 103.732 31.54C104.655 31.54 105.887 31.3855 107.211 30.6465H107.206Z" fill="#62BB46"/><path fill-rule="evenodd" clip-rule="evenodd" d="M122.287 31.2307C122.041 30.429 122.041 29.2599 122.041 28.5501V16.667H117.394V27.2265C116.747 27.6566 116.041 27.9363 115.302 27.9363C113.548 27.9363 112.809 26.7046 112.809 25.2891V16.667H108.162V25.5021C108.162 30.5835 111.548 31.5355 113.427 31.5355C115.306 31.5355 116.751 30.7338 117.736 29.8444L118.383 31.2307H122.292H122.287Z" fill="#62BB46"/><path fill-rule="evenodd" clip-rule="evenodd" d="M135.7 26.8591C135.7 21.6858 128.802 22.3956 128.802 20.7338C128.802 20.1785 129.295 19.8737 130.435 19.8737C132.034 19.8737 133.545 20.3372 134.932 20.8883V17.072C133.608 16.6086 132.009 16.333 130.251 16.333C126.648 16.333 124.309 18.1493 124.309 20.951C124.309 25.8445 131.082 25.0136 131.082 26.9844C131.082 27.7234 130.314 28.1242 128.99 28.1242C127.666 28.1242 126.159 27.6315 124.802 26.6796L123.387 30.0032C124.773 30.8633 126.898 31.5439 129.512 31.5439C132.652 31.5439 135.7 30.2829 135.7 26.8633V26.8591Z" fill="#62BB46"/><path fill-rule="evenodd" clip-rule="evenodd" d="M155.854 29.6904L154.622 26.2415C152.99 27.135 151.42 27.6277 149.512 27.6277C145.695 27.6277 143.294 24.705 143.294 21.0682C143.294 17.8365 145.14 14.6048 149.975 14.6048C151.361 14.6048 153.144 14.8803 154.994 15.9576L155.086 11.7697C153.67 11.0599 151.729 10.7217 149.758 10.7217C142.585 10.7217 138.15 15.4649 138.15 21.2812C138.15 27.0975 141.904 31.5317 148.681 31.5317C151.081 31.5317 153.361 31.039 155.854 29.6862V29.6904Z" fill="#62BB46"/><path fill-rule="evenodd" clip-rule="evenodd" d="M165.085 27.5358C164.747 27.7529 164.1 27.9658 163.206 27.9658C161.912 27.9658 161.144 27.3813 161.144 26.3667C161.144 25.3521 161.945 24.8594 163.515 24.7967L165.085 24.7341V27.5358ZM170.104 31.231C169.858 30.4293 169.858 29.2602 169.858 28.5212V21.8698C169.858 17.9909 167.703 16.3291 163.544 16.3291C161.544 16.3291 159.54 16.6047 157.478 17.9283L158.83 20.6673C159.878 20.112 161.169 19.7738 162.463 19.7738C163.878 19.7738 165.11 20.3291 165.11 21.6819V21.803L162.772 21.8949C159.11 22.0494 156.492 23.5859 156.492 26.7299C156.492 29.6527 158.584 31.5316 161.448 31.5316C163.265 31.5316 164.526 30.8552 165.511 29.9909L166.158 31.2226H170.1L170.104 31.231Z" fill="#62BB46"/><path fill-rule="evenodd" clip-rule="evenodd" d="M182.814 17.0681C182.075 16.5462 181.152 16.3291 180.413 16.3291C178.78 16.3291 177.611 17.1308 176.471 18.1454L175.979 16.6673H172.037V31.231H176.684V21.2268C177.699 20.4585 178.346 20.2414 179.21 20.2414C179.578 20.2414 180.35 20.3333 181.181 20.8552L182.814 17.0681Z" fill="#62BB46"/><path fill-rule="evenodd" clip-rule="evenodd" d="M192.651 27.5985C192.25 27.6611 191.694 27.7195 191.202 27.7195C188.985 27.7195 187.323 25.9951 187.323 23.778C187.323 21.3145 188.801 19.9283 191.264 19.9283C191.849 19.9283 192.22 19.9575 192.651 20.0202V27.5943V27.5985ZM197.298 30.2749V9.46484H192.651V16.3918C192.158 16.3625 191.694 16.3291 191.143 16.3291C186.062 16.3291 182.709 19.469 182.709 23.9951C182.709 28.8594 186.371 31.5358 190.93 31.5358C193.669 31.5358 195.611 31.1058 197.302 30.2749H197.298Z" fill="#62BB46"/></g><defs><clipPath id="clip0_275_1444"><rect width="211.106" height="40" fill="white" transform="translate(0 0.5)"/></clipPath></defs></svg>