<svg xmlns="http://www.w3.org/2000/svg" width="123" height="27" viewBox="0 0 123 27" fill="none" class="injected-svg" data-src="/images/company-logo/logo.svg" xmlns:xlink="http://www.w3.org/1999/xlink" role="img">
<path fill-rule="evenodd" clip-rule="evenodd" d="M99.0599 0.547701L103.828 0.391602C103.828 0.391602 104.816 0.391602 105.163 0.980782C105.51 1.57018 110.972 11.3785 110.972 11.3785C110.972 11.3785 111.232 11.8809 111.51 11.8636C111.787 11.8464 112.064 11.5519 112.272 11.2224C112.48 10.8934 115.566 5.86758 115.566 5.86758C115.566 5.86758 117.422 2.81784 117.439 2.09006C117.457 1.36227 117.231 0.946242 117.145 0.842182C117.058 0.738112 116.746 0.530431 116.746 0.530431L122.711 0.495671C122.711 0.495671 121.254 1.98577 119.971 3.75375C118.688 5.52108 112.741 13.4753 112.741 13.4753C112.741 13.4753 109.637 17.8422 107.903 19.6965C107.018 20.6429 103.498 24.129 98.9029 25.5006C94.4937 26.8169 88.9853 26.0389 88.9853 26.0389C88.9853 26.0389 86.003 25.606 85.6215 24.9301C85.2402 24.2543 85.6215 24.2021 85.9507 24.15C86.2803 24.0982 88.1355 24.41 89.2281 24.549C89.7616 24.6163 91.9799 25.0379 94.5145 24.832C97.1679 24.6163 100.149 23.7619 101.071 23.3009C102.874 22.4004 105.597 20.6843 106.758 18.57C107.92 16.456 108.232 15.1215 107.937 14.2376C107.642 13.354 105.371 9.36828 104.348 7.58328C103.325 5.79848 101.584 3.09571 100.88 2.24593C100.7 2.02895 100.29 1.59476 99.9179 1.2571C99.4659 0.847052 99.0599 0.547701 99.0599 0.547701Z" fill="black"></path>
<path d="M13.7672 13.1293C7.30976 13.1293 5.11696 9.78037 5.11696 6.31307C5.11696 3.85361 6.63956 1.09747 12.3664 1.09747C18.8239 1.09747 21.0167 4.44607 21.0167 7.91347C21.0167 10.3729 19.4931 13.1293 13.7672 13.1293ZM14.376 0.0302734C5.23876 0.0302734 0 3.02376 0 7.61717C0 10.8472 3.34991 14.1962 11.7565 14.1962C20.8948 14.1962 26.1338 11.2027 26.1338 6.60927C26.1338 3.37934 22.7828 0.0302734 14.376 0.0302734Z" fill="black"></path>
<path d="M54.4442 2.72729C54.4442 1.45284 56.6379 0.919233 59.0137 0.919233C61.8153 0.919233 63.034 1.21593 65.41 2.66795C65.4705 2.04578 65.5319 1.18604 65.5319 0.652884C65.5319 0.474864 64.9229 0.415523 64.7399 0.386303C62.9124 0.178613 61.0235 0.0302734 59.1961 0.0302734C53.4701 0.0302734 49.937 0.979023 49.937 3.20155C49.937 7.58727 61.9988 6.99457 61.9988 10.6103C61.9988 12.2994 59.8662 13.1293 56.2726 13.1293C52.2517 13.1293 50.729 12.2108 48.8402 10.7287C48.7799 11.4696 48.5353 12.1809 48.5353 12.8923C48.5353 13.3066 48.9015 13.4255 49.5717 13.544C51.825 13.9587 53.8968 14.1962 56.3331 14.1962C61.5114 14.1962 67.1157 12.7739 67.1157 9.95837C67.1157 5.83877 54.4442 6.25367 54.4442 2.72729Z" fill="black"></path>
<path d="M90.1359 9.66158C90.1359 11.321 88.4301 12.6252 84.8968 12.6252C78.6223 12.6252 75.9412 9.63208 75.9412 6.93528C75.9412 3.55676 79.5962 1.06743 86.3592 1.06743C89.4656 1.06743 90.1359 1.80805 90.1359 3.20096V9.66158ZM94.6442 10.4912V0.69191C94.6442 0.69191 94.3232 0.35338 90.1359 0.11912C89.1004 0.0595601 88.0647 0 86.9679 0C77.3422 0 71.0677 2.8157 71.0677 7.55728C71.0677 10.669 74.297 14.1664 81.5458 14.1664C87.1512 14.1664 89.3439 12.6546 89.7703 12.6546C90.014 12.6546 90.0743 12.8324 90.0743 12.9214L90.319 14.0475L95.7399 13.6919C94.6443 12.892 94.6442 11.6173 94.6442 10.4912Z" fill="black"></path>
<path d="M42.0811 0.109375C36.9641 0.109375 32.3339 0.672425 32.3339 3.51734V10.4093C32.3339 11.5059 32.3339 13.1094 31.2371 13.939H37.9383C36.8423 13.1094 36.8423 11.5059 36.8423 10.4093V4.19908C36.8423 3.31033 37.0244 1.3278 39.5834 1.3278C40.9237 1.3278 42.7512 2.095 44.5173 2.095C45.5528 2.095 46.4062 1.73918 46.4062 1.17613C46.4062 0.198155 43.4819 0.109375 42.0811 0.109375Z" fill="black"></path>
</svg>