<svg width="184" height="27" viewBox="0 0 184 27" fill="none" xmlns="http://www.w3.org/2000/svg">
<path d="M0 0.00610352V26.988H7.69733V16.6943H28.3522C29.2818 16.6943 30.1732 16.3253 30.8305 15.6687C31.4878 15.012 31.857 14.1214 31.857 13.1927V3.47753C31.8571 2.5579 31.4918 1.67584 30.8415 1.025C30.1912 0.374153 29.3089 0.00770011 28.3884 0.00610352H0ZM22.2113 10.1974L7.69733 10.2275V6.34025L22.1751 6.31011C22.6934 6.31011 23.1906 6.51584 23.5571 6.88204C23.9236 7.24823 24.1296 7.74492 24.1296 8.2628C24.1296 8.78068 23.9236 9.27735 23.5571 9.64354C23.1906 10.0097 22.6934 10.2155 22.1751 10.2155" fill="white"></path>
<path d="M47.5956 6.27998H68.709V0.00610352H43.9279C39.7053 0.00610352 36.3151 3.79092 36.3151 7.6119V19.3822C36.3151 23.4201 40.0853 26.988 43.9279 26.988H68.709V20.7141H47.5534C46.5593 20.6695 45.6202 20.246 44.929 19.5308C44.2379 18.8157 43.8472 17.8631 43.8375 16.869H64.7397V10.1251H43.8375C43.8448 9.12307 44.2403 8.16284 44.941 7.44592C45.6417 6.729 46.5932 6.31112 47.5956 6.27998Z" fill="white"></path>
<path d="M102.352 0.00610352L92.2052 18.1527C92.1238 18.2997 92.0045 18.4222 91.8597 18.5075C91.7149 18.5928 91.5499 18.6377 91.3818 18.6377C91.2137 18.6377 91.0486 18.5928 90.9038 18.5075C90.759 18.4222 90.6397 18.2997 90.5584 18.1527L80.4963 0.0121362H72.2018L84.0494 22.5824C85.5032 24.9931 88.3626 27.0001 91.3787 27.0001C92.8902 26.9994 94.3727 26.5865 95.6665 25.8059C96.9602 25.0252 98.0161 23.9065 98.7202 22.5704L110.785 0.0121362L102.352 0.00610352Z" fill="white"></path>
<path d="M123.598 6.27998H144.711V0.00610352H119.936C115.713 0.00610352 112.323 3.79092 112.323 7.6119V19.3822C112.323 23.4201 116.093 26.988 119.936 26.988H144.717V20.7141H123.561C122.567 20.6709 121.627 20.2479 120.935 19.5324C120.244 18.8169 119.854 17.8636 119.846 16.869H140.748V10.1251H119.846C119.853 9.12408 120.247 8.16472 120.947 7.44797C121.646 6.73121 122.596 6.31265 123.598 6.27998Z" fill="white"></path>
<path d="M183.994 0.00603266H174.071L165.529 8.53392L156.987 0H150.87C150.589 0.00522381 150.316 0.0932776 150.086 0.253059C149.855 0.412841 149.677 0.637228 149.573 0.898003C149.433 1.19382 149.379 1.52318 149.417 1.84829C149.455 2.17341 149.585 2.48113 149.79 2.73616L160.57 13.5L149.796 24.2518C149.591 24.5068 149.461 24.8145 149.423 25.1396C149.385 25.4648 149.439 25.7941 149.579 26.0899C149.683 26.3507 149.861 26.5751 150.092 26.7349C150.322 26.8947 150.595 26.9827 150.876 26.9879H156.993L165.535 18.454L174.077 26.9879H184L170.493 13.5L183.994 0.00603266Z" fill="white"></path>
</svg>