<?xml version="1.0" encoding="utf-8"?>
<svg version="1.1" id="layer" xmlns="http://www.w3.org/2000/svg" xmlns:xlink="http://www.w3.org/1999/xlink" x="0px" y="0px"
	 viewBox="11.7 247.7 621.4 143.4" style="enable-background:new 0 0 652 652;" xml:space="preserve">
<path fill="#FFFFFF" class="st0" d="M212.1,310.2c-1,9.7-7.7,11-14.8,11h-14.4l2.3-22.1h14.5C206.7,299.1,213.1,300.5,212.1,310.2 M205,289.5h-29.1
	c-1.6,0-3.1,1.3-3.2,3l-5.1,49c-0.2,1.6,1.1,3,2.7,3h7.2c1.7,0,3.1-1.3,3.3-3l1.1-10.8h18.8c14.9,0,23.2-6.9,24.6-20.6
	C226.7,296.5,219.9,289.5,205,289.5 M243.1,309.9h-8.5c-1,0-1.9,0.8-1.9,1.8l-3.3,31.2c-0.1,1,0.6,1.8,1.6,1.8h8.5
	c1,0,1.8-0.8,2-1.8l3.3-31.2C244.8,310.6,244.2,309.9,243.1,309.9 M279.2,306.2H268l1-9.2c0.1-1-0.6-1.8-1.6-1.8h-8.5
	c-1,0-1.9,0.8-1.9,1.8l-3.3,31.8c-1.2,11.3,3.3,16.6,14.1,16.6c3.6,0,7.8-0.3,10.1-0.8c1.1-0.2,2-0.9,2.1-1.8l0.4-4.1
	c0.1-1-0.6-1.8-1.6-1.8h-1.4c-0.8,0-1.5,0.1-2.3,0.2c-0.9,0.1-1.8,0.3-2.9,0.3c-4.5,0-6.9-3.3-6.4-8.7l1.5-14.5h11.2
	c1,0,1.8-0.8,1.9-1.8l0.5-4.5C280.8,307,280.2,306.2,279.2,306.2 M313.5,306.2h-11.2l1-9.2c0.1-1-0.6-1.8-1.6-1.8h-8.5
	c-1,0-1.9,0.8-1.9,1.8l-3.3,31.8c-1.2,11.3,3.3,16.6,14.1,16.6c3.6,0,7.8-0.3,10.1-0.8c1.1-0.2,2-0.9,2.1-1.8l0.4-4.1
	c0.1-1-0.6-1.8-1.6-1.8h-1.4c-0.8,0-1.5,0.1-2.3,0.2c-0.9,0.1-1.8,0.3-2.9,0.3c-4.5,0-6.9-3.3-6.4-8.7l1.5-14.5h11.2
	c1,0,1.8-0.8,2-1.8l0.5-4.5C315.2,307,314.5,306.2,313.5,306.2 M350,334.2l-0.3,0.2c-3.9,2.3-8,3.5-12,3.5c-4.1,0-6.5-2.1-6.2-5.3
	c0.3-3.1,3.1-5.2,6.9-5.2h12.3L350,334.2z M345.8,303.2c-13.8,0-20.5,3.3-21.2,10.3c-0.1,1,0.6,1.8,1.6,1.8h5.7c1.6,0,3-0.6,4.1-1.8
	c1.6-1.8,4.6-2.8,8.1-2.8c5.9,0,8.1,2.5,7.5,8.5l-0.1,0.6h-13.2c-8.4,0-17.8,3.3-18.8,12.7c-0.8,7.9,5.3,12.8,16.1,12.8
	c5.2,0,9.6-1.3,13.9-4.2l1-0.6l-0.2,2.3c-0.1,1,0.6,1.8,1.6,1.8h7.3c1,0,1.8-0.8,2-1.8l2.5-23.6C365,305.3,353.1,303.2,345.8,303.2
	 M486,322.4c1.8,1.9,4,3.3,6.8,4.1c2.7,0.9,5.5,1.6,8.3,2.1c2.8,0.6,5.2,1.2,7.1,2c1.9,0.7,2.8,1.7,2.7,2.8
	c-0.3,2.4-3.3,4.4-9.2,4.4c-3.7,0-6.2-1.6-7.4-3.3c-1-1.3-2.4-2-4.2-2h-5.7c-0.7,0-1.3,0.2-1.8,0.6c-0.5,0.4-0.8,1-0.9,1.7
	c-0.8,7.1,5.9,10.6,20,10.6c14.1,0,21.6-4,22.5-12c0.3-2.9-0.4-5.3-2.2-7.2c-1.8-1.9-4.1-3.3-6.8-4.1c-2.8-0.9-5.5-1.6-8.3-2.1
	c-2.8-0.6-5.2-1.2-7.1-2c-1.9-0.7-2.8-1.7-2.7-2.8c0.2-2.4,2.9-4.4,8-4.4c3.7,0,6.2,1.7,7.4,3.4c1,1.3,2.4,2,4.2,2h5.7
	c0.7,0,1.3-0.2,1.8-0.6s0.8-1,0.8-1.6c0.8-7.1-5.9-10.7-19.9-10.7c-13.4,0-20.5,4-21.4,12C483.5,318.1,484.3,320.5,486,322.4
	 M532.7,322.4c1.8,1.9,4,3.3,6.8,4.1c2.7,0.9,5.5,1.6,8.3,2.1c2.8,0.6,5.2,1.2,7.1,2c1.9,0.7,2.8,1.7,2.7,2.8
	c-0.3,2.4-3.3,4.4-9.2,4.4c-3.7,0-6.2-1.6-7.4-3.3c-1-1.3-2.4-2-4.2-2H531c-0.7,0-1.3,0.2-1.8,0.6c-0.5,0.4-0.8,1-0.9,1.7
	c-0.8,7.1,5.9,10.6,20,10.6c14.1,0,21.6-4,22.5-12c0.3-2.9-0.4-5.3-2.2-7.2c-1.8-1.9-4-3.3-6.8-4.1c-2.8-0.9-5.5-1.6-8.3-2.1
	c-2.8-0.6-5.2-1.2-7.1-2c-1.9-0.7-2.8-1.7-2.7-2.8c0.2-2.4,2.9-4.4,8-4.4c3.7,0,6.2,1.7,7.4,3.4c1,1.3,2.4,2,4.2,2h5.7
	c0.7,0,1.3-0.2,1.8-0.6s0.8-1,0.8-1.6c0.8-7.1-5.9-10.7-19.9-10.7c-13.4,0-20.5,4-21.4,12C530.1,318.1,530.9,320.5,532.7,322.4
	 M430.2,305c0-7.8-6.1-15.5-13.3-15.5c-7.2,0-11.4,0-11.4,0H381c-1,0-1.9,0.2-2.7,1c-0.8,0.7-1,1.8-1.1,2.8l-5,47.6
	c-0.1,1-0.3,2.2,0.4,2.9c0.6,0.7,1.7,0.7,2.7,0.7h6.7c1,0,1.5-0.2,2.2-0.9c0.8-0.7,0.9-1.7,1-2.7l1.7-16.4h12.4
	c3.8,0,6.9,2.1,9.1,6.3l5.5,10.2c0.5,1,1.3,1.8,2.4,2.5c1.1,0.7,2.1,1,3.1,1h7.5c1,0,1.7-0.3,2-1c0.1-0.2,0.2-0.4,0.2-0.6
	c0-0.5-0.1-1.2-0.5-1.9l-5.8-11c-1.4-2.6-2.7-4.6-3.9-5.9c-1.2-1.3-2.5-2.1-3.9-2.7c0,0,0.2,0,3.3-1
	C425,317.9,430.2,312.3,430.2,305 M416.7,306.9c0,4.2-3.3,7.7-7.5,7.7h-21l1.6-15.4H409C413.2,299.2,416.7,302.7,416.7,306.9
	 M466.4,324.5c-1,9.3-4.8,13.7-11.9,13.7c-7.1,0-10-4.3-9-13.7c1-9.3,4.8-13.6,11.9-13.6C464.5,310.9,467.4,315.2,466.4,324.5
	 M458.1,303.3c-14.8,0-23.3,7.3-24.8,21.2c-1.5,13.9,5.6,21.2,20.3,21.2c14.8,0,23.3-7.3,24.8-21.2
	C480,310.6,472.9,303.3,458.1,303.3 M609.5,324.5c-1,9.3-4.8,13.7-11.9,13.7c-7.1,0-10-4.3-9-13.7c1-9.3,4.8-13.6,11.9-13.6
	C607.6,310.9,610.5,315.2,609.5,324.5 M601.2,303.3c-14.8,0-23.3,7.3-24.8,21.2c-1.5,13.9,5.6,21.2,20.3,21.2
	c14.8,0,23.3-7.3,24.8-21.2C623.1,310.6,616,303.3,601.2,303.3 M63.9,328.3c3.9-0.2,7.7-0.5,11.1-0.9c-2.9-16.2-4.8-31-3.1-36.3
	c1.9-6.3,15-4.8,27,0.2l-3.4-22.5c-25-11.1-41.3-9.1-42.6,8.6c-1.1,14.9,3.5,33.6,9.7,50.9C63,328.3,63.4,328.3,63.9,328.3
	 M77.4,344.8c-2.8-0.1-5.7-0.2-8.6-0.5c8.7,20.8,17.8,36.8,17.8,36.8s-4.2-17-8.2-36.3C78,344.8,77.7,344.8,77.4,344.8 M77.5,340.5
	c1.7,0,3.3,0.1,5,0.1c19.4,0,39.4-3.5,53.2-14.7c21-17.1-10.7-43.2-36-55.6l3.3,23c11.4,5.6,20.4,14,15.5,21.1
	c-7.3,10.6-24.7,15.4-42.7,17.5c-3.9,0.4-7.8,0.7-11.7,1c-4.8,0.3-9.4,0.4-13.9,0.4c-16.1,0-28.5-1.3-28.5-1.3s20.4,6.1,45.1,8.2
	C70.4,340.1,73.9,340.3,77.5,340.5 M242.8,295.3H238c-2.4,0-3.9,1.4-4.2,3.8l-0.1,1.3c-0.3,2.4,1,3.8,3.4,3.8h4.8
	c2.4,0,3.9-1.4,4.2-3.8l0.1-1.3C246.4,296.7,245.2,295.3,242.8,295.3"/>
</svg>
