<svg xmlns="http://www.w3.org/2000/svg" width="111" height="85" viewBox="0 0 111 85" fill="none">
<g clip-path="url(#clip0_4471_966)">
<path d="M9.88672 70.5987C9.73427 71.3464 9.27693 71.9198 8.60182 72.2538C8.11544 72.4788 7.3024 72.6022 6.19898 72.6022H5.37142L6.23528 68.537H7.19351C8.11544 68.537 8.52922 68.5806 8.95752 68.6749C9.74879 68.9 10.0827 69.6332 9.87946 70.5914M11.5346 66.5262C10.7796 66.0035 9.7996 65.822 7.767 65.822H3.97037L0.710938 81.1537H3.55659L4.79067 75.3172H5.70535C7.88314 75.3172 8.91397 75.1575 9.87946 74.6421C11.2878 73.8653 12.3839 72.3119 12.7614 70.5478C13.1389 68.7838 12.6961 67.332 11.5418 66.5189" fill="white"/>
<path d="M25.5082 73.5167C24.8839 76.464 22.2561 78.6853 19.3451 78.6853C16.4341 78.6853 14.6483 76.4059 15.2581 73.5022C15.8969 70.5259 18.6119 68.29 21.5592 68.29C24.5064 68.29 26.1398 70.5694 25.5082 73.5167ZM22.1835 65.5532C17.6101 65.5532 13.3416 69.0159 12.3979 73.5022C11.4615 77.9231 14.2853 81.4366 18.7861 81.4366C23.2869 81.4366 27.4247 77.9594 28.3757 73.4731C29.3049 69.0958 26.5536 65.5532 22.1835 65.5532Z" fill="white"/>
<path d="M33.5875 65.822H30.7419L27.4824 81.1537H35.0176L35.5983 78.4387H30.9016L33.5875 65.822Z" fill="white"/>
<path d="M35.8669 61.7422L32.6074 77.0739H37.7035L38.2842 74.3516H36.0193L38.7053 61.7422H35.8669Z" fill="white"/>
<path d="M60.7153 73.5167C60.0982 76.464 57.4631 78.6853 54.5593 78.6853C51.6556 78.6853 49.8553 76.4059 50.4651 73.5022C51.0967 70.5259 53.8116 68.29 56.7662 68.29C59.7207 68.29 61.3396 70.5694 60.7153 73.5167ZM57.3905 65.5532C52.8244 65.5532 48.5559 69.0159 47.6049 73.5022C46.6685 77.9231 49.4923 81.4366 54.0004 81.4366C58.5084 81.4366 62.639 77.9594 63.5972 73.4731C64.5264 69.0958 61.7751 65.5532 57.3905 65.5532Z" fill="white"/>
<path d="M66.2487 77.6038C66.3141 78.5911 66.6843 79.0048 67.4974 79.0048C68.216 79.0048 68.8694 78.5257 69 77.8724C69.0799 77.5022 68.9637 77.1828 68.6661 76.9795C68.4193 76.7908 68.3322 76.7472 67.3449 76.3915C65.2034 75.6147 64.4847 74.6493 64.8477 72.9578C65.2615 70.9615 67.2941 69.4153 69.4574 69.4153C70.6116 69.4153 71.5989 69.8726 72.1651 70.6929C72.5861 71.3245 72.7023 71.9125 72.5353 72.8925H69.8058C69.8058 72.29 69.5009 71.9706 68.9129 71.9706C68.3249 71.9706 67.7514 72.3843 67.6353 72.9578C67.5627 73.2918 67.6934 73.5676 68.0345 73.7346C68.1991 73.8168 68.6346 73.9741 69.3412 74.2064C70.2777 74.5258 70.9092 74.8162 71.2649 75.1864C71.8602 75.7599 72.0562 76.5947 71.8384 77.6038C71.3666 79.8251 69.1743 81.5601 66.8513 81.5601C65.443 81.5601 64.2524 80.9576 63.7152 79.9486C63.3886 79.3243 63.316 78.7362 63.4394 77.6038H66.2487Z" fill="white"/>
<path d="M88.3465 75.4477C87.9328 77.4295 89.087 79.0048 90.9599 79.0048C92.8328 79.0048 94.6549 77.4295 95.0687 75.4913C95.4824 73.5603 94.3064 71.9632 92.4408 71.9632C90.5751 71.9632 88.7531 73.5385 88.3465 75.4477ZM97.8708 75.5711C97.1739 78.8378 93.7765 81.5601 90.4009 81.5601C87.0253 81.5601 84.8185 78.8378 85.5299 75.4913C86.2341 72.1592 89.5879 69.408 92.9635 69.408C96.339 69.408 98.5894 72.1084 97.8635 75.5711" fill="white"/>
<path d="M106.661 65.8074L105.826 69.6766L105.289 72.2174L103.365 81.2915H106.153L108.077 72.2174H109.761L110.291 69.6766H108.621L109.441 65.8074H106.661Z" fill="white"/>
<path d="M48.7886 68.537L49.362 65.822H41.1227L38.807 76.74L37.8633 81.1537H46.1099L46.6834 78.4387H41.2897L42.2261 74.0251H46.2768L46.8648 71.3101H42.7996L43.3949 68.537H48.7886Z" fill="white"/>
<path d="M98.6882 74.2572L97.1855 81.2915H99.9731L101.352 74.8307C101.737 73.0304 102.746 72.1302 104.43 72.0867L104.989 69.4661C101.476 69.6548 99.3924 70.9542 98.6955 74.2572" fill="white"/>
<path d="M82.2266 75.5057C81.8055 77.473 80.0342 79.0047 78.1904 79.0047C76.2158 79.0047 75.0761 77.502 75.5044 75.4622C75.9255 73.4731 77.7185 71.9632 79.6495 71.9632C81.5805 71.9632 82.6476 73.4949 82.2266 75.5057ZM80.5424 69.4079C77.0579 69.4079 73.7041 71.6147 72.9128 75.346L70.9746 84.4419H73.7622L74.6696 80.1952C75.5117 81.1317 76.5135 81.5527 77.9436 81.5527C81.2901 81.5527 84.2955 78.9612 85.0359 75.4404C85.7909 71.9414 83.8962 69.4006 80.5351 69.4006" fill="white"/>
<path d="M55.4449 40.9661C55.169 40.8209 54.8351 40.8209 54.5592 40.9661L45.3544 45.8879C44.8971 46.1347 44.7229 46.7009 44.9697 47.1583L48.0694 52.9439C48.2291 53.2488 48.5485 53.4376 48.897 53.4376H61.1071C61.4556 53.4376 61.7677 53.2488 61.9347 52.9439L65.0344 47.1583C65.2813 46.7009 65.107 46.1347 64.6497 45.8879L55.4449 40.9661Z" fill="white"/>
<path d="M47.1556 16.8142C47.7364 17.1264 48.1138 17.5329 48.1792 18.3169L48.9051 26.6651C48.9487 27.1515 49.3552 27.5217 49.8343 27.5217H60.1498C60.6362 27.5217 61.0427 27.1515 61.0863 26.6651L61.8122 18.3169C61.8775 17.5329 62.255 17.1264 62.8357 16.8142L73.8772 10.9051C74.3345 10.6656 74.5087 10.0921 74.2619 9.63474L69.4562 0.654967C69.2094 0.19763 68.6505 0.0234067 68.1931 0.270224C66.313 1.27927 58.5237 5.44612 55.8741 6.86168C55.3224 7.15932 54.6618 7.15932 54.11 6.86168L41.8055 0.270224C41.3482 0.0234067 40.7819 0.19763 40.5351 0.654967L35.7295 9.63474C35.4826 10.0921 35.6569 10.6583 36.1142 10.9051L47.1629 16.8142H47.1556Z" fill="white"/>
<path d="M69.3264 28.6468L82.6909 21.4964C83.1482 21.2568 83.3224 20.6834 83.0756 20.226L79.4387 13.4313C79.1919 12.9667 78.6184 12.7925 78.1538 13.0393L75.4025 14.5129C69.1159 17.8813 64.6587 23.8775 63.2431 30.8682C63.1851 31.1658 62.9745 31.4199 62.6987 31.5433L57.7986 33.6485C57.4575 33.7937 57.2324 34.1349 57.2324 34.5051V36.9225C57.2324 37.2709 57.4212 37.5831 57.7261 37.75L73.7474 46.4467C74.2047 46.6935 74.7782 46.5265 75.0178 46.0692L79.8234 37.0894C80.063 36.6393 79.896 36.0731 79.4459 35.8263L69.3119 30.2874C68.6586 29.9317 68.6658 28.988 69.3192 28.6396" fill="white"/>
<path d="M40.6817 28.6468L27.3173 21.4964C26.86 21.2568 26.6858 20.6834 26.9326 20.226L30.5695 13.4313C30.8163 12.9667 31.3898 12.7925 31.8544 13.0393L34.6057 14.5129C40.8922 17.8813 45.3495 23.8775 46.765 30.8682C46.8231 31.1658 47.0336 31.4199 47.3095 31.5433L52.2095 33.6485C52.5507 33.7937 52.7758 34.1349 52.7758 34.5051V36.9225C52.7758 37.2709 52.587 37.5831 52.2821 37.75L36.2608 46.4467C35.8035 46.6935 35.23 46.5265 34.9904 46.0692L30.1848 37.0894C29.9452 36.6393 30.1122 36.0731 30.5622 35.8263L40.6962 30.2874C41.3496 29.9317 41.3423 28.988 40.689 28.6396" fill="white"/>
</g>
<defs>
<clipPath id="clip0_4471_966">
<rect width="109.579" height="84.288" fill="white" transform="translate(0.710938 0.161377)"/>
</clipPath>
</defs>
</svg>