<svg xmlns="http://www.w3.org/2000/svg" width="132" height="30" viewBox="0 0 132 30" fill="none">
<g clip-path="url(#clip0)">
<path d="M15.6731 0.0537653H0V6.46344H3.66237V22.9441H0V29.3538H17.9355V22.9441H10.9871V19.2817H15.6731C20.628 19.2817 25.8527 15.9957 25.8527 9.47746C25.8527 4.14731 22.2441 0.0537653 15.6731 0.0537653ZM13.8957 13.357H10.9871V6.46344H13.8957C15.1344 6.46344 18.2581 6.46344 18.2581 9.96345C18.2581 12.2827 16.8043 13.357 13.8957 13.357ZM42.9258 8.99462V16.2688H36.2473V23.9171H40.1796V29.3569H26.229V23.9171H28.9763V14.4344H26.3914L26.6022 8.99462H34.7893L36.028 13.357C37.8055 10.9871 40.4442 8.99462 42.9216 8.99462H42.9258ZM96.3559 15.2419V23.914H98.6752V29.3538H86.8215V23.914H89.0818V16.8043C89.0818 15.6731 88.2205 14.8656 86.7625 14.8656C85.3045 14.8656 84.1765 15.2419 82.884 16.0505V23.914H84.7152V29.3538H73.7871V23.914H75.6183V16.8043C75.6183 15.6731 74.8108 14.8656 73.299 14.8656C71.899 14.8656 70.7141 15.2419 69.4753 16.0505V23.914H71.7377V29.3538H59.8914V23.914H62.1538V14.4344H59.8914V8.99462H67.971L69.1011 13.0333C71.0409 10.2333 73.6796 8.34838 76.4806 8.34838C80.1968 8.34838 82.1355 9.80216 82.728 12.9806C84.7204 10.4505 87.1979 8.34838 89.9452 8.34838C94.4151 8.34838 96.3538 10.3946 96.3538 15.2419H96.3559ZM120.538 22.6215V16.0505C120.538 13.9495 120.053 8.34838 109.981 8.34838C107.767 8.34838 104.002 8.55923 101.04 9.5871V15.5656C103.675 14.5957 106.911 14.4344 108.63 14.4344C113.315 14.4344 113.315 16.1581 113.315 17.1817V17.3926H108.796C106.266 17.3926 99.8011 17.7151 99.8011 23.7474C99.8011 27.356 102.063 29.9958 106.641 29.9958C109.711 29.9958 112.134 28.541 113.428 25.2518C113.804 28.8604 115.798 31.1217 122.26 29.3453V24.3441C121.184 24.3441 120.538 24.2903 120.538 22.6204V22.6215ZM108.849 24.8796C107.611 24.8796 106.749 24.3409 106.749 23.2635C106.749 22.1861 107.557 21.3796 109.28 21.3796H113.318V21.485C112.565 23.8043 110.572 24.8775 108.848 24.8775L108.849 24.8796ZM54.8828 8.67098V23.914H57.5753V29.3538H44.9183V23.914H47.6656V14.7032L44.9183 14.9194V9.31827L54.8828 8.67098ZM47.6087 6.46344H54.8259V0H47.6118L47.6087 6.46344ZM124.088 29.4613H131.305V22.9979H124.088V29.4613Z" fill="#FFFFFF"/>
</g>
<defs>
<clipPath id="clip0">
<rect width="131.309" height="30" fill="white"/>
</clipPath>
</defs>
</svg>