<svg xmlns="http://www.w3.org/2000/svg" id="Layer_1" data-name="Layer 1" width="249.94" height="26.87" viewBox="0 0 249.94 26.87">
  <title>logo</title>

  <!-- NOTE: flutter_svg can ignore <style> fills in <defs>.
       Using explicit fill attributes ensures correct colors. -->

  <path fill="#FFFFFF" d="M80.09,125.07l2.31-3.88a15,15,0,0,0,6.72,1.73c2.84,0,4.74-1,5-2.63,0.63-4.47-12.85-2-11.58-11,0.64-4.54,4.39-7.31,9.89-7.31a18.4,18.4,0,0,1,7.92,1.84l-2.24,3.84a16.29,16.29,0,0,0-6-1.38c-2.6,0-4.4,1-4.63,2.63-0.64,4.54,12.76,2.35,11.54,11-0.65,4.61-4.63,7.31-10.41,7.31a16.91,16.91,0,0,1-8.46-2.15" transform="translate(-80.09 -101)"/>
  <path fill="#FFFFFF" d="M116,102.45a6.56,6.56,0,0,1,6.36,7.72c-0.57,4-4.42,7.79-8.44,7.79H108l-1.23,8.72H102l3.41-24.24H116Zm-7.37,11h5.82c1.42,0,2.84-1.77,3.06-3.29,0.36-2.53-1.56-3.15-3.61-3.15h-4.37Z" transform="translate(-80.09 -101)"/>
  <path fill="#FFFFFF" d="M138.3,101.94c7,0,11.64,5.64,10.67,12.57-1,7.34-7.71,12.71-14.22,12.71-7,0-11.82-5.58-10.82-12.71a14.93,14.93,0,0,1,14.37-12.57m-2.95,21c4.37,0,7.77-3.5,8.45-8.38s-1.79-8.21-6.29-8.21c-4.33,0-7.8,3.46-8.46,8.21s1.84,8.38,6.3,8.38" transform="translate(-80.09 -101)"/>
  <path fill="#FFFFFF" d="M165.76,102.46a6.34,6.34,0,0,1,6.37,7.44,8.9,8.9,0,0,1-5.54,6.89l4.11,9.9h-5.61l-3.53-9.35H157.5l-1.31,9.35h-4.85l3.41-24.24h11ZM158.12,113h6.16c1.38,0,2.86-1.63,3.06-3.08,0.36-2.53-1.84-2.94-3.74-2.94H159Z" transform="translate(-80.09 -101)"/>
  <polygon fill="#FFFFFF" points="114.76 1.46 114.13 5.96 106.68 5.96 103.91 25.7 99.09 25.7 101.86 5.96 94.39 5.96 95.02 1.46 114.76 1.46"/>
  <path fill="#FFFFFF" d="M247.65,101.94c7,0,11.64,5.64,10.67,12.57-1,7.34-7.71,12.71-14.22,12.71-7,0-11.82-5.58-10.82-12.71a14.93,14.93,0,0,1,14.37-12.57m-2.94,21c4.36,0,7.76-3.5,8.45-8.38s-1.79-8.21-6.29-8.21c-4.33,0-7.8,3.46-8.46,8.21s1.83,8.38,6.3,8.38" transform="translate(-80.09 -101)"/>
  <polygon fill="#FFFFFF" points="189.03 1.46 194.52 12.43 196.92 18.01 196.99 18.01 197.71 11.39 199.11 1.46 203.96 1.46 200.55 25.7 195.56 25.7 190.13 14.09 187.68 8.8 187.62 8.8 187.03 14.48 185.45 25.7 180.6 25.7 184.01 1.46 189.03 1.46"/>
  <path fill="#FFFFFF" d="M294,102.46l-2.13,15.17c-0.37,2.67,1.58,4.5,4.53,4.5a5.54,5.54,0,0,0,5.76-4.5l2.13-15.17H309l-2.11,15.06c-0.75,5.37-4.86,9.18-11.16,9.18s-9.33-3.81-8.58-9.18l2.12-15.06H294Z" transform="translate(-80.09 -101)"/>
  <path fill="#FFFFFF" d="M309.79,125.07l2.31-3.88a15,15,0,0,0,6.72,1.73c2.84,0,4.74-1,5-2.63,0.63-4.47-12.84-2-11.57-11,0.64-4.54,4.38-7.31,9.89-7.31a18.41,18.41,0,0,1,7.92,1.84l-2.24,3.84a16.29,16.29,0,0,0-6-1.38c-2.6,0-4.4,1-4.63,2.63-0.64,4.54,12.76,2.35,11.54,11-0.65,4.61-4.63,7.31-10.41,7.31a16.93,16.93,0,0,1-8.46-2.15" transform="translate(-80.09 -101)"/>
  <path fill="#FFFFFF" d="M230.46,109.35A6.57,6.57,0,0,0,229,104a7,7,0,0,0-5.42-2.26H213.47l-1.2,8.52h4.33l0.62-4.41h5.89a3.1,3.1,0,0,1,2.4,1,3.07,3.07,0,0,1,.66,2.49,3.5,3.5,0,0,1-3.61,3.13h-4.19l-0.63,4h5a3.35,3.35,0,0,1,2.55,1.08,2.86,2.86,0,0,1,.66,2.3,3.91,3.91,0,0,1-1.37,2.34,4.25,4.25,0,0,1-2.71,1.13h-5.26L216,127.45h5.35a9.33,9.33,0,0,0,6.07-2.3,8.48,8.48,0,0,0,2.85-5.16,5.64,5.64,0,0,0-2.58-5.79,7.25,7.25,0,0,0,2.77-4.85" transform="translate(-80.09 -101)"/>
  <path fill="#F6921E" d="M216.69,112.54h-4.75l-0.19.62a21.28,21.28,0,0,1-2.76,6c-1.25-1.56-2.81-3.57-4.24-5.39,4-1.88,5.91-4,6.31-6.81a5.08,5.08,0,0,0-1.15-4.19,6,6,0,0,0-4.59-1.81,8.64,8.64,0,0,0-5.69,2,7.86,7.86,0,0,0-2.7,4.76,7.56,7.56,0,0,0,1.13,5c-3.45,1.84-5.43,4.34-5.87,7.43a6.48,6.48,0,0,0,1.52,5.28c1,1.09,2.86,2.4,6.24,2.4a13.44,13.44,0,0,0,7.95-2.52c0.68,0.8,1.17,1.36,1.66,1.89l0.21,0.22H216l-1.09-1.29-1-1.2h0l-2.24-2.63a22.91,22.91,0,0,0,4.76-8.88Zm-15-5a3.47,3.47,0,0,1,1.13-2.19,2.7,2.7,0,0,1,1.81-.64,1.82,1.82,0,0,1,1.42.54,2.34,2.34,0,0,1,.44,1.83c-0.23,1.58-1.73,2.69-3.93,3.84a4.76,4.76,0,0,1-.87-3.38m-0.62,16.38a4.14,4.14,0,0,1-3.15-1.23,3.53,3.53,0,0,1-.78-2.92,5.85,5.85,0,0,1,3-4c2.09,2.64,4.15,5.14,5.41,6.66a7.73,7.73,0,0,1-4.53,1.5" transform="translate(-80.09 -101)"/>
</svg>