<svg xmlns="http://www.w3.org/2000/svg" width="234" height="34" viewBox="0 0 234 34" fill="none">
<g clip-path="url(#clip0_384_9226)">
<path d="M136.781 0H0V34H136.781V0Z" fill="#FF6D00"/>
<path d="M40.2025 13.8452C40.2025 13.9892 40.0651 14.0852 39.9276 14.0132C39.2175 13.6053 38.1638 13.2214 37.2933 13.2214C36.3312 13.2214 35.9875 13.6293 35.9875 14.1092C35.9875 14.4451 36.3082 14.805 36.858 15.1169L38.3928 16.0287C40.1796 17.1085 40.9127 18.4282 40.9127 20.0598C40.9127 22.3872 39.4924 24.4987 36.2166 24.4987C35.0483 24.4987 33.8801 24.2588 33.0096 23.9229C32.8721 23.8749 32.7576 23.7309 32.7576 23.5629V20.3717C32.7576 20.2277 32.9179 20.1317 33.0325 20.2037C33.8113 20.7316 35.0025 21.1875 36.0563 21.1875C36.858 21.1875 37.3162 20.8756 37.3162 20.2757C37.3162 19.9398 37.0642 19.6279 36.4228 19.268L34.8193 18.3082C32.9409 17.1804 32.3682 15.9087 32.3682 14.2291C32.3682 12.1656 33.5823 9.91016 37.3162 9.91016C38.1638 9.91016 39.1259 10.0781 39.9505 10.39C40.088 10.438 40.1796 10.582 40.1796 10.75V13.8452H40.2025Z" fill="white"/>
<path d="M45.0593 13.5576H42.3104C42.1042 13.5576 41.9438 13.3896 41.9438 13.1737V10.5343C41.9438 10.3184 42.1042 10.1504 42.3104 10.1504H51.1756C51.3817 10.1504 51.5421 10.3184 51.5421 10.5343V13.1737C51.5421 13.3896 51.3817 13.5576 51.1756 13.5576H48.4267V23.8992C48.4267 24.1151 48.2663 24.2831 48.0601 24.2831H45.4258C45.2196 24.2831 45.0593 24.1151 45.0593 23.8992V13.5576Z" fill="white"/>
<path d="M63.3623 10.1504C63.5685 10.1504 63.7288 10.3184 63.7288 10.5343V18.8363C63.7288 22.4355 61.6901 24.523 58.4601 24.523C55.2302 24.523 53.1914 22.4355 53.1914 18.8363V10.5343C53.1914 10.3184 53.3518 10.1504 53.5579 10.1504H56.1923C56.3985 10.1504 56.5588 10.3184 56.5588 10.5343V19.1243C56.5588 20.276 57.2689 21.0678 58.4601 21.0678C59.6513 21.0678 60.3614 20.252 60.3614 19.1243V10.5343C60.3614 10.3184 60.5218 10.1504 60.728 10.1504H63.3623Z" fill="white"/>
<path d="M66.2944 10.5343C66.2944 10.3184 66.4548 10.1504 66.661 10.1504H71.4257C75.572 10.1504 78.1147 13.0777 78.1147 17.2287C78.1147 21.3558 75.572 24.3071 71.4257 24.3071H66.661C66.4548 24.3071 66.2944 24.1391 66.2944 23.9231V10.5343ZM69.6618 13.5576V20.8759H71.3799C73.5332 20.8759 74.6328 19.2922 74.6328 17.2287C74.6328 15.1652 73.5332 13.5816 71.3799 13.5816H69.6618V13.5576Z" fill="white"/>
<path d="M80.0615 23.8992V10.5343C80.0615 10.3184 80.2219 10.1504 80.428 10.1504H88.3311C88.5373 10.1504 88.6976 10.3184 88.6976 10.5343V13.1737C88.6976 13.3896 88.5373 13.5576 88.3311 13.5576H83.4289V15.4531H87.9417C88.1479 15.4531 88.3082 15.6211 88.3082 15.8371V18.4764C88.3082 18.6924 88.1479 18.8603 87.9417 18.8603H83.4289V20.8759H88.3311C88.5373 20.8759 88.6976 21.0438 88.6976 21.2598V23.8992C88.6976 24.1151 88.5373 24.2831 88.3311 24.2831H80.428C80.2448 24.2831 80.0615 24.1151 80.0615 23.8992Z" fill="white"/>
<path d="M94.539 17.0848V23.8992C94.539 24.1151 94.3787 24.2831 94.1725 24.2831H91.5381C91.332 24.2831 91.1716 24.1151 91.1716 23.8992V11.998L90.3011 10.4863C90.2095 10.3423 90.324 10.1504 90.4844 10.1504H94.0122C94.1267 10.1504 94.2641 10.2224 94.3329 10.3184L99.1893 18.1165V10.5343C99.1893 10.3184 99.3496 10.1504 99.5558 10.1504H102.19C102.396 10.1504 102.557 10.3184 102.557 10.5343V23.8992C102.557 24.1151 102.396 24.2831 102.19 24.2831H99.4183C99.2809 24.2831 99.1434 24.2111 99.0747 24.0911L94.539 17.0848Z" fill="white"/>
<path d="M112.796 21.7157H108.284L107.55 24.0191C107.505 24.1871 107.367 24.2831 107.207 24.2831H104.229C103.977 24.2831 103.794 24.0191 103.885 23.7552L108.581 10.3903C108.627 10.2464 108.765 10.1504 108.925 10.1504H112.178C112.338 10.1504 112.476 10.2464 112.521 10.3903L117.217 23.7552C117.309 23.9951 117.126 24.2831 116.874 24.2831H113.896C113.736 24.2831 113.598 24.1871 113.552 24.0191L112.796 21.7157ZM109.406 18.3085H111.697L110.551 14.7573L109.406 18.3085Z" fill="white"/>
<path d="M126.93 24.0188C126.106 24.3548 125.166 24.5227 124.181 24.4987C119.531 24.4027 116.622 20.4917 117.515 15.7168C118.134 12.3336 120.86 9.91016 124.319 9.91016C125.235 9.91016 126.129 10.0781 126.93 10.39C127.068 10.438 127.159 10.582 127.159 10.75V14.0612C127.159 14.2531 126.953 14.3491 126.816 14.2531C126.174 13.7732 125.327 13.4613 124.342 13.4613C122.349 13.4613 120.86 15.1889 120.86 17.2524C120.883 19.6039 122.99 21.3315 125.212 20.8996C125.854 20.7796 126.403 20.5157 126.839 20.2037C126.976 20.1078 127.182 20.2037 127.182 20.3957V23.6589C127.159 23.8269 127.068 23.9709 126.93 24.0188Z" fill="white"/>
<path d="M234 0H136.781V34H234V0Z" fill="#239B11"/>
<path d="M218.217 13.5576H215.468C215.262 13.5576 215.102 13.3896 215.102 13.1737V10.5343C215.102 10.3184 215.262 10.1504 215.468 10.1504H224.333C224.539 10.1504 224.7 10.3184 224.7 10.5343V13.1737C224.7 13.3896 224.539 13.5576 224.333 13.5576H221.584V23.8992C221.584 24.1151 221.424 24.2831 221.218 24.2831H218.583C218.377 24.2831 218.217 24.1151 218.217 23.8992V13.5576Z" fill="white"/>
<path d="M204.678 23.8992V10.5343C204.678 10.3184 204.839 10.1504 205.045 10.1504H212.948C213.154 10.1504 213.314 10.3184 213.314 10.5343V13.1737C213.314 13.3896 213.154 13.5576 212.948 13.5576H208.046V15.4531H212.558C212.765 15.4531 212.925 15.6211 212.925 15.8371V18.4764C212.925 18.6924 212.765 18.8603 212.558 18.8603H208.046V20.8759H212.948C213.154 20.8759 213.314 21.0438 213.314 21.2598V23.8992C213.314 24.1151 213.154 24.2831 212.948 24.2831H205.045C204.839 24.2831 204.678 24.1151 204.678 23.8992Z" fill="white"/>
<path d="M172.791 21.7157H168.279L167.546 24.0191C167.5 24.1871 167.362 24.2831 167.202 24.2831H164.224C163.972 24.2831 163.789 24.0191 163.88 23.7552L168.576 10.3903C168.622 10.2464 168.76 10.1504 168.92 10.1504H172.173C172.333 10.1504 172.471 10.2464 172.517 10.3903L177.213 23.7552C177.304 23.9951 177.121 24.2831 176.869 24.2831H173.891C173.731 24.2831 173.593 24.1871 173.547 24.0191L172.791 21.7157ZM169.378 18.3085H171.692L170.546 14.7573L169.378 18.3085Z" fill="white"/>
<path d="M146.012 23.8272L148.166 10.4623C148.189 10.2704 148.349 10.1504 148.532 10.1504H151.419C151.579 10.1504 151.716 10.2464 151.762 10.3903L154.397 17.6846L157.191 10.3903C157.237 10.2464 157.375 10.1504 157.535 10.1504H160.467C160.65 10.1504 160.811 10.2944 160.834 10.4863L162.735 23.8512C162.758 24.0911 162.597 24.2831 162.368 24.2831H159.619C159.436 24.2831 159.276 24.1391 159.253 23.9471L158.291 16.149L155.13 24.0431C155.061 24.1871 154.946 24.2831 154.786 24.2831H153.938C153.778 24.2831 153.664 24.1871 153.595 24.0431L150.571 16.149L149.471 23.9471C149.449 24.1391 149.288 24.2831 149.105 24.2831H146.379C146.15 24.2831 145.967 24.0671 146.012 23.8272Z" fill="white"/>
<path d="M183.627 10.1504C184.634 10.1504 185.94 10.3184 186.925 11.3981C187.704 12.2139 188.071 13.4616 188.071 14.5654C188.071 15.7651 187.658 16.8448 186.994 17.5167C186.467 18.0445 185.757 18.3565 185.138 18.5004L189.033 23.8512C189.17 24.0431 189.033 24.3071 188.827 24.3071H185.207C185.093 24.3071 184.978 24.2351 184.909 24.1391L181.656 18.8603V23.8992C181.656 24.1151 181.496 24.2831 181.29 24.2831H178.656C178.449 24.2831 178.289 24.1151 178.289 23.8992V10.5343C178.289 10.3184 178.449 10.1504 178.656 10.1504H183.627ZM181.656 16.4849H182.321C182.848 16.4849 183.604 16.3409 184.016 15.909C184.268 15.6451 184.451 15.1652 184.451 14.7333C184.451 14.3014 184.291 13.8455 183.993 13.5576C183.672 13.2217 183.077 13.0057 182.321 13.0057H181.656V16.4849Z" fill="white"/>
<path d="M194.256 15.981L198.425 10.2944C198.493 10.1984 198.608 10.1504 198.723 10.1504H202.319C202.548 10.1504 202.663 10.4143 202.525 10.6063L197.531 16.8448L203.029 23.8272C203.167 23.9951 203.052 24.2831 202.823 24.2831H199.02C198.906 24.2831 198.791 24.2351 198.723 24.1391L194.256 18.1645V23.8992C194.256 24.1151 194.095 24.2831 193.889 24.2831H191.255C191.049 24.2831 190.888 24.1151 190.888 23.8992V10.5343C190.888 10.3184 191.049 10.1504 191.255 10.1504H193.889C194.095 10.1504 194.256 10.3184 194.256 10.5343V15.981Z" fill="white"/>
<path d="M24.6945 15.6932L24.557 15.6692H22.4266L24.5112 13.3418C24.8548 12.9579 24.8777 12.43 24.5799 12.1421C24.4654 12.0221 24.3051 11.9501 24.1218 11.9501C23.8927 11.9501 23.6407 12.0701 23.4346 12.286L20.3879 15.6452H12.0496L9.00285 12.286C8.79669 12.0701 8.54471 11.9501 8.31563 11.9501C8.15528 11.9501 7.99493 11.9981 7.85748 12.1421C7.55968 12.43 7.6055 12.9579 7.9262 13.3418L10.0108 15.6692H7.74294V15.6932C7.51387 15.7652 7.35352 15.9572 7.35352 16.2211V17.4208C7.35352 17.7327 7.58259 17.9727 7.88039 17.9727H8.20109L9.59845 25.195C9.66717 25.6029 10.0337 25.8908 10.4231 25.8908H22.0372C22.4266 25.8908 22.7932 25.6029 22.8619 25.195L24.2592 17.9727H24.5799C24.8777 17.9727 25.1068 17.7327 25.1068 17.4208V16.2211C25.1068 15.9812 24.9236 15.7652 24.6945 15.6932ZM13.928 23.1555C13.928 23.5874 13.6073 23.9233 13.1949 23.9233C12.7826 23.9233 12.4619 23.5874 12.4619 23.1555V19.2204C12.4619 18.7885 12.7826 18.4526 13.1949 18.4526C13.6073 18.4526 13.928 18.7885 13.928 19.2204V23.1555ZM16.9747 23.1555C16.9747 23.5874 16.654 23.9233 16.2416 23.9233C15.8293 23.9233 15.5086 23.5874 15.5086 23.1555V19.2204C15.5086 18.7885 15.8293 18.4526 16.2416 18.4526C16.654 18.4526 16.9747 18.7885 16.9747 19.2204V23.1555ZM19.9984 23.1555C19.9984 23.5874 19.6777 23.9233 19.2654 23.9233C18.8531 23.9233 18.5324 23.5874 18.5324 23.1555V19.2204C18.5324 18.7885 18.8531 18.4526 19.2654 18.4526C19.6777 18.4526 19.9984 18.7885 19.9984 19.2204V23.1555ZM22.2663 7.79908L22.1059 8.49491C21.9914 8.51891 21.9227 8.63888 21.8998 8.80684L21.3729 13.4378L20.1588 14.7814H12.3244L11.202 13.5577C10.698 10.3905 11.2707 7.75109 12.5993 7.41517C13.4469 7.19922 14.4319 7.94304 15.3024 9.31072C14.0654 9.67064 13.1949 10.1025 13.2407 10.3425C13.3095 10.5824 14.409 10.5104 15.7835 10.1985C15.9438 10.5344 16.1042 10.8943 16.2645 11.2783C16.1958 11.3023 16.1271 11.3023 16.0584 11.3262C14.5465 11.7102 13.3782 12.238 13.4469 12.502C13.5156 12.7659 14.7755 12.6699 16.2874 12.286C16.3791 12.262 16.4936 12.238 16.5852 12.214C16.6998 12.574 16.7914 12.9579 16.883 13.3418C16.9518 13.6537 17.0205 13.9896 17.0892 14.3015L20.6399 8.32695C20.7544 8.15899 20.7544 8.03902 20.6628 7.96704L21.0064 7.34318C21.0522 7.24721 21.1667 7.19922 21.2584 7.19922C21.3729 7.22321 21.5332 7.24721 21.6936 7.2952C21.854 7.36718 22.0143 7.43916 22.1518 7.51115C22.2434 7.55913 22.2892 7.67911 22.2663 7.79908Z" fill="white"/>
</g>
<defs>
<clipPath id="clip0_384_9226">
<rect width="234" height="34" fill="white"/>
</clipPath>
</defs>
</svg>