<svg xmlns="http://www.w3.org/2000/svg" width="84.91" height="27.733" viewBox="0 0 84.91 27.733">
  <g id="TakkoLogo_Schriftzug_schwarz_rgb" transform="translate(-44.34 -61.31)">
    <g id="Gruppe_15" data-name="Gruppe 15" transform="translate(44.34 61.31)">
      <path id="Pfad_65" data-name="Pfad 65" d="M147.2,69.27v.013a5.327,5.327,0,1,1,0-.013m2.745,7.486V61.8h-2.923v.91c0,.367.064,1.052.064,1.052h-.152a6.1,6.1,0,0,0-4.85-2.44,7.96,7.96,0,1,0,0,15.919,6.272,6.272,0,0,0,4.85-2.442h.152s-.065.724-.064,1.054c0,.578,0,.91,0,.91h2.923Z" transform="translate(-118.211 -61.318)" fill="#a90230"/>
      <path id="Pfad_66" data-name="Pfad 66" d="M52.724,66.918h4.7l.34-2.748H44.34v2.748h5.38v12.21h3Z" transform="translate(-44.34 -63.691)" fill="#a90230"/>
      <path id="Pfad_67" data-name="Pfad 67" d="M260.167,64.17H257.29V79.129h2.877V73.2l.99-.99,5.68,6.921h3.741L263.2,70.371l6.278-6.2h-3.69L260.167,69.8h-.111a2.072,2.072,0,0,0,.111-.793Z" transform="translate(-219.689 -63.691)" fill="#a90230"/>
      <path id="Pfad_68" data-name="Pfad 68" d="M446.994,69.269a5.117,5.117,0,1,1-5.113-5.324,5.29,5.29,0,0,1,5.113,5.324m2.878,0a7.991,7.991,0,1,0-7.991,7.96,7.868,7.868,0,0,0,7.991-7.96" transform="translate(-364.961 -61.31)" fill="#a90230"/>
      <path id="Pfad_69" data-name="Pfad 69" d="M355.187,64.17H352.31V79.129h2.877V73.2l.99-.99,5.68,6.921H365.6l-7.375-8.758,6.279-6.2h-3.69L355.187,69.8h-.111a2.072,2.072,0,0,0,.111-.793Z" transform="translate(-297.93 -63.691)" fill="#a90230"/>
    </g>
    <g id="Gruppe_16" data-name="Gruppe 16" transform="translate(58.914 82.816)">
      <path id="Pfad_70" data-name="Pfad 70" d="M170.971,188.6h1.054v-4.577h.015l2.812,4.577h1.339v-5.924h-1.056v4.434h-.017l-2.752-4.434h-1.4Zm-9.157-2.978a2.042,2.042,0,1,1,2.033,2.184,2.028,2.028,0,0,1-2.033-2.184m-1.145,0a3.183,3.183,0,0,0,6.365,0,3.184,3.184,0,0,0-6.365,0m-5.205,2.978h1.054v-5.924h-1.054Zm-9.633,0h1.054v-2.626h2.769V188.6h1.056v-5.924h-1.056v2.393h-2.769v-2.393h-1.054Zm-4.635-5.438a2.6,2.6,0,0,0-1.723-.633c-1.071,0-2.167.535-2.167,1.741,0,1.1.778,1.455,1.5,1.679.744.236,1.364.412,1.364,1.031,0,.637-.576.878-1.071.878a1.69,1.69,0,0,1-1.3-.652l-.752.7a2.7,2.7,0,0,0,2.033.846,1.918,1.918,0,0,0,2.159-1.892c0-1.161-.97-1.5-1.731-1.733-.67-.208-1.13-.367-1.13-.91,0-.578.561-.813,1.046-.813a1.45,1.45,0,0,1,1.088.511Zm-11.753,3.179.928-2.408.912,2.408Zm-2.075,2.259h1.18l.536-1.356h2.569l.553,1.356h1.2l-2.552-5.924h-.912Zm-6.938,0h1.054v-2.492H124.1v-.887h-2.611V183.6h2.769v-.92H120.43Z" transform="translate(-120.43 -182.53)" fill="#a90230"/>
    </g>
  </g>
</svg>