<svg xmlns="http://www.w3.org/2000/svg" width="142" height="43" viewBox="0 0 142 43">
    <g fill="none" fill-rule="evenodd">
        <path fill="#FFFFFF" d="M21.5 0A21.44 21.44 0 0 0 5.73 6.887h22.33v.017c.81.038 4.96.379 7.577 3.87 2.2 2.934 2.432 5.616 2.557 7.44l-.029.041c-.507-3.647-3.711-5.131-7.64-5.131l-28.846.022A21.46 21.46 0 0 0 0 21.498c0 9.86 6.639 18.163 15.685 20.698 2.156-1.294 3.199-3.587 3.199-6.673v-6.486h6.24v5.869s.68 4.208-2.827 6.846c-.73.548-1.634.917-2.59 1.167.593.05 1.188.081 1.793.081C33.375 43 43 33.373 43 21.498 43 9.624 33.375 0 21.5 0m8.44 28.082H18.758l6.117-5.663 5.366-.022s5.922-.74 4.798-7.06c1.54.975 2.54 2.534 2.56 4.853 0 4.262-3.403 7.892-7.659 7.892"/>
        <path fill="#FFFFFF" d="M54.939 18.817H52V17L60 17v1.816h-2.938L57.06 28h-2.122zM62.555 28C60.328 28 59 26.545 59 24.015c0-2.559 1.346-4.014 3.524-4.015C64.703 20 66 21.412 66 23.912c0 .132-.016.264-.016.396l-5.03.001c.016 1.456.609 2.19 1.778 2.19.753 0 1.25-.307 1.714-.985l1.458.823C65.262 27.427 64.109 28 62.555 28zm1.492-5c0-1.03-.578-1.632-1.523-1.632-.897 0-1.458.589-1.537 1.632h3.06zM68.001 17.001L69.973 17v6.28l2.603-3.208h2.215l-2.507 2.814L75 28h-2.182l-1.875-3.631-.97 1.074V28H68zM76.3 25.476c.602.734 1.19 1.1 1.855 1.1.71 0 1.129-.337 1.129-.851 0-.632-.572-.778-1.484-1.1-1.67-.603-2.536-1.101-2.536-2.378 0-1.276 1.098-2.247 2.784-2.247 1.128 0 1.994.382 2.736 1.176l-1.206.997c-.51-.514-1.02-.778-1.576-.778-.666 0-1.038.309-1.038.763 0 .514.665.646 1.81 1.071 1.484.544 2.226 1.073 2.226 2.408C81 27.06 79.886 28 78.17 28c-1.345 0-2.319-.483-3.17-1.555l1.3-.969zM85.132 26.326c.22 0 .527-.016.867-.063v1.596c-.322.063-.917.141-1.751.141-1.462.001-2.09-.594-2.09-1.923v-4.852H81l.001-1.595h1.156l.001-2.63h2.109v2.63L86 19.629v1.596h-1.734v4.146c0 .69.102.955.866.955M87 20.072h2L88.999 28H87v-7.928zm.001-3.071L89 17v1.772h-2L87.001 17zM91.001 17H93l-.001 11H91zM96.902 31H95l.001-10.847h1.404l.202.866c.686-.715 1.31-1.019 2.214-1.019 1.854 0 3.179 1.656 3.179 4.132 0 2.567-1.356 4.132-3.118 4.132-.827 0-1.419-.272-1.98-.911V31zm1.45-4.27c1.044 0 1.716-.926 1.716-2.598 0-1.654-.655-2.552-1.73-2.552-.53 0-.966.244-1.451.699v3.784c.499.44.935.668 1.466.668zM104.001 20.136h1.787v1.306c.516-.961 1.182-1.442 1.97-1.442.075 0 .167 0 .242.016v1.935h-.091c-.817 0-1.56.435-2 1.232V28H104l.001-7.864zM112.5 20c2.187 0 3.5 1.47 3.5 4-.001 2.53-1.328 4-3.5 4-2.173.001-3.501-1.485-3.5-3.998 0-2.531 1.313-4.002 3.5-4.002m0 6.442c1.047 0 1.547-.81 1.547-2.441 0-1.633-.5-2.427-1.548-2.427-1.03 0-1.547.794-1.547 2.427 0 1.631.515 2.44 1.547 2.44M117 20.151h1.79v.913c.646-.703 1.4-1.064 2.328-1.064.974 0 1.618.375 2.026 1.169.834-.794 1.62-1.169 2.656-1.169 1.368 0 2.2.765 2.2 1.992l-.001 6.006-1.949.001.001-5.408c0-.673-.314-1.063-.895-1.063-.598 0-1.178.27-1.729.81l-.001 5.661h-1.9v-5.197c0-.854-.25-1.258-.848-1.258-.645 0-1.273.284-1.745.809V28H117v-7.849zM132.556 28c-2.227 0-3.556-1.456-3.556-3.985.001-2.56 1.346-4.015 3.525-4.015 2.178 0 3.475 1.41 3.475 3.911 0 .132-.016.264-.016.398h-5.03c.016 1.456.61 2.19 1.778 2.19.753 0 1.25-.308 1.714-.984l1.458.823c-.642 1.088-1.795 1.662-3.348 1.662zm1.49-5c0-1.03-.577-1.633-1.521-1.633-.897 0-1.458.589-1.539 1.634l3.06-.001zM141.132 26.326c.221 0 .527-.016.867-.063v1.596c-.322.063-.918.141-1.752.141-1.462 0-2.09-.594-2.09-1.923v-4.852H137V19.63h1.157V17h2.11v2.629H142v1.595l-1.735.001v4.146c0 .69.102.955.867.955"/>
    </g>
</svg>