<svg xmlns="http://www.w3.org/2000/svg" width="135" height="29" viewBox="0 0 135 29" fill="none">
<g clip-path="url(#clip0_3082_145078)">
<path d="M134.323 24.9771C134.323 26.4614 133.109 27.6779 131.623 27.6779H30.3745C28.8902 27.6779 27.6738 26.4634 27.6738 24.9771V3.3754C27.6738 1.88911 28.8883 0.674683 30.3745 0.674683H131.625C133.111 0.674683 134.325 1.88911 134.325 3.3754V24.9771" fill="#004289"/>
<path d="M30.3747 1.34936C29.2575 1.34936 28.3506 2.2582 28.3506 3.37341V24.9752C28.3506 26.0924 29.2595 26.9992 30.3747 26.9992H131.625C132.742 26.9992 133.651 26.0904 133.651 24.9752V3.3754C133.651 2.2582 132.742 1.35135 131.625 1.35135H30.3747M131.625 28.3525H30.3747C28.5133 28.3525 26.9993 26.8385 26.9993 24.9771V3.3754C26.9993 1.51407 28.5133 0 30.3747 0H131.625C133.486 0 135 1.51407 135 3.3754V24.9771C135 26.8385 133.486 28.3525 131.625 28.3525Z" fill="white"/>
<path d="M88.7923 14.4064L88.7625 14.4283L88.7685 14.3866L88.7923 14.4064L98.0235 7.35599L99.6983 6.0741L97.5969 6.07608H91.1894L90.991 6.24277L84.1727 11.9815V11.9875L84.1667 11.9855L84.1727 11.9815V6.07608H78.4597V23.6238H84.1727V17.4584L84.1548 17.4425L84.1727 17.4346V17.4584L90.5147 23.4313L90.7191 23.6258H90.9989L97.8211 23.6238H99.7737L88.7923 14.4064Z" fill="white"/>
<path d="M102.32 6.07617H101.756V23.6259H106.616V6.07617H102.32Z" fill="white"/>
<path d="M44.3801 6.07617H31.7239V10.3941H39.318V23.6259H44.3801V10.3941H51.9743V6.07617H44.3801Z" fill="white"/>
<path d="M120.798 5.19302L122.667 2.43079H117.974L116.206 5.19302H120.798Z" fill="white"/>
<path d="M124.906 6.0741H113.968C110.569 6.0741 108.598 6.82418 108.598 10.6619V19.0359C108.598 22.8737 110.567 23.6238 113.968 23.6238H124.906C128.307 23.6238 130.273 22.8717 130.273 19.0359V16.3273L124.366 16.3193V19.0637L124.35 19.0836H114.212V19.0994L114.188 19.0836H114.212V10.2214H124.366V10.2115L124.376 10.2214H124.366V12.9697L129.452 12.9598L130.273 12.9559V10.6619C130.273 6.82418 128.305 6.0741 124.906 6.0741" fill="white"/>
<path d="M70.9467 19.407V19.3991H59.0961V19.405V19.3991V10.0984H70.9467V19.3991H70.9507L70.9467 19.407ZM71.0499 6.0741H58.9076C55.5421 6.0741 53.7185 6.78847 53.7185 10.5667V19.1292C53.7185 22.9074 55.5421 23.6238 58.9076 23.6238H71.0499C74.4154 23.6238 76.239 22.9074 76.239 19.1292V10.5667C76.239 6.78847 74.4154 6.0741 71.0499 6.0741V6.0741Z" fill="white"/>
<path d="M27.6758 24.9771C27.6758 26.4614 26.4613 27.6779 24.975 27.6779H3.37528C1.88899 27.6779 0.674561 26.4634 0.674561 24.9771V3.3754C0.674561 1.88911 1.88899 0.674683 3.37528 0.674683H24.975C26.4593 0.674683 27.6758 1.88911 27.6758 3.3754V24.9771Z" fill="#004289"/>
<path d="M3.3754 1.34936C2.2582 1.34936 1.35135 2.2582 1.35135 3.37341V24.9752C1.35135 26.0924 2.26019 26.9992 3.3754 26.9992H24.9752C26.0924 26.9992 26.9992 26.0904 26.9992 24.9752V3.3754C26.9992 2.2582 26.0904 1.35135 24.9752 1.35135H3.3754M24.9752 28.3525H3.3754C1.51407 28.3525 0 26.8385 0 24.9771V3.3754C0 1.51407 1.51407 0 3.3754 0H24.9752C26.8365 0 28.3506 1.51407 28.3506 3.3754V24.9771C28.3506 26.8385 26.8365 28.3525 24.9752 28.3525Z" fill="white"/>
<path d="M5.39941 14.1743C5.39941 9.33837 9.33639 5.39941 14.1743 5.39941C19.0121 5.39941 22.9491 9.33837 22.9491 14.1743C22.9491 19.0101 19.0141 22.9511 14.1743 22.9511C9.3344 22.9511 5.39941 19.0141 5.39941 14.1743" fill="white"/>
<path d="M6.75073 14.1743C6.75073 10.0805 10.0825 6.74878 14.1762 6.74878C18.2699 6.74878 21.6017 10.0805 21.6017 14.1743C21.6017 18.268 18.2719 21.5997 14.1762 21.5997C10.0805 21.5997 6.75073 18.268 6.75073 14.1743" fill="#DC0814"/>
</g>
<defs>
<clipPath id="clip0_3082_145078">
<rect width="135" height="28.3506" fill="white"/>
</clipPath>
</defs>
</svg>