<svg width="682" height="200" viewBox="0 0 682 200" fill="none" xmlns="http://www.w3.org/2000/svg" class="w-auto text-red-500 visited:text-red-500 transition duration-100 hover:text-red-600 h-full"><path d="M181.982 118.773C172.008 118.773 163.769 110.513 163.769 100.189C163.769 90.0118 171.864 81.6047 181.982 81.6047C191.956 81.6047 200.195 89.8643 200.195 100.189C200.05 110.513 191.956 118.773 181.982 118.773ZM681.818 28.0649H611.714L590.755 61.2507L569.94 28.0649H466.013L439.416 57.8584L411.953 28.0649H353.846L326.238 57.8584L299.497 28.0649H241.39V57.2684C228.092 38.3894 206.41 26 181.982 26C158.855 26 138.185 37.0619 124.887 54.1711V28.0649H0V87.6519H33.2453V172.46H91.4969V87.7994H109.999C109.276 91.9292 108.842 96.2065 108.842 100.484C108.842 141.634 141.509 174.82 181.693 174.82C206.266 174.82 227.947 162.431 241.101 143.552V172.46H299.352V104.614L326.093 138.537L353.557 104.614V172.313H411.953V104.614L439.416 138.537L466.013 104.614V172.313H524.264V67.2979L561.701 120.1V172.46H619.953V120.1L681.818 28.0649Z" fill="#FFFFFF"></path></svg>