<svg xmlns="http://www.w3.org/2000/svg" xmlns:xlink="http://www.w3.org/1999/xlink" version="1.1" id="Layer_1" x="0px" y="0px" viewBox="0 0 841.89 595.28" style="enable-background:new 0 0 841.89 595.28;" xml:space="preserve">
<polygon points="92.26,187.63 133.85,143.39 223.75,228.51 246.08,200.22 267.05,269.33 293,294.58 264.48,179.1 273.8,167.66   326.81,179.66 353.47,284.08 458.24,175.07 497.58,234.06 469.27,306.97 584.42,227.92 509.85,224.15 470.45,163.98 679.98,169.17   696.26,223.68 629.72,270.63 756.9,244.2 774.84,301.78 641.76,330.45 439.54,400.17 435.29,390.97 402.25,463.41 330.52,459.87   394,330.09 360.37,365.13 332.76,358.05 304.27,388.49 228.88,317.35 156.32,407.08 109.07,368.14 184.93,275.82 "/>
</svg>