<svg width="260" height="38" viewBox="0 0 260 38" fill="none" xmlns="http://www.w3.org/2000/svg">
        <path id="zoocity-logo-svg" fill-rule="evenodd" clip-rule="evenodd" d="M47.4 19C47.4 25.1001 51.4 29.2 57.4 29.2C63.3 29.2 67.4 25 67.4 19C67.4 13.1001 63.2 8.80005 57.4 8.80005C51.5 8.80005 47.4 12.8999 47.4 19ZM77.2 19C77.2 29.7 68.5 38 57.4 38C46.3 38 37.7 29.7 37.7 19C37.7 8.30005 46.4 0 57.4 0C68.5 0 77.2 8.3999 77.2 19ZM31.2 33C31.2 35.5 29.3 37.3 26.8 37.3H4.40002C1.90002 37.3 0 35.3999 0 33C0 31.8999 0.400024 31.0999 1.20001 30.0999L17.4 9.30005H6.20001C3.70001 9.30005 1.79999 7.5 1.79999 5C1.79999 2.59985 3.70001 0.699951 6.20001 0.699951H26.2C28.6 0.699951 30.6 2.59985 30.6 5C30.6 6 30.3 6.8999 29.4 8L13.4 28.8H26.8C29.4 28.7 31.2 30.5 31.2 33ZM151.9 0C140.8 0 132.1 8.30005 132.1 19C132.1 29.7 140.7 38 151.8 37.8999C157.4 37.8999 162.7 35.6001 165.9 31.8C166.9 30.6001 167.3 29.5 167.3 28.3999C167.3 26 165.3 24.1001 162.9 24.1001C161.5 24.1001 160.3 24.7 159.2 25.8999C157.1 28.1001 154.7 29.2 151.8 29.2C145.9 29.2 141.8 25.1001 141.8 19C141.8 12.8999 145.9 8.69995 151.8 8.69995C154.8 8.69995 157.2 9.80005 159.3 12C160.4 13.2 161.7 13.8 163 13.8C165.5 13.8 167.4 11.8999 167.4 9.5C167.4 8.30005 166.9 7.1001 166 6.1001C162.8 2.30005 157.5 0 151.9 0ZM173.9 33.1001V4.80005C173.9 2 175.9 0 178.7 0C181.5 0 183.5 2.1001 183.5 4.80005V33.1001C183.5 35.8999 181.5 37.8999 178.7 37.8999C175.9 37.8999 173.9 35.8999 173.9 33.1001ZM201.4 9.30005V33.0999C201.4 35.8999 203.5 38 206.2 38C208.9 38 211 36 211 33.2V9.30005H218.1C220.6 9.30005 222.5 7.5 222.5 5C222.5 2.5 220.7 0.699951 218.1 0.699951H194.2C191.7 0.699951 189.8 2.59985 189.8 5C189.8 7.5 191.7 9.30005 194.2 9.30005H201.4ZM258.7 7.6001L249.1 23.5V33.2C249.1 36 247 38 244.3 38C241.6 38 239.5 35.8999 239.5 33.2V23.5L230 7.6001C229.3 6.5 229.1 5.6001 229.1 4.5C229.1 1.8999 231.1 0 233.7 0C235.7 0 237.1 0.899902 238.1 2.80005L244.4 14.1001L250.7 2.80005C251.7 1 253.1 0 255.1 0C257.7 0 259.7 1.8999 259.7 4.5C259.7 5.6001 259.4 6.5 258.7 7.6001ZM106.5 37.1001C106 37.7 105.4 38 104.7 38C104 38 103.4 37.6001 102.9 37L89.7 22.3C85.1 17.1001 83.7 14.3999 83.7 10.8999C83.7 4.69995 88.3 0 94.4 0C99 0 102.9 2.80005 104.7 7.1001C106.3 2.80005 110.3 0 114.9 0C121 0 125.6 4.69995 125.6 10.8999C125.6 14.3999 124.2 17.2 119.6 22.3L106.5 37.1001Z" fill="#333F48"></path>
    </svg>